M48
; DRILL file {KiCad 9.0.7} date 2026-05-28T15:11:57-0500
; FORMAT={-:-/ absolute / metric / decimal}
; #@! TF.CreationDate,2026-05-28T15:11:57-05:00
; #@! TF.GenerationSoftware,Kicad,Pcbnew,9.0.7
; #@! TF.FileFunction,Plated,1,2,PTH
FMAT,2
METRIC
; #@! TA.AperFunction,Plated,PTH,ViaDrill
T1C0.300
; #@! TA.AperFunction,Plated,PTH,ComponentDrill
T2C1.000
%
G90
G05
T1
X11.625Y1.71
X11.625Y-4.29
X11.98Y-6.48
X14.18Y-8.18
X15.75Y-5.66
X15.86Y-7.97
X15.86Y-8.93
X17.3Y0.18
X18.2Y-4.2
X18.8Y-2.82
X20.61Y0.53
X22.56Y-6.78
X23.93Y2.23
X24.51Y-4.67
X25.105Y-2.425
X25.49Y0.53
X27.378Y-7.877
X30.14Y-9.13
X31.22Y4.76
X31.41Y-7.74
X32.71Y-2.45
X33.78Y-8.5
X33.83Y-7.27
X33.87Y-3.93
X34.67Y0.34
X34.75Y-5.79
X35.81Y-8.48
X35.86Y-7.32
X36.18Y-5.32
X36.325Y-1.93
X38.1Y1.57
X38.1Y0.02
X38.2Y-2.88
X39.44Y1.895
X39.44Y-4.955
T2
X12.24Y5.2
X14.78Y5.2
X17.32Y5.2
X19.86Y5.2
X22.4Y5.2
M30
