G04 #@! TF.GenerationSoftware,KiCad,Pcbnew,9.0.7*
G04 #@! TF.CreationDate,2026-05-28T15:11:57-05:00*
G04 #@! TF.ProjectId,Knox Key Kicad,4b6e6f78-204b-4657-9920-4b696361642e,rev?*
G04 #@! TF.SameCoordinates,PX813b7f0PY6643331*
G04 #@! TF.FileFunction,Profile,NP*
%FSLAX46Y46*%
G04 Gerber Fmt 4.6, Leading zero omitted, Abs format (unit mm)*
G04 Created by KiCad (PCBNEW 9.0.7) date 2026-05-28 15:11:57*
%MOMM*%
%LPD*%
G01*
G04 APERTURE LIST*
G04 #@! TA.AperFunction,Profile*
%ADD10C,0.050000*%
G04 #@! TD*
G04 APERTURE END LIST*
D10*
X37690000Y-5530000D02*
X37682566Y-10049874D01*
X37680000Y-10050000D02*
X20362500Y-10050000D01*
X37690000Y7070002D02*
X20360000Y7070000D01*
X15690000Y-10050000D02*
X10460000Y-10050000D01*
X15690000Y7070000D02*
X10460000Y7070000D01*
X37690000Y2469999D02*
X37690000Y7070002D01*
X20362500Y7070000D02*
X15690000Y7070000D01*
X15690000Y-10050000D02*
X20362500Y-10050000D01*
X10460000Y-10050000D02*
X10460000Y7070000D01*
G04 #@! TO.C,P1*
X37690000Y2470001D02*
X40040000Y2470001D01*
X37690000Y-5529999D02*
X40040000Y-5529999D01*
X40040000Y1695001D02*
X40040000Y2470001D01*
X40040000Y-4754999D02*
X40040000Y-5529999D01*
X41490000Y1545001D02*
X40190000Y1545001D01*
X41490000Y-4604999D02*
X40190000Y-4604999D01*
X41690000Y-4404999D02*
X41690000Y1345001D01*
X40040000Y-4754999D02*
G75*
G02*
X40190000Y-4604999I150000J0D01*
G01*
X40190000Y1545001D02*
G75*
G02*
X40040000Y1695001I0J150000D01*
G01*
X41490000Y1545001D02*
G75*
G02*
X41690000Y1345001I0J-200000D01*
G01*
X41690000Y-4404999D02*
G75*
G02*
X41490000Y-4604999I-200001J1D01*
G01*
G04 #@! TD*
M02*
