G04 #@! TF.GenerationSoftware,KiCad,Pcbnew,9.0.7*
G04 #@! TF.CreationDate,2026-05-28T15:11:57-05:00*
G04 #@! TF.ProjectId,Knox Key Kicad,4b6e6f78-204b-4657-9920-4b696361642e,rev?*
G04 #@! TF.SameCoordinates,PX813b7f0PY6643331*
G04 #@! TF.FileFunction,Legend,Top*
G04 #@! TF.FilePolarity,Positive*
%FSLAX46Y46*%
G04 Gerber Fmt 4.6, Leading zero omitted, Abs format (unit mm)*
G04 Created by KiCad (PCBNEW 9.0.7) date 2026-05-28 15:11:57*
%MOMM*%
%LPD*%
G01*
G04 APERTURE LIST*
G04 Aperture macros list*
%AMRoundRect*
0 Rectangle with rounded corners*
0 $1 Rounding radius*
0 $2 $3 $4 $5 $6 $7 $8 $9 X,Y pos of 4 corners*
0 Add a 4 corners polygon primitive as box body*
4,1,4,$2,$3,$4,$5,$6,$7,$8,$9,$2,$3,0*
0 Add four circle primitives for the rounded corners*
1,1,$1+$1,$2,$3*
1,1,$1+$1,$4,$5*
1,1,$1+$1,$6,$7*
1,1,$1+$1,$8,$9*
0 Add four rect primitives between the rounded corners*
20,1,$1+$1,$2,$3,$4,$5,0*
20,1,$1+$1,$4,$5,$6,$7,0*
20,1,$1+$1,$6,$7,$8,$9,0*
20,1,$1+$1,$8,$9,$2,$3,0*%
G04 Aperture macros list end*
%ADD10C,0.125000*%
%ADD11C,0.150000*%
%ADD12C,0.120000*%
%ADD13C,0.100000*%
%ADD14RoundRect,0.140000X-0.140000X-0.170000X0.140000X-0.170000X0.140000X0.170000X-0.140000X0.170000X0*%
%ADD15R,1.100000X1.500000*%
%ADD16RoundRect,0.225000X-0.250000X0.225000X-0.250000X-0.225000X0.250000X-0.225000X0.250000X0.225000X0*%
%ADD17RoundRect,0.225000X-0.225000X-0.250000X0.225000X-0.250000X0.225000X0.250000X-0.225000X0.250000X0*%
%ADD18RoundRect,0.135000X0.185000X-0.135000X0.185000X0.135000X-0.185000X0.135000X-0.185000X-0.135000X0*%
%ADD19R,1.700000X1.700000*%
%ADD20C,1.700000*%
%ADD21RoundRect,0.250000X-0.450000X-0.350000X0.450000X-0.350000X0.450000X0.350000X-0.450000X0.350000X0*%
%ADD22RoundRect,0.140000X0.170000X-0.140000X0.170000X0.140000X-0.170000X0.140000X-0.170000X-0.140000X0*%
%ADD23RoundRect,0.140000X-0.170000X0.140000X-0.170000X-0.140000X0.170000X-0.140000X0.170000X0.140000X0*%
%ADD24RoundRect,0.135000X-0.135000X-0.185000X0.135000X-0.185000X0.135000X0.185000X-0.135000X0.185000X0*%
%ADD25RoundRect,0.135000X-0.185000X0.135000X-0.185000X-0.135000X0.185000X-0.135000X0.185000X0.135000X0*%
%ADD26RoundRect,0.135000X0.135000X0.185000X-0.135000X0.185000X-0.135000X-0.185000X0.135000X-0.185000X0*%
%ADD27RoundRect,0.075000X0.075000X-0.662500X0.075000X0.662500X-0.075000X0.662500X-0.075000X-0.662500X0*%
%ADD28RoundRect,0.075000X0.662500X-0.075000X0.662500X0.075000X-0.662500X0.075000X-0.662500X-0.075000X0*%
%ADD29R,0.750000X0.300000*%
%ADD30R,1.300000X1.500000*%
%ADD31RoundRect,0.225000X0.250000X-0.225000X0.250000X0.225000X-0.250000X0.225000X-0.250000X-0.225000X0*%
%ADD32RoundRect,0.128000X0.272000X-0.272000X0.272000X0.272000X-0.272000X0.272000X-0.272000X-0.272000X0*%
%ADD33RoundRect,0.080000X0.620000X-0.080000X0.620000X0.080000X-0.620000X0.080000X-0.620000X-0.080000X0*%
%ADD34RoundRect,0.087500X0.612500X-0.087500X0.612500X0.087500X-0.612500X0.087500X-0.612500X-0.087500X0*%
%ADD35RoundRect,0.150000X-0.587500X-0.150000X0.587500X-0.150000X0.587500X0.150000X-0.587500X0.150000X0*%
%ADD36R,0.750000X1.000000*%
%ADD37RoundRect,0.150000X0.512500X0.150000X-0.512500X0.150000X-0.512500X-0.150000X0.512500X-0.150000X0*%
G04 APERTURE END LIST*
D10*
X34354193Y6279536D02*
X34707746Y6633089D01*
X34556223Y6077505D02*
X34606731Y6431059D01*
X34909777Y6431059D02*
X34505716Y6431059D01*
X34707746Y5925982D02*
X35061300Y6279536D01*
X35061300Y6279536D02*
X34909777Y5723952D01*
X34909777Y5723952D02*
X35263330Y6077505D01*
X35499033Y5841803D02*
X35566376Y5774459D01*
X35566376Y5774459D02*
X35583212Y5723952D01*
X35583212Y5723952D02*
X35583212Y5656608D01*
X35583212Y5656608D02*
X35532705Y5572429D01*
X35532705Y5572429D02*
X35414853Y5454578D01*
X35414853Y5454578D02*
X35330674Y5404070D01*
X35330674Y5404070D02*
X35263331Y5404070D01*
X35263331Y5404070D02*
X35212823Y5420906D01*
X35212823Y5420906D02*
X35145479Y5488249D01*
X35145479Y5488249D02*
X35128644Y5538757D01*
X35128644Y5538757D02*
X35128644Y5606101D01*
X35128644Y5606101D02*
X35179151Y5690280D01*
X35179151Y5690280D02*
X35297002Y5808131D01*
X35297002Y5808131D02*
X35381182Y5858639D01*
X35381182Y5858639D02*
X35448525Y5858639D01*
X35448525Y5858639D02*
X35499033Y5841803D01*
X35768407Y5572428D02*
X35650556Y4983173D01*
X36004109Y5336726D02*
X35414854Y5218875D01*
X36054616Y4579112D02*
X36408170Y4932666D01*
X36256647Y4377082D02*
X36307155Y4730635D01*
X36610200Y4730635D02*
X36206139Y4730635D01*
X36593364Y4410754D02*
X36711216Y4292902D01*
X36576529Y4057200D02*
X36408170Y4225559D01*
X36408170Y4225559D02*
X36761723Y4579112D01*
X36761723Y4579112D02*
X36930082Y4410754D01*
X36963754Y4006693D02*
X36795395Y3838334D01*
X37031097Y4309738D02*
X36963754Y4006693D01*
X36963754Y4006693D02*
X37266800Y4074036D01*
D11*
X18494819Y-2018093D02*
X17494819Y-2018093D01*
X17494819Y-2018093D02*
X17494819Y-1779998D01*
X17494819Y-1779998D02*
X17542438Y-1637141D01*
X17542438Y-1637141D02*
X17637676Y-1541903D01*
X17637676Y-1541903D02*
X17732914Y-1494284D01*
X17732914Y-1494284D02*
X17923390Y-1446665D01*
X17923390Y-1446665D02*
X18066247Y-1446665D01*
X18066247Y-1446665D02*
X18256723Y-1494284D01*
X18256723Y-1494284D02*
X18351961Y-1541903D01*
X18351961Y-1541903D02*
X18447200Y-1637141D01*
X18447200Y-1637141D02*
X18494819Y-1779998D01*
X18494819Y-1779998D02*
X18494819Y-2018093D01*
X18494819Y-494284D02*
X18494819Y-1065712D01*
X18494819Y-779998D02*
X17494819Y-779998D01*
X17494819Y-779998D02*
X17637676Y-875236D01*
X17637676Y-875236D02*
X17732914Y-970474D01*
X17732914Y-970474D02*
X17780533Y-1065712D01*
D10*
X36804809Y-3280952D02*
X37209571Y-3280952D01*
X37209571Y-3280952D02*
X37257190Y-3257142D01*
X37257190Y-3257142D02*
X37281000Y-3233333D01*
X37281000Y-3233333D02*
X37304809Y-3185714D01*
X37304809Y-3185714D02*
X37304809Y-3090476D01*
X37304809Y-3090476D02*
X37281000Y-3042857D01*
X37281000Y-3042857D02*
X37257190Y-3019047D01*
X37257190Y-3019047D02*
X37209571Y-2995238D01*
X37209571Y-2995238D02*
X36804809Y-2995238D01*
X36804809Y-2804761D02*
X36804809Y-2495237D01*
X36804809Y-2495237D02*
X36995285Y-2661904D01*
X36995285Y-2661904D02*
X36995285Y-2590475D01*
X36995285Y-2590475D02*
X37019095Y-2542856D01*
X37019095Y-2542856D02*
X37042904Y-2519047D01*
X37042904Y-2519047D02*
X37090523Y-2495237D01*
X37090523Y-2495237D02*
X37209571Y-2495237D01*
X37209571Y-2495237D02*
X37257190Y-2519047D01*
X37257190Y-2519047D02*
X37281000Y-2542856D01*
X37281000Y-2542856D02*
X37304809Y-2590475D01*
X37304809Y-2590475D02*
X37304809Y-2733332D01*
X37304809Y-2733332D02*
X37281000Y-2780951D01*
X37281000Y-2780951D02*
X37257190Y-2804761D01*
D12*
G04 #@! TO.C,C2*
X35222164Y-8120000D02*
X35437836Y-8120000D01*
X35222164Y-8840000D02*
X35437836Y-8840000D01*
D13*
G04 #@! TO.C,D1*
X16450000Y-3519999D02*
X16450000Y1180001D01*
X16450000Y-3519999D02*
X16750000Y-3819999D01*
X19650000Y1180001D02*
X16450000Y1180001D01*
X19650000Y-3819999D02*
X16750000Y-3819999D01*
X19650000Y-3819999D02*
X19650000Y1180001D01*
D12*
G04 #@! TO.C,C12*
X30900000Y-6824420D02*
X30900000Y-7105580D01*
X31920000Y-6824420D02*
X31920000Y-7105580D01*
G04 #@! TO.C,C1*
X33834420Y-5280000D02*
X34115580Y-5280000D01*
X33834420Y-6300000D02*
X34115580Y-6300000D01*
G04 #@! TO.C,R3*
X32330000Y-2093641D02*
X32330000Y-1786359D01*
X33090000Y-2093641D02*
X33090000Y-1786359D01*
G04 #@! TO.C,J3*
X10860000Y6580000D02*
X10860000Y3820000D01*
X21130000Y6580000D02*
X10860000Y6580000D01*
X21130000Y6580000D02*
X21130000Y3820000D01*
X21130000Y3820000D02*
X10860000Y3820000D01*
X22400000Y6580000D02*
X23780000Y6580000D01*
X23780000Y6580000D02*
X23780000Y5200000D01*
G04 #@! TO.C,Y1*
X11020000Y-5620000D02*
X11020000Y-9040000D01*
X11020000Y-9040000D02*
X15140000Y-9040000D01*
G04 #@! TO.C,C5*
X33242164Y-6910000D02*
X33457836Y-6910000D01*
X33242164Y-7630000D02*
X33457836Y-7630000D01*
G04 #@! TO.C,C6*
X35820000Y-5907836D02*
X35820000Y-5692164D01*
X36540000Y-5907836D02*
X36540000Y-5692164D01*
G04 #@! TO.C,C10*
X33510000Y-3342164D02*
X33510000Y-3557836D01*
X34230000Y-3342164D02*
X34230000Y-3557836D01*
G04 #@! TO.C,R4*
X30496359Y-8750000D02*
X30803641Y-8750000D01*
X30496359Y-9510000D02*
X30803641Y-9510000D01*
G04 #@! TO.C,R7*
X20020000Y-5796359D02*
X20020000Y-6103641D01*
X20780000Y-5796359D02*
X20780000Y-6103641D01*
G04 #@! TO.C,C4*
X35272164Y-6960000D02*
X35487836Y-6960000D01*
X35272164Y-7680000D02*
X35487836Y-7680000D01*
G04 #@! TO.C,R2*
X32783641Y2560000D02*
X32476359Y2560000D01*
X32783641Y1800000D02*
X32476359Y1800000D01*
G04 #@! TO.C,C7*
X22200000Y-6192164D02*
X22200000Y-6407836D01*
X22920000Y-6192164D02*
X22920000Y-6407836D01*
G04 #@! TO.C,U6*
X23287500Y1460000D02*
X23737500Y1460000D01*
X23287500Y1010000D02*
X23287500Y1460000D01*
X23287500Y-5760000D02*
X23287500Y-5310000D01*
X23737500Y-5760000D02*
X23287500Y-5760000D01*
X30057500Y1460000D02*
X30507500Y1460000D01*
X30507500Y1460000D02*
X30507500Y1010000D01*
X30507500Y-5310000D02*
X30507500Y-5760000D01*
X30507500Y-5760000D02*
X30057500Y-5760000D01*
X23737500Y-6400000D02*
X23267500Y-6740000D01*
X23267500Y-6060000D01*
X23737500Y-6400000D01*
G36*
X23737500Y-6400000D02*
G01*
X23267500Y-6740000D01*
X23267500Y-6060000D01*
X23737500Y-6400000D01*
G37*
G04 #@! TO.C,U2*
X36170000Y1450000D02*
X33170000Y1450000D01*
X36170000Y-770000D02*
X33170000Y-770000D01*
X36680000Y-1030000D02*
X36680000Y-750000D01*
X36960000Y-750000D01*
X36680000Y-1030000D01*
G36*
X36680000Y-1030000D02*
G01*
X36680000Y-750000D01*
X36960000Y-750000D01*
X36680000Y-1030000D01*
G37*
G04 #@! TO.C,C11*
X37590000Y654420D02*
X37590000Y935580D01*
X38610000Y654420D02*
X38610000Y935580D01*
G04 #@! TO.C,U3*
X36502500Y-1320000D02*
X38022500Y-1320000D01*
X36502500Y-1370000D02*
X36502500Y-1320000D01*
X36502500Y-3270000D02*
X36502500Y-2490000D01*
X36502500Y-4440000D02*
X36502500Y-4390000D01*
X38022500Y-1320000D02*
X38022500Y-2320000D01*
X38022500Y-3440000D02*
X38022500Y-4440000D01*
X38022500Y-4440000D02*
X36502500Y-4440000D01*
X36202500Y-2830000D02*
X35722500Y-2830000D01*
X35962500Y-2500000D01*
X36202500Y-2830000D01*
G36*
X36202500Y-2830000D02*
G01*
X35722500Y-2830000D01*
X35962500Y-2500000D01*
X36202500Y-2830000D01*
G37*
G04 #@! TO.C,C8*
X15500000Y-8557836D02*
X15500000Y-8342164D01*
X16220000Y-8557836D02*
X16220000Y-8342164D01*
G04 #@! TO.C,R1*
X20230000Y173641D02*
X20230000Y-133641D01*
X20990000Y173641D02*
X20990000Y-133641D01*
G04 #@! TO.C,R8*
X20020000Y-7736359D02*
X20020000Y-8043641D01*
X20780000Y-7736359D02*
X20780000Y-8043641D01*
G04 #@! TO.C,C9*
X15390000Y-6247836D02*
X15390000Y-6032164D01*
X16110000Y-6247836D02*
X16110000Y-6032164D01*
G04 #@! TO.C,SW1*
X10750000Y10001D02*
X10750000Y-2589999D01*
X11200000Y460001D02*
X10750000Y10001D01*
X11200000Y-3039999D02*
X10750000Y-2589999D01*
X14500000Y1460001D02*
X12500000Y1460001D01*
X14500000Y-4039999D02*
X12500000Y-4039999D01*
X15800000Y460001D02*
X16250000Y10001D01*
X15800000Y-3039999D02*
X16250000Y-2589999D01*
X16250000Y10001D02*
X16250000Y-2589999D01*
G04 #@! TO.C,C3*
X33192164Y-8140000D02*
X33407836Y-8140000D01*
X33192164Y-8860000D02*
X33407836Y-8860000D01*
G04 #@! TO.C,U4*
X29172500Y6320000D02*
X30992500Y6320000D01*
X29172500Y6270000D02*
X29172500Y6320000D01*
X29172500Y3200000D02*
X29172500Y3250000D01*
X30992500Y6320000D02*
X30992500Y6270000D01*
X30992500Y3250000D02*
X30992500Y3200000D01*
X30992500Y3200000D02*
X29172500Y3200000D01*
X31772500Y2920000D02*
X31292500Y2920000D01*
X31532500Y3250000D01*
X31772500Y2920000D01*
G36*
X31772500Y2920000D02*
G01*
X31292500Y2920000D01*
X31532500Y3250000D01*
X31772500Y2920000D01*
G37*
G04 #@! TO.C,R5*
X13983641Y3330000D02*
X13676359Y3330000D01*
X13983641Y2570000D02*
X13676359Y2570000D01*
G04 #@! TO.C,R6*
X20020000Y-4153641D02*
X20020000Y-3846359D01*
X20780000Y-4153641D02*
X20780000Y-3846359D01*
G04 #@! TD*
%LPC*%
D14*
G04 #@! TO.C,C2*
X34850000Y-8480000D03*
X35810000Y-8480000D03*
G04 #@! TD*
D15*
G04 #@! TO.C,D1*
X17300000Y-2819999D03*
X17300000Y180001D03*
X18800000Y180001D03*
X18800000Y-2819999D03*
G04 #@! TD*
D16*
G04 #@! TO.C,C12*
X31410000Y-6190000D03*
X31410000Y-7740000D03*
G04 #@! TD*
D17*
G04 #@! TO.C,C1*
X33200000Y-5790000D03*
X34750000Y-5790000D03*
G04 #@! TD*
D18*
G04 #@! TO.C,R3*
X32710000Y-2450000D03*
X32710000Y-1430000D03*
G04 #@! TD*
D19*
G04 #@! TO.C,J3*
X22400000Y5200000D03*
D20*
X19860000Y5200000D03*
X17320000Y5200000D03*
X14780000Y5200000D03*
X12240000Y5200000D03*
G04 #@! TD*
D21*
G04 #@! TO.C,Y1*
X11980000Y-8180000D03*
X14180000Y-8180000D03*
X14180000Y-6480000D03*
X11980000Y-6480000D03*
G04 #@! TD*
D14*
G04 #@! TO.C,C5*
X32870000Y-7270000D03*
X33830000Y-7270000D03*
G04 #@! TD*
D22*
G04 #@! TO.C,C6*
X36180000Y-6280000D03*
X36180000Y-5320000D03*
G04 #@! TD*
D23*
G04 #@! TO.C,C10*
X33870000Y-2970000D03*
X33870000Y-3930000D03*
G04 #@! TD*
D24*
G04 #@! TO.C,R4*
X30140000Y-9130000D03*
X31160000Y-9130000D03*
G04 #@! TD*
D25*
G04 #@! TO.C,R7*
X20400000Y-5440000D03*
X20400000Y-6460000D03*
G04 #@! TD*
D14*
G04 #@! TO.C,C4*
X34900000Y-7320000D03*
X35860000Y-7320000D03*
G04 #@! TD*
D26*
G04 #@! TO.C,R2*
X33140000Y2180000D03*
X32120000Y2180000D03*
G04 #@! TD*
D23*
G04 #@! TO.C,C7*
X22560000Y-5820000D03*
X22560000Y-6780000D03*
G04 #@! TD*
D27*
G04 #@! TO.C,U6*
X24147500Y-6312500D03*
X24647500Y-6312500D03*
X25147500Y-6312500D03*
X25647500Y-6312500D03*
X26147500Y-6312500D03*
X26647500Y-6312500D03*
X27147500Y-6312500D03*
X27647500Y-6312500D03*
X28147500Y-6312500D03*
X28647500Y-6312500D03*
X29147500Y-6312500D03*
X29647500Y-6312500D03*
D28*
X31060000Y-4900000D03*
X31060000Y-4400000D03*
X31060000Y-3900000D03*
X31060000Y-3400000D03*
X31060000Y-2900000D03*
X31060000Y-2400000D03*
X31060000Y-1900000D03*
X31060000Y-1400000D03*
X31060000Y-900000D03*
X31060000Y-400000D03*
X31060000Y100000D03*
X31060000Y600000D03*
D27*
X29647500Y2012500D03*
X29147500Y2012500D03*
X28647500Y2012500D03*
X28147500Y2012500D03*
X27647500Y2012500D03*
X27147500Y2012500D03*
X26647500Y2012500D03*
X26147500Y2012500D03*
X25647500Y2012500D03*
X25147500Y2012500D03*
X24647500Y2012500D03*
X24147500Y2012500D03*
D28*
X22735000Y600000D03*
X22735000Y100000D03*
X22735000Y-400000D03*
X22735000Y-900000D03*
X22735000Y-1400000D03*
X22735000Y-1900000D03*
X22735000Y-2400000D03*
X22735000Y-2900000D03*
X22735000Y-3400000D03*
X22735000Y-3900000D03*
X22735000Y-4400000D03*
X22735000Y-4900000D03*
G04 #@! TD*
D29*
G04 #@! TO.C,U2*
X36120000Y-410000D03*
X36120000Y90000D03*
X36120000Y590000D03*
X36120000Y1090000D03*
X33220000Y1090000D03*
X33220000Y590000D03*
X33220000Y90000D03*
X33220000Y-410000D03*
D30*
X34670000Y340000D03*
G04 #@! TD*
D31*
G04 #@! TO.C,C11*
X38100000Y20000D03*
X38100000Y1570000D03*
G04 #@! TD*
D32*
G04 #@! TO.C,P1*
X39440000Y-4954999D03*
D33*
X40090000Y1220001D03*
D32*
X39440000Y1895001D03*
D34*
X40090000Y720001D03*
X40090000Y220001D03*
X40090000Y-279999D03*
X40090000Y-779999D03*
X40090000Y-1279999D03*
X40090000Y-1779999D03*
X40090000Y-2279999D03*
X40090000Y-2779999D03*
X40090000Y-3279999D03*
X40090000Y-3779999D03*
D33*
X40090000Y-4279999D03*
G04 #@! TD*
D35*
G04 #@! TO.C,U3*
X36325000Y-1930000D03*
X36325000Y-3830000D03*
X38200000Y-2880000D03*
G04 #@! TD*
D22*
G04 #@! TO.C,C8*
X15860000Y-8930000D03*
X15860000Y-7970000D03*
G04 #@! TD*
D25*
G04 #@! TO.C,R1*
X20610000Y530000D03*
X20610000Y-490000D03*
G04 #@! TD*
G04 #@! TO.C,R8*
X20400000Y-7380000D03*
X20400000Y-8400000D03*
G04 #@! TD*
D22*
G04 #@! TO.C,C9*
X15750000Y-6620000D03*
X15750000Y-5660000D03*
G04 #@! TD*
D36*
G04 #@! TO.C,SW1*
X15375000Y1710001D03*
X15375000Y-4289999D03*
X11625000Y1710001D03*
X11625000Y-4289999D03*
G04 #@! TD*
D14*
G04 #@! TO.C,C3*
X32820000Y-8500000D03*
X33780000Y-8500000D03*
G04 #@! TD*
D37*
G04 #@! TO.C,U4*
X31220000Y3810000D03*
X31220000Y4760000D03*
X31220000Y5710000D03*
X28945000Y5710000D03*
X28945000Y4760000D03*
X28945000Y3810000D03*
G04 #@! TD*
D26*
G04 #@! TO.C,R5*
X14340000Y2950000D03*
X13320000Y2950000D03*
G04 #@! TD*
D18*
G04 #@! TO.C,R6*
X20400000Y-4510000D03*
X20400000Y-3490000D03*
G04 #@! TD*
%LPD*%
M02*
