G04 #@! TF.GenerationSoftware,KiCad,Pcbnew,9.0.7*
G04 #@! TF.CreationDate,2026-05-28T15:11:57-05:00*
G04 #@! TF.ProjectId,Knox Key Kicad,4b6e6f78-204b-4657-9920-4b696361642e,rev?*
G04 #@! TF.SameCoordinates,PX813b7f0PY6643331*
G04 #@! TF.FileFunction,Legend,Bot*
G04 #@! TF.FilePolarity,Positive*
%FSLAX46Y46*%
G04 Gerber Fmt 4.6, Leading zero omitted, Abs format (unit mm)*
G04 Created by KiCad (PCBNEW 9.0.7) date 2026-05-28 15:11:57*
%MOMM*%
%LPD*%
G01*
G04 APERTURE LIST*
G04 Aperture macros list*
%AMRoundRect*
0 Rectangle with rounded corners*
0 $1 Rounding radius*
0 $2 $3 $4 $5 $6 $7 $8 $9 X,Y pos of 4 corners*
0 Add a 4 corners polygon primitive as box body*
4,1,4,$2,$3,$4,$5,$6,$7,$8,$9,$2,$3,0*
0 Add four circle primitives for the rounded corners*
1,1,$1+$1,$2,$3*
1,1,$1+$1,$4,$5*
1,1,$1+$1,$6,$7*
1,1,$1+$1,$8,$9*
0 Add four rect primitives between the rounded corners*
20,1,$1+$1,$2,$3,$4,$5,0*
20,1,$1+$1,$4,$5,$6,$7,0*
20,1,$1+$1,$6,$7,$8,$9,0*
20,1,$1+$1,$8,$9,$2,$3,0*%
G04 Aperture macros list end*
%ADD10C,0.100000*%
%ADD11R,1.700000X1.700000*%
%ADD12C,1.700000*%
%ADD13RoundRect,0.128000X0.272000X-0.272000X0.272000X0.272000X-0.272000X0.272000X-0.272000X-0.272000X0*%
%ADD14RoundRect,0.080000X0.620000X-0.080000X0.620000X0.080000X-0.620000X0.080000X-0.620000X-0.080000X0*%
%ADD15RoundRect,0.087500X0.612500X-0.087500X0.612500X0.087500X-0.612500X0.087500X-0.612500X-0.087500X0*%
G04 APERTURE END LIST*
D10*
X11097884Y-8693580D02*
X11097884Y-9693580D01*
X11669312Y-8693580D02*
X11240741Y-9265009D01*
X11669312Y-9693580D02*
X11097884Y-9122152D01*
X12097884Y-8693580D02*
X12097884Y-9360247D01*
X12097884Y-9693580D02*
X12050265Y-9645961D01*
X12050265Y-9645961D02*
X12097884Y-9598342D01*
X12097884Y-9598342D02*
X12145503Y-9645961D01*
X12145503Y-9645961D02*
X12097884Y-9693580D01*
X12097884Y-9693580D02*
X12097884Y-9598342D01*
X12574074Y-9360247D02*
X12574074Y-8693580D01*
X12574074Y-9265009D02*
X12621693Y-9312628D01*
X12621693Y-9312628D02*
X12716931Y-9360247D01*
X12716931Y-9360247D02*
X12859788Y-9360247D01*
X12859788Y-9360247D02*
X12955026Y-9312628D01*
X12955026Y-9312628D02*
X13002645Y-9217390D01*
X13002645Y-9217390D02*
X13002645Y-8693580D01*
X13907407Y-9360247D02*
X13907407Y-8550723D01*
X13907407Y-8550723D02*
X13859788Y-8455485D01*
X13859788Y-8455485D02*
X13812169Y-8407866D01*
X13812169Y-8407866D02*
X13716931Y-8360247D01*
X13716931Y-8360247D02*
X13574074Y-8360247D01*
X13574074Y-8360247D02*
X13478836Y-8407866D01*
X13907407Y-8741200D02*
X13812169Y-8693580D01*
X13812169Y-8693580D02*
X13621693Y-8693580D01*
X13621693Y-8693580D02*
X13526455Y-8741200D01*
X13526455Y-8741200D02*
X13478836Y-8788819D01*
X13478836Y-8788819D02*
X13431217Y-8884057D01*
X13431217Y-8884057D02*
X13431217Y-9169771D01*
X13431217Y-9169771D02*
X13478836Y-9265009D01*
X13478836Y-9265009D02*
X13526455Y-9312628D01*
X13526455Y-9312628D02*
X13621693Y-9360247D01*
X13621693Y-9360247D02*
X13812169Y-9360247D01*
X13812169Y-9360247D02*
X13907407Y-9312628D01*
X14812169Y-8693580D02*
X14812169Y-9693580D01*
X14812169Y-8741200D02*
X14716931Y-8693580D01*
X14716931Y-8693580D02*
X14526455Y-8693580D01*
X14526455Y-8693580D02*
X14431217Y-8741200D01*
X14431217Y-8741200D02*
X14383598Y-8788819D01*
X14383598Y-8788819D02*
X14335979Y-8884057D01*
X14335979Y-8884057D02*
X14335979Y-9169771D01*
X14335979Y-9169771D02*
X14383598Y-9265009D01*
X14383598Y-9265009D02*
X14431217Y-9312628D01*
X14431217Y-9312628D02*
X14526455Y-9360247D01*
X14526455Y-9360247D02*
X14716931Y-9360247D01*
X14716931Y-9360247D02*
X14812169Y-9312628D01*
X15288360Y-8693580D02*
X15288360Y-9360247D01*
X15288360Y-9169771D02*
X15335979Y-9265009D01*
X15335979Y-9265009D02*
X15383598Y-9312628D01*
X15383598Y-9312628D02*
X15478836Y-9360247D01*
X15478836Y-9360247D02*
X15574074Y-9360247D01*
X16335979Y-8693580D02*
X16335979Y-9217390D01*
X16335979Y-9217390D02*
X16288360Y-9312628D01*
X16288360Y-9312628D02*
X16193122Y-9360247D01*
X16193122Y-9360247D02*
X16002646Y-9360247D01*
X16002646Y-9360247D02*
X15907408Y-9312628D01*
X16335979Y-8741200D02*
X16240741Y-8693580D01*
X16240741Y-8693580D02*
X16002646Y-8693580D01*
X16002646Y-8693580D02*
X15907408Y-8741200D01*
X15907408Y-8741200D02*
X15859789Y-8836438D01*
X15859789Y-8836438D02*
X15859789Y-8931676D01*
X15859789Y-8931676D02*
X15907408Y-9026914D01*
X15907408Y-9026914D02*
X16002646Y-9074533D01*
X16002646Y-9074533D02*
X16240741Y-9074533D01*
X16240741Y-9074533D02*
X16335979Y-9122152D01*
X17240741Y-9360247D02*
X17240741Y-8550723D01*
X17240741Y-8550723D02*
X17193122Y-8455485D01*
X17193122Y-8455485D02*
X17145503Y-8407866D01*
X17145503Y-8407866D02*
X17050265Y-8360247D01*
X17050265Y-8360247D02*
X16907408Y-8360247D01*
X16907408Y-8360247D02*
X16812170Y-8407866D01*
X17240741Y-8741200D02*
X17145503Y-8693580D01*
X17145503Y-8693580D02*
X16955027Y-8693580D01*
X16955027Y-8693580D02*
X16859789Y-8741200D01*
X16859789Y-8741200D02*
X16812170Y-8788819D01*
X16812170Y-8788819D02*
X16764551Y-8884057D01*
X16764551Y-8884057D02*
X16764551Y-9169771D01*
X16764551Y-9169771D02*
X16812170Y-9265009D01*
X16812170Y-9265009D02*
X16859789Y-9312628D01*
X16859789Y-9312628D02*
X16955027Y-9360247D01*
X16955027Y-9360247D02*
X17145503Y-9360247D01*
X17145503Y-9360247D02*
X17240741Y-9312628D01*
X17859789Y-8693580D02*
X17764551Y-8741200D01*
X17764551Y-8741200D02*
X17716932Y-8788819D01*
X17716932Y-8788819D02*
X17669313Y-8884057D01*
X17669313Y-8884057D02*
X17669313Y-9169771D01*
X17669313Y-9169771D02*
X17716932Y-9265009D01*
X17716932Y-9265009D02*
X17764551Y-9312628D01*
X17764551Y-9312628D02*
X17859789Y-9360247D01*
X17859789Y-9360247D02*
X18002646Y-9360247D01*
X18002646Y-9360247D02*
X18097884Y-9312628D01*
X18097884Y-9312628D02*
X18145503Y-9265009D01*
X18145503Y-9265009D02*
X18193122Y-9169771D01*
X18193122Y-9169771D02*
X18193122Y-8884057D01*
X18193122Y-8884057D02*
X18145503Y-8788819D01*
X18145503Y-8788819D02*
X18097884Y-8741200D01*
X18097884Y-8741200D02*
X18002646Y-8693580D01*
X18002646Y-8693580D02*
X17859789Y-8693580D01*
X18621694Y-9360247D02*
X18621694Y-8693580D01*
X18621694Y-9265009D02*
X18669313Y-9312628D01*
X18669313Y-9312628D02*
X18764551Y-9360247D01*
X18764551Y-9360247D02*
X18907408Y-9360247D01*
X18907408Y-9360247D02*
X19002646Y-9312628D01*
X19002646Y-9312628D02*
X19050265Y-9217390D01*
X19050265Y-9217390D02*
X19050265Y-8693580D01*
X19955027Y-8741200D02*
X19859789Y-8693580D01*
X19859789Y-8693580D02*
X19669313Y-8693580D01*
X19669313Y-8693580D02*
X19574075Y-8741200D01*
X19574075Y-8741200D02*
X19526456Y-8788819D01*
X19526456Y-8788819D02*
X19478837Y-8884057D01*
X19478837Y-8884057D02*
X19478837Y-9169771D01*
X19478837Y-9169771D02*
X19526456Y-9265009D01*
X19526456Y-9265009D02*
X19574075Y-9312628D01*
X19574075Y-9312628D02*
X19669313Y-9360247D01*
X19669313Y-9360247D02*
X19859789Y-9360247D01*
X19859789Y-9360247D02*
X19955027Y-9312628D01*
X20812170Y-8693580D02*
X20812170Y-9217390D01*
X20812170Y-9217390D02*
X20764551Y-9312628D01*
X20764551Y-9312628D02*
X20669313Y-9360247D01*
X20669313Y-9360247D02*
X20478837Y-9360247D01*
X20478837Y-9360247D02*
X20383599Y-9312628D01*
X20812170Y-8741200D02*
X20716932Y-8693580D01*
X20716932Y-8693580D02*
X20478837Y-8693580D01*
X20478837Y-8693580D02*
X20383599Y-8741200D01*
X20383599Y-8741200D02*
X20335980Y-8836438D01*
X20335980Y-8836438D02*
X20335980Y-8931676D01*
X20335980Y-8931676D02*
X20383599Y-9026914D01*
X20383599Y-9026914D02*
X20478837Y-9074533D01*
X20478837Y-9074533D02*
X20716932Y-9074533D01*
X20716932Y-9074533D02*
X20812170Y-9122152D01*
X21145504Y-9360247D02*
X21526456Y-9360247D01*
X21288361Y-9693580D02*
X21288361Y-8836438D01*
X21288361Y-8836438D02*
X21335980Y-8741200D01*
X21335980Y-8741200D02*
X21431218Y-8693580D01*
X21431218Y-8693580D02*
X21526456Y-8693580D01*
X12030741Y2931420D02*
X11983122Y2907610D01*
X11983122Y2907610D02*
X11911693Y2907610D01*
X11911693Y2907610D02*
X11840265Y2931420D01*
X11840265Y2931420D02*
X11792646Y2979039D01*
X11792646Y2979039D02*
X11768836Y3026658D01*
X11768836Y3026658D02*
X11745027Y3121896D01*
X11745027Y3121896D02*
X11745027Y3193324D01*
X11745027Y3193324D02*
X11768836Y3288562D01*
X11768836Y3288562D02*
X11792646Y3336181D01*
X11792646Y3336181D02*
X11840265Y3383800D01*
X11840265Y3383800D02*
X11911693Y3407610D01*
X11911693Y3407610D02*
X11959312Y3407610D01*
X11959312Y3407610D02*
X12030741Y3383800D01*
X12030741Y3383800D02*
X12054550Y3359991D01*
X12054550Y3359991D02*
X12054550Y3193324D01*
X12054550Y3193324D02*
X11959312Y3193324D01*
X12268836Y3407610D02*
X12268836Y2907610D01*
X12268836Y2907610D02*
X12554550Y3407610D01*
X12554550Y3407610D02*
X12554550Y2907610D01*
X12792646Y3407610D02*
X12792646Y2907610D01*
X12792646Y2907610D02*
X12911694Y2907610D01*
X12911694Y2907610D02*
X12983122Y2931420D01*
X12983122Y2931420D02*
X13030741Y2979039D01*
X13030741Y2979039D02*
X13054551Y3026658D01*
X13054551Y3026658D02*
X13078360Y3121896D01*
X13078360Y3121896D02*
X13078360Y3193324D01*
X13078360Y3193324D02*
X13054551Y3288562D01*
X13054551Y3288562D02*
X13030741Y3336181D01*
X13030741Y3336181D02*
X12983122Y3383800D01*
X12983122Y3383800D02*
X12911694Y3407610D01*
X12911694Y3407610D02*
X12792646Y3407610D01*
X13673598Y3407610D02*
X13673598Y2907610D01*
X13673598Y2907610D02*
X13959312Y3407610D01*
X13959312Y3407610D02*
X13959312Y2907610D01*
X14483122Y3407610D02*
X14316456Y3169515D01*
X14197408Y3407610D02*
X14197408Y2907610D01*
X14197408Y2907610D02*
X14387884Y2907610D01*
X14387884Y2907610D02*
X14435503Y2931420D01*
X14435503Y2931420D02*
X14459313Y2955229D01*
X14459313Y2955229D02*
X14483122Y3002848D01*
X14483122Y3002848D02*
X14483122Y3074277D01*
X14483122Y3074277D02*
X14459313Y3121896D01*
X14459313Y3121896D02*
X14435503Y3145705D01*
X14435503Y3145705D02*
X14387884Y3169515D01*
X14387884Y3169515D02*
X14197408Y3169515D01*
X14673599Y3383800D02*
X14745027Y3407610D01*
X14745027Y3407610D02*
X14864075Y3407610D01*
X14864075Y3407610D02*
X14911694Y3383800D01*
X14911694Y3383800D02*
X14935503Y3359991D01*
X14935503Y3359991D02*
X14959313Y3312372D01*
X14959313Y3312372D02*
X14959313Y3264753D01*
X14959313Y3264753D02*
X14935503Y3217134D01*
X14935503Y3217134D02*
X14911694Y3193324D01*
X14911694Y3193324D02*
X14864075Y3169515D01*
X14864075Y3169515D02*
X14768837Y3145705D01*
X14768837Y3145705D02*
X14721218Y3121896D01*
X14721218Y3121896D02*
X14697408Y3098086D01*
X14697408Y3098086D02*
X14673599Y3050467D01*
X14673599Y3050467D02*
X14673599Y3002848D01*
X14673599Y3002848D02*
X14697408Y2955229D01*
X14697408Y2955229D02*
X14721218Y2931420D01*
X14721218Y2931420D02*
X14768837Y2907610D01*
X14768837Y2907610D02*
X14887884Y2907610D01*
X14887884Y2907610D02*
X14959313Y2931420D01*
X15102170Y2907610D02*
X15387884Y2907610D01*
X15245027Y3407610D02*
X15245027Y2907610D01*
X15911693Y3383800D02*
X15983121Y3407610D01*
X15983121Y3407610D02*
X16102169Y3407610D01*
X16102169Y3407610D02*
X16149788Y3383800D01*
X16149788Y3383800D02*
X16173597Y3359991D01*
X16173597Y3359991D02*
X16197407Y3312372D01*
X16197407Y3312372D02*
X16197407Y3264753D01*
X16197407Y3264753D02*
X16173597Y3217134D01*
X16173597Y3217134D02*
X16149788Y3193324D01*
X16149788Y3193324D02*
X16102169Y3169515D01*
X16102169Y3169515D02*
X16006931Y3145705D01*
X16006931Y3145705D02*
X15959312Y3121896D01*
X15959312Y3121896D02*
X15935502Y3098086D01*
X15935502Y3098086D02*
X15911693Y3050467D01*
X15911693Y3050467D02*
X15911693Y3002848D01*
X15911693Y3002848D02*
X15935502Y2955229D01*
X15935502Y2955229D02*
X15959312Y2931420D01*
X15959312Y2931420D02*
X16006931Y2907610D01*
X16006931Y2907610D02*
X16125978Y2907610D01*
X16125978Y2907610D02*
X16197407Y2931420D01*
X16364073Y2907610D02*
X16483121Y3407610D01*
X16483121Y3407610D02*
X16578359Y3050467D01*
X16578359Y3050467D02*
X16673597Y3407610D01*
X16673597Y3407610D02*
X16792645Y2907610D01*
X17268835Y3359991D02*
X17245026Y3383800D01*
X17245026Y3383800D02*
X17173597Y3407610D01*
X17173597Y3407610D02*
X17125978Y3407610D01*
X17125978Y3407610D02*
X17054550Y3383800D01*
X17054550Y3383800D02*
X17006931Y3336181D01*
X17006931Y3336181D02*
X16983121Y3288562D01*
X16983121Y3288562D02*
X16959312Y3193324D01*
X16959312Y3193324D02*
X16959312Y3121896D01*
X16959312Y3121896D02*
X16983121Y3026658D01*
X16983121Y3026658D02*
X17006931Y2979039D01*
X17006931Y2979039D02*
X17054550Y2931420D01*
X17054550Y2931420D02*
X17125978Y2907610D01*
X17125978Y2907610D02*
X17173597Y2907610D01*
X17173597Y2907610D02*
X17245026Y2931420D01*
X17245026Y2931420D02*
X17268835Y2955229D01*
X17721216Y3407610D02*
X17483121Y3407610D01*
X17483121Y3407610D02*
X17483121Y2907610D01*
X17887883Y3407610D02*
X17887883Y2907610D01*
X18173597Y3407610D02*
X17959312Y3121896D01*
X18173597Y2907610D02*
X17887883Y3193324D01*
X18745026Y3383800D02*
X18816454Y3407610D01*
X18816454Y3407610D02*
X18935502Y3407610D01*
X18935502Y3407610D02*
X18983121Y3383800D01*
X18983121Y3383800D02*
X19006930Y3359991D01*
X19006930Y3359991D02*
X19030740Y3312372D01*
X19030740Y3312372D02*
X19030740Y3264753D01*
X19030740Y3264753D02*
X19006930Y3217134D01*
X19006930Y3217134D02*
X18983121Y3193324D01*
X18983121Y3193324D02*
X18935502Y3169515D01*
X18935502Y3169515D02*
X18840264Y3145705D01*
X18840264Y3145705D02*
X18792645Y3121896D01*
X18792645Y3121896D02*
X18768835Y3098086D01*
X18768835Y3098086D02*
X18745026Y3050467D01*
X18745026Y3050467D02*
X18745026Y3002848D01*
X18745026Y3002848D02*
X18768835Y2955229D01*
X18768835Y2955229D02*
X18792645Y2931420D01*
X18792645Y2931420D02*
X18840264Y2907610D01*
X18840264Y2907610D02*
X18959311Y2907610D01*
X18959311Y2907610D02*
X19030740Y2931420D01*
X19197406Y2907610D02*
X19316454Y3407610D01*
X19316454Y3407610D02*
X19411692Y3050467D01*
X19411692Y3050467D02*
X19506930Y3407610D01*
X19506930Y3407610D02*
X19625978Y2907610D01*
X19816454Y3407610D02*
X19816454Y2907610D01*
X19816454Y2907610D02*
X19935502Y2907610D01*
X19935502Y2907610D02*
X20006930Y2931420D01*
X20006930Y2931420D02*
X20054549Y2979039D01*
X20054549Y2979039D02*
X20078359Y3026658D01*
X20078359Y3026658D02*
X20102168Y3121896D01*
X20102168Y3121896D02*
X20102168Y3193324D01*
X20102168Y3193324D02*
X20078359Y3288562D01*
X20078359Y3288562D02*
X20054549Y3336181D01*
X20054549Y3336181D02*
X20006930Y3383800D01*
X20006930Y3383800D02*
X19935502Y3407610D01*
X19935502Y3407610D02*
X19816454Y3407610D01*
X20316454Y3407610D02*
X20316454Y2907610D01*
X20649787Y2907610D02*
X20745025Y2907610D01*
X20745025Y2907610D02*
X20792644Y2931420D01*
X20792644Y2931420D02*
X20840263Y2979039D01*
X20840263Y2979039D02*
X20864073Y3074277D01*
X20864073Y3074277D02*
X20864073Y3240943D01*
X20864073Y3240943D02*
X20840263Y3336181D01*
X20840263Y3336181D02*
X20792644Y3383800D01*
X20792644Y3383800D02*
X20745025Y3407610D01*
X20745025Y3407610D02*
X20649787Y3407610D01*
X20649787Y3407610D02*
X20602168Y3383800D01*
X20602168Y3383800D02*
X20554549Y3336181D01*
X20554549Y3336181D02*
X20530740Y3240943D01*
X20530740Y3240943D02*
X20530740Y3074277D01*
X20530740Y3074277D02*
X20554549Y2979039D01*
X20554549Y2979039D02*
X20602168Y2931420D01*
X20602168Y2931420D02*
X20649787Y2907610D01*
X21459311Y3217134D02*
X21840264Y3217134D01*
X21649787Y3407610D02*
X21649787Y3026658D01*
X22030740Y2907610D02*
X22340264Y2907610D01*
X22340264Y2907610D02*
X22173597Y3098086D01*
X22173597Y3098086D02*
X22245026Y3098086D01*
X22245026Y3098086D02*
X22292645Y3121896D01*
X22292645Y3121896D02*
X22316454Y3145705D01*
X22316454Y3145705D02*
X22340264Y3193324D01*
X22340264Y3193324D02*
X22340264Y3312372D01*
X22340264Y3312372D02*
X22316454Y3359991D01*
X22316454Y3359991D02*
X22292645Y3383800D01*
X22292645Y3383800D02*
X22245026Y3407610D01*
X22245026Y3407610D02*
X22102169Y3407610D01*
X22102169Y3407610D02*
X22054550Y3383800D01*
X22054550Y3383800D02*
X22030740Y3359991D01*
X22483121Y2907610D02*
X22649787Y3407610D01*
X22649787Y3407610D02*
X22816454Y2907610D01*
X22935501Y2907610D02*
X23245025Y2907610D01*
X23245025Y2907610D02*
X23078358Y3098086D01*
X23078358Y3098086D02*
X23149787Y3098086D01*
X23149787Y3098086D02*
X23197406Y3121896D01*
X23197406Y3121896D02*
X23221215Y3145705D01*
X23221215Y3145705D02*
X23245025Y3193324D01*
X23245025Y3193324D02*
X23245025Y3312372D01*
X23245025Y3312372D02*
X23221215Y3359991D01*
X23221215Y3359991D02*
X23197406Y3383800D01*
X23197406Y3383800D02*
X23149787Y3407610D01*
X23149787Y3407610D02*
X23006930Y3407610D01*
X23006930Y3407610D02*
X22959311Y3383800D01*
X22959311Y3383800D02*
X22935501Y3359991D01*
X35841580Y-4832115D02*
X36841580Y-4832115D01*
X35841580Y-4260687D02*
X36413009Y-4689258D01*
X36841580Y-4260687D02*
X36270152Y-4832115D01*
X35841580Y-3832115D02*
X36841580Y-3832115D01*
X36841580Y-3832115D02*
X35841580Y-3260687D01*
X35841580Y-3260687D02*
X36841580Y-3260687D01*
X36841580Y-2594020D02*
X36841580Y-2403544D01*
X36841580Y-2403544D02*
X36793961Y-2308306D01*
X36793961Y-2308306D02*
X36698723Y-2213068D01*
X36698723Y-2213068D02*
X36508247Y-2165449D01*
X36508247Y-2165449D02*
X36174914Y-2165449D01*
X36174914Y-2165449D02*
X35984438Y-2213068D01*
X35984438Y-2213068D02*
X35889200Y-2308306D01*
X35889200Y-2308306D02*
X35841580Y-2403544D01*
X35841580Y-2403544D02*
X35841580Y-2594020D01*
X35841580Y-2594020D02*
X35889200Y-2689258D01*
X35889200Y-2689258D02*
X35984438Y-2784496D01*
X35984438Y-2784496D02*
X36174914Y-2832115D01*
X36174914Y-2832115D02*
X36508247Y-2832115D01*
X36508247Y-2832115D02*
X36698723Y-2784496D01*
X36698723Y-2784496D02*
X36793961Y-2689258D01*
X36793961Y-2689258D02*
X36841580Y-2594020D01*
X36841580Y-1832115D02*
X35841580Y-1165449D01*
X36841580Y-1165449D02*
X35841580Y-1832115D01*
X35841580Y-22591D02*
X36841580Y-22591D01*
X35841580Y548837D02*
X36413009Y120266D01*
X36841580Y548837D02*
X36270152Y-22591D01*
X36365390Y977409D02*
X36365390Y1310742D01*
X35841580Y1453599D02*
X35841580Y977409D01*
X35841580Y977409D02*
X36841580Y977409D01*
X36841580Y977409D02*
X36841580Y1453599D01*
X36317771Y2072647D02*
X35841580Y2072647D01*
X36841580Y1739314D02*
X36317771Y2072647D01*
X36317771Y2072647D02*
X36841580Y2405980D01*
%LPC*%
D11*
G04 #@! TO.C,J3*
X22400000Y5200000D03*
D12*
X19860000Y5200000D03*
X17320000Y5200000D03*
X14780000Y5200000D03*
X12240000Y5200000D03*
G04 #@! TD*
D13*
G04 #@! TO.C,P1*
X39440000Y-4954999D03*
X39440000Y1895001D03*
D14*
X40090000Y-4279999D03*
D15*
X40090000Y-3779999D03*
X40090000Y-3279999D03*
X40090000Y-2779999D03*
X40090000Y-2279999D03*
X40090000Y-1779999D03*
X40090000Y-1279999D03*
X40090000Y-779999D03*
X40090000Y-279999D03*
X40090000Y220001D03*
X40090000Y720001D03*
D14*
X40090000Y1220001D03*
G04 #@! TD*
%LPD*%
M02*
