G04 #@! TF.GenerationSoftware,KiCad,Pcbnew,9.0.7*
G04 #@! TF.CreationDate,2026-05-28T15:11:57-05:00*
G04 #@! TF.ProjectId,Knox Key Kicad,4b6e6f78-204b-4657-9920-4b696361642e,rev?*
G04 #@! TF.SameCoordinates,PX813b7f0PY6643331*
G04 #@! TF.FileFunction,Paste,Top*
G04 #@! TF.FilePolarity,Positive*
%FSLAX46Y46*%
G04 Gerber Fmt 4.6, Leading zero omitted, Abs format (unit mm)*
G04 Created by KiCad (PCBNEW 9.0.7) date 2026-05-28 15:11:57*
%MOMM*%
%LPD*%
G01*
G04 APERTURE LIST*
G04 Aperture macros list*
%AMRoundRect*
0 Rectangle with rounded corners*
0 $1 Rounding radius*
0 $2 $3 $4 $5 $6 $7 $8 $9 X,Y pos of 4 corners*
0 Add a 4 corners polygon primitive as box body*
4,1,4,$2,$3,$4,$5,$6,$7,$8,$9,$2,$3,0*
0 Add four circle primitives for the rounded corners*
1,1,$1+$1,$2,$3*
1,1,$1+$1,$4,$5*
1,1,$1+$1,$6,$7*
1,1,$1+$1,$8,$9*
0 Add four rect primitives between the rounded corners*
20,1,$1+$1,$2,$3,$4,$5,0*
20,1,$1+$1,$4,$5,$6,$7,0*
20,1,$1+$1,$6,$7,$8,$9,0*
20,1,$1+$1,$8,$9,$2,$3,0*%
G04 Aperture macros list end*
%ADD10RoundRect,0.140000X-0.140000X-0.170000X0.140000X-0.170000X0.140000X0.170000X-0.140000X0.170000X0*%
%ADD11R,1.100000X1.500000*%
%ADD12RoundRect,0.225000X-0.250000X0.225000X-0.250000X-0.225000X0.250000X-0.225000X0.250000X0.225000X0*%
%ADD13RoundRect,0.225000X-0.225000X-0.250000X0.225000X-0.250000X0.225000X0.250000X-0.225000X0.250000X0*%
%ADD14RoundRect,0.135000X0.185000X-0.135000X0.185000X0.135000X-0.185000X0.135000X-0.185000X-0.135000X0*%
%ADD15RoundRect,0.250000X-0.450000X-0.350000X0.450000X-0.350000X0.450000X0.350000X-0.450000X0.350000X0*%
%ADD16RoundRect,0.140000X0.170000X-0.140000X0.170000X0.140000X-0.170000X0.140000X-0.170000X-0.140000X0*%
%ADD17RoundRect,0.140000X-0.170000X0.140000X-0.170000X-0.140000X0.170000X-0.140000X0.170000X0.140000X0*%
%ADD18RoundRect,0.135000X-0.135000X-0.185000X0.135000X-0.185000X0.135000X0.185000X-0.135000X0.185000X0*%
%ADD19RoundRect,0.135000X-0.185000X0.135000X-0.185000X-0.135000X0.185000X-0.135000X0.185000X0.135000X0*%
%ADD20RoundRect,0.135000X0.135000X0.185000X-0.135000X0.185000X-0.135000X-0.185000X0.135000X-0.185000X0*%
%ADD21RoundRect,0.075000X0.075000X-0.662500X0.075000X0.662500X-0.075000X0.662500X-0.075000X-0.662500X0*%
%ADD22RoundRect,0.075000X0.662500X-0.075000X0.662500X0.075000X-0.662500X0.075000X-0.662500X-0.075000X0*%
%ADD23R,0.500000X0.600000*%
%ADD24R,0.750000X0.300000*%
%ADD25RoundRect,0.225000X0.250000X-0.225000X0.250000X0.225000X-0.250000X0.225000X-0.250000X-0.225000X0*%
%ADD26RoundRect,0.112000X0.238000X-0.238000X0.238000X0.238000X-0.238000X0.238000X-0.238000X-0.238000X0*%
%ADD27RoundRect,0.055000X0.595000X-0.055000X0.595000X0.055000X-0.595000X0.055000X-0.595000X-0.055000X0*%
%ADD28RoundRect,0.062500X0.587500X-0.062500X0.587500X0.062500X-0.587500X0.062500X-0.587500X-0.062500X0*%
%ADD29RoundRect,0.150000X-0.587500X-0.150000X0.587500X-0.150000X0.587500X0.150000X-0.587500X0.150000X0*%
%ADD30R,0.750000X1.000000*%
%ADD31RoundRect,0.150000X0.512500X0.150000X-0.512500X0.150000X-0.512500X-0.150000X0.512500X-0.150000X0*%
G04 APERTURE END LIST*
D10*
G04 #@! TO.C,C2*
X34850000Y-8480000D03*
X35810000Y-8480000D03*
G04 #@! TD*
D11*
G04 #@! TO.C,D1*
X17300000Y-2819999D03*
X17300000Y180001D03*
X18800000Y180001D03*
X18800000Y-2819999D03*
G04 #@! TD*
D12*
G04 #@! TO.C,C12*
X31410000Y-6190000D03*
X31410000Y-7740000D03*
G04 #@! TD*
D13*
G04 #@! TO.C,C1*
X33200000Y-5790000D03*
X34750000Y-5790000D03*
G04 #@! TD*
D14*
G04 #@! TO.C,R3*
X32710000Y-2450000D03*
X32710000Y-1430000D03*
G04 #@! TD*
D15*
G04 #@! TO.C,Y1*
X11980000Y-8180000D03*
X14180000Y-8180000D03*
X14180000Y-6480000D03*
X11980000Y-6480000D03*
G04 #@! TD*
D10*
G04 #@! TO.C,C5*
X32870000Y-7270000D03*
X33830000Y-7270000D03*
G04 #@! TD*
D16*
G04 #@! TO.C,C6*
X36180000Y-6280000D03*
X36180000Y-5320000D03*
G04 #@! TD*
D17*
G04 #@! TO.C,C10*
X33870000Y-2970000D03*
X33870000Y-3930000D03*
G04 #@! TD*
D18*
G04 #@! TO.C,R4*
X30140000Y-9130000D03*
X31160000Y-9130000D03*
G04 #@! TD*
D19*
G04 #@! TO.C,R7*
X20400000Y-5440000D03*
X20400000Y-6460000D03*
G04 #@! TD*
D10*
G04 #@! TO.C,C4*
X34900000Y-7320000D03*
X35860000Y-7320000D03*
G04 #@! TD*
D20*
G04 #@! TO.C,R2*
X33140000Y2180000D03*
X32120000Y2180000D03*
G04 #@! TD*
D17*
G04 #@! TO.C,C7*
X22560000Y-5820000D03*
X22560000Y-6780000D03*
G04 #@! TD*
D21*
G04 #@! TO.C,U6*
X24147500Y-6312500D03*
X24647500Y-6312500D03*
X25147500Y-6312500D03*
X25647500Y-6312500D03*
X26147500Y-6312500D03*
X26647500Y-6312500D03*
X27147500Y-6312500D03*
X27647500Y-6312500D03*
X28147500Y-6312500D03*
X28647500Y-6312500D03*
X29147500Y-6312500D03*
X29647500Y-6312500D03*
D22*
X31060000Y-4900000D03*
X31060000Y-4400000D03*
X31060000Y-3900000D03*
X31060000Y-3400000D03*
X31060000Y-2900000D03*
X31060000Y-2400000D03*
X31060000Y-1900000D03*
X31060000Y-1400000D03*
X31060000Y-900000D03*
X31060000Y-400000D03*
X31060000Y100000D03*
X31060000Y600000D03*
D21*
X29647500Y2012500D03*
X29147500Y2012500D03*
X28647500Y2012500D03*
X28147500Y2012500D03*
X27647500Y2012500D03*
X27147500Y2012500D03*
X26647500Y2012500D03*
X26147500Y2012500D03*
X25647500Y2012500D03*
X25147500Y2012500D03*
X24647500Y2012500D03*
X24147500Y2012500D03*
D22*
X22735000Y600000D03*
X22735000Y100000D03*
X22735000Y-400000D03*
X22735000Y-900000D03*
X22735000Y-1400000D03*
X22735000Y-1900000D03*
X22735000Y-2400000D03*
X22735000Y-2900000D03*
X22735000Y-3400000D03*
X22735000Y-3900000D03*
X22735000Y-4400000D03*
X22735000Y-4900000D03*
G04 #@! TD*
D23*
G04 #@! TO.C,U2*
X34995000Y-35000D03*
X34995000Y715000D03*
X34345000Y-35000D03*
X34345000Y715000D03*
D24*
X36120000Y-410000D03*
X36120000Y90000D03*
X36120000Y590000D03*
X36120000Y1090000D03*
X33220000Y1090000D03*
X33220000Y590000D03*
X33220000Y90000D03*
X33220000Y-410000D03*
G04 #@! TD*
D25*
G04 #@! TO.C,C11*
X38100000Y20000D03*
X38100000Y1570000D03*
G04 #@! TD*
D26*
G04 #@! TO.C,P1*
X39440000Y-4954999D03*
D27*
X40090000Y1220001D03*
D26*
X39440000Y1895001D03*
D28*
X40090000Y720001D03*
X40090000Y220001D03*
X40090000Y-279999D03*
X40090000Y-779999D03*
X40090000Y-1279999D03*
X40090000Y-1779999D03*
X40090000Y-2279999D03*
X40090000Y-2779999D03*
X40090000Y-3279999D03*
X40090000Y-3779999D03*
D27*
X40090000Y-4279999D03*
G04 #@! TD*
D29*
G04 #@! TO.C,U3*
X36325000Y-1930000D03*
X36325000Y-3830000D03*
X38200000Y-2880000D03*
G04 #@! TD*
D16*
G04 #@! TO.C,C8*
X15860000Y-8930000D03*
X15860000Y-7970000D03*
G04 #@! TD*
D19*
G04 #@! TO.C,R1*
X20610000Y530000D03*
X20610000Y-490000D03*
G04 #@! TD*
G04 #@! TO.C,R8*
X20400000Y-7380000D03*
X20400000Y-8400000D03*
G04 #@! TD*
D16*
G04 #@! TO.C,C9*
X15750000Y-6620000D03*
X15750000Y-5660000D03*
G04 #@! TD*
D30*
G04 #@! TO.C,SW1*
X15375000Y1710001D03*
X15375000Y-4289999D03*
X11625000Y1710001D03*
X11625000Y-4289999D03*
G04 #@! TD*
D10*
G04 #@! TO.C,C3*
X32820000Y-8500000D03*
X33780000Y-8500000D03*
G04 #@! TD*
D31*
G04 #@! TO.C,U4*
X31220000Y3810000D03*
X31220000Y4760000D03*
X31220000Y5710000D03*
X28945000Y5710000D03*
X28945000Y4760000D03*
X28945000Y3810000D03*
G04 #@! TD*
D20*
G04 #@! TO.C,R5*
X14340000Y2950000D03*
X13320000Y2950000D03*
G04 #@! TD*
D14*
G04 #@! TO.C,R6*
X20400000Y-4510000D03*
X20400000Y-3490000D03*
G04 #@! TD*
M02*
