G04 #@! TF.GenerationSoftware,KiCad,Pcbnew,9.0.7*
G04 #@! TF.CreationDate,2026-05-28T15:11:57-05:00*
G04 #@! TF.ProjectId,Knox Key Kicad,4b6e6f78-204b-4657-9920-4b696361642e,rev?*
G04 #@! TF.SameCoordinates,PX813b7f0PY6643331*
G04 #@! TF.FileFunction,Copper,L1,Top*
G04 #@! TF.FilePolarity,Positive*
%FSLAX46Y46*%
G04 Gerber Fmt 4.6, Leading zero omitted, Abs format (unit mm)*
G04 Created by KiCad (PCBNEW 9.0.7) date 2026-05-28 15:11:57*
%MOMM*%
%LPD*%
G01*
G04 APERTURE LIST*
G04 Aperture macros list*
%AMRoundRect*
0 Rectangle with rounded corners*
0 $1 Rounding radius*
0 $2 $3 $4 $5 $6 $7 $8 $9 X,Y pos of 4 corners*
0 Add a 4 corners polygon primitive as box body*
4,1,4,$2,$3,$4,$5,$6,$7,$8,$9,$2,$3,0*
0 Add four circle primitives for the rounded corners*
1,1,$1+$1,$2,$3*
1,1,$1+$1,$4,$5*
1,1,$1+$1,$6,$7*
1,1,$1+$1,$8,$9*
0 Add four rect primitives between the rounded corners*
20,1,$1+$1,$2,$3,$4,$5,0*
20,1,$1+$1,$4,$5,$6,$7,0*
20,1,$1+$1,$6,$7,$8,$9,0*
20,1,$1+$1,$8,$9,$2,$3,0*%
G04 Aperture macros list end*
G04 #@! TA.AperFunction,SMDPad,CuDef*
%ADD10RoundRect,0.140000X-0.140000X-0.170000X0.140000X-0.170000X0.140000X0.170000X-0.140000X0.170000X0*%
G04 #@! TD*
G04 #@! TA.AperFunction,SMDPad,CuDef*
%ADD11R,1.100000X1.500000*%
G04 #@! TD*
G04 #@! TA.AperFunction,SMDPad,CuDef*
%ADD12RoundRect,0.225000X-0.250000X0.225000X-0.250000X-0.225000X0.250000X-0.225000X0.250000X0.225000X0*%
G04 #@! TD*
G04 #@! TA.AperFunction,SMDPad,CuDef*
%ADD13RoundRect,0.225000X-0.225000X-0.250000X0.225000X-0.250000X0.225000X0.250000X-0.225000X0.250000X0*%
G04 #@! TD*
G04 #@! TA.AperFunction,SMDPad,CuDef*
%ADD14RoundRect,0.135000X0.185000X-0.135000X0.185000X0.135000X-0.185000X0.135000X-0.185000X-0.135000X0*%
G04 #@! TD*
G04 #@! TA.AperFunction,ComponentPad*
%ADD15R,1.700000X1.700000*%
G04 #@! TD*
G04 #@! TA.AperFunction,ComponentPad*
%ADD16C,1.700000*%
G04 #@! TD*
G04 #@! TA.AperFunction,SMDPad,CuDef*
%ADD17RoundRect,0.250000X-0.450000X-0.350000X0.450000X-0.350000X0.450000X0.350000X-0.450000X0.350000X0*%
G04 #@! TD*
G04 #@! TA.AperFunction,SMDPad,CuDef*
%ADD18RoundRect,0.140000X0.170000X-0.140000X0.170000X0.140000X-0.170000X0.140000X-0.170000X-0.140000X0*%
G04 #@! TD*
G04 #@! TA.AperFunction,SMDPad,CuDef*
%ADD19RoundRect,0.140000X-0.170000X0.140000X-0.170000X-0.140000X0.170000X-0.140000X0.170000X0.140000X0*%
G04 #@! TD*
G04 #@! TA.AperFunction,SMDPad,CuDef*
%ADD20RoundRect,0.135000X-0.135000X-0.185000X0.135000X-0.185000X0.135000X0.185000X-0.135000X0.185000X0*%
G04 #@! TD*
G04 #@! TA.AperFunction,SMDPad,CuDef*
%ADD21RoundRect,0.135000X-0.185000X0.135000X-0.185000X-0.135000X0.185000X-0.135000X0.185000X0.135000X0*%
G04 #@! TD*
G04 #@! TA.AperFunction,SMDPad,CuDef*
%ADD22RoundRect,0.135000X0.135000X0.185000X-0.135000X0.185000X-0.135000X-0.185000X0.135000X-0.185000X0*%
G04 #@! TD*
G04 #@! TA.AperFunction,SMDPad,CuDef*
%ADD23RoundRect,0.075000X0.075000X-0.662500X0.075000X0.662500X-0.075000X0.662500X-0.075000X-0.662500X0*%
G04 #@! TD*
G04 #@! TA.AperFunction,SMDPad,CuDef*
%ADD24RoundRect,0.075000X0.662500X-0.075000X0.662500X0.075000X-0.662500X0.075000X-0.662500X-0.075000X0*%
G04 #@! TD*
G04 #@! TA.AperFunction,SMDPad,CuDef*
%ADD25R,0.750000X0.300000*%
G04 #@! TD*
G04 #@! TA.AperFunction,SMDPad,CuDef*
%ADD26R,1.300000X1.500000*%
G04 #@! TD*
G04 #@! TA.AperFunction,SMDPad,CuDef*
%ADD27RoundRect,0.225000X0.250000X-0.225000X0.250000X0.225000X-0.250000X0.225000X-0.250000X-0.225000X0*%
G04 #@! TD*
G04 #@! TA.AperFunction,SMDPad,CuDef*
%ADD28RoundRect,0.112000X0.238000X-0.238000X0.238000X0.238000X-0.238000X0.238000X-0.238000X-0.238000X0*%
G04 #@! TD*
G04 #@! TA.AperFunction,SMDPad,CuDef*
%ADD29RoundRect,0.055000X0.595000X-0.055000X0.595000X0.055000X-0.595000X0.055000X-0.595000X-0.055000X0*%
G04 #@! TD*
G04 #@! TA.AperFunction,SMDPad,CuDef*
%ADD30RoundRect,0.062500X0.587500X-0.062500X0.587500X0.062500X-0.587500X0.062500X-0.587500X-0.062500X0*%
G04 #@! TD*
G04 #@! TA.AperFunction,SMDPad,CuDef*
%ADD31RoundRect,0.150000X-0.587500X-0.150000X0.587500X-0.150000X0.587500X0.150000X-0.587500X0.150000X0*%
G04 #@! TD*
G04 #@! TA.AperFunction,SMDPad,CuDef*
%ADD32R,0.750000X1.000000*%
G04 #@! TD*
G04 #@! TA.AperFunction,SMDPad,CuDef*
%ADD33RoundRect,0.150000X0.512500X0.150000X-0.512500X0.150000X-0.512500X-0.150000X0.512500X-0.150000X0*%
G04 #@! TD*
G04 #@! TA.AperFunction,ViaPad*
%ADD34C,0.600000*%
G04 #@! TD*
G04 #@! TA.AperFunction,Conductor*
%ADD35C,0.200000*%
G04 #@! TD*
G04 APERTURE END LIST*
D10*
G04 #@! TO.P,C2,1*
G04 #@! TO.N,+3V3*
X34850000Y-8480000D03*
G04 #@! TO.P,C2,2*
G04 #@! TO.N,GND*
X35810000Y-8480000D03*
G04 #@! TD*
D11*
G04 #@! TO.P,D1,1,RK*
G04 #@! TO.N,Net-(D1-RK)*
X17300000Y-2819999D03*
G04 #@! TO.P,D1,2,GK*
G04 #@! TO.N,Net-(D1-GK)*
X17300000Y180001D03*
G04 #@! TO.P,D1,3,BK*
G04 #@! TO.N,Net-(D1-BK)*
X18800000Y180001D03*
G04 #@! TO.P,D1,4,A*
G04 #@! TO.N,GND*
X18800000Y-2819999D03*
G04 #@! TD*
D12*
G04 #@! TO.P,C12,1*
G04 #@! TO.N,+3V3*
X31410000Y-6190000D03*
G04 #@! TO.P,C12,2*
G04 #@! TO.N,GND*
X31410000Y-7740000D03*
G04 #@! TD*
D13*
G04 #@! TO.P,C1,1*
G04 #@! TO.N,+3V3*
X33200000Y-5790000D03*
G04 #@! TO.P,C1,2*
G04 #@! TO.N,GND*
X34750000Y-5790000D03*
G04 #@! TD*
D14*
G04 #@! TO.P,R3,1*
G04 #@! TO.N,+3V3*
X32710000Y-2450000D03*
G04 #@! TO.P,R3,2*
G04 #@! TO.N,/SCL*
X32710000Y-1430000D03*
G04 #@! TD*
D15*
G04 #@! TO.P,J3,1,Pin_1*
G04 #@! TO.N,+3V3*
X22400000Y5200000D03*
D16*
G04 #@! TO.P,J3,2,Pin_2*
G04 #@! TO.N,/SWDIO*
X19860000Y5200000D03*
G04 #@! TO.P,J3,3,Pin_3*
G04 #@! TO.N,/SWCLK*
X17320000Y5200000D03*
G04 #@! TO.P,J3,4,Pin_4*
G04 #@! TO.N,/NRST*
X14780000Y5200000D03*
G04 #@! TO.P,J3,5,Pin_5*
G04 #@! TO.N,GND*
X12240000Y5200000D03*
G04 #@! TD*
D17*
G04 #@! TO.P,Y1,1,1*
G04 #@! TO.N,/HSE_IN*
X11980000Y-8180000D03*
G04 #@! TO.P,Y1,2,2*
G04 #@! TO.N,GND*
X14180000Y-8180000D03*
G04 #@! TO.P,Y1,3,3*
G04 #@! TO.N,/HSE_OUT*
X14180000Y-6480000D03*
G04 #@! TO.P,Y1,4,4*
G04 #@! TO.N,GND*
X11980000Y-6480000D03*
G04 #@! TD*
D10*
G04 #@! TO.P,C5,1*
G04 #@! TO.N,+3V3*
X32870000Y-7270000D03*
G04 #@! TO.P,C5,2*
G04 #@! TO.N,GND*
X33830000Y-7270000D03*
G04 #@! TD*
D18*
G04 #@! TO.P,C6,1*
G04 #@! TO.N,+3V3*
X36180000Y-6280000D03*
G04 #@! TO.P,C6,2*
G04 #@! TO.N,GND*
X36180000Y-5320000D03*
G04 #@! TD*
D19*
G04 #@! TO.P,C10,1*
G04 #@! TO.N,+3V3*
X33870000Y-2970000D03*
G04 #@! TO.P,C10,2*
G04 #@! TO.N,GND*
X33870000Y-3930000D03*
G04 #@! TD*
D20*
G04 #@! TO.P,R4,1*
G04 #@! TO.N,GND*
X30140000Y-9130000D03*
G04 #@! TO.P,R4,2*
G04 #@! TO.N,Net-(USB1-CC1)*
X31160000Y-9130000D03*
G04 #@! TD*
D21*
G04 #@! TO.P,R7,1*
G04 #@! TO.N,Net-(D1-GK)*
X20400000Y-5440000D03*
G04 #@! TO.P,R7,2*
G04 #@! TO.N,/LED_RGBK_G*
X20400000Y-6460000D03*
G04 #@! TD*
D10*
G04 #@! TO.P,C4,1*
G04 #@! TO.N,+3V3*
X34900000Y-7320000D03*
G04 #@! TO.P,C4,2*
G04 #@! TO.N,GND*
X35860000Y-7320000D03*
G04 #@! TD*
D22*
G04 #@! TO.P,R2,1*
G04 #@! TO.N,+3V3*
X33140000Y2180000D03*
G04 #@! TO.P,R2,2*
G04 #@! TO.N,/SDA*
X32120000Y2180000D03*
G04 #@! TD*
D19*
G04 #@! TO.P,C7,1*
G04 #@! TO.N,/BOOT0*
X22560000Y-5820000D03*
G04 #@! TO.P,C7,2*
G04 #@! TO.N,/NRST*
X22560000Y-6780000D03*
G04 #@! TD*
D23*
G04 #@! TO.P,U6,1,VBAT*
G04 #@! TO.N,+3V3*
X24147500Y-6312500D03*
G04 #@! TO.P,U6,2,PC13*
G04 #@! TO.N,unconnected-(U6-PC13-Pad2)*
X24647500Y-6312500D03*
G04 #@! TO.P,U6,3,PC14*
G04 #@! TO.N,unconnected-(U6-PC14-Pad3)*
X25147500Y-6312500D03*
G04 #@! TO.P,U6,4,PC15*
G04 #@! TO.N,unconnected-(U6-PC15-Pad4)*
X25647500Y-6312500D03*
G04 #@! TO.P,U6,5,PH0*
G04 #@! TO.N,unconnected-(U6-PH0-Pad5)*
X26147500Y-6312500D03*
G04 #@! TO.P,U6,6,PH1*
G04 #@! TO.N,/HSE_IN*
X26647500Y-6312500D03*
G04 #@! TO.P,U6,7,NRST*
G04 #@! TO.N,/NRST*
X27147500Y-6312500D03*
G04 #@! TO.P,U6,8,VSSA*
G04 #@! TO.N,GND*
X27647500Y-6312500D03*
G04 #@! TO.P,U6,9,VDDA*
G04 #@! TO.N,+3V3*
X28147500Y-6312500D03*
G04 #@! TO.P,U6,10,PA0*
G04 #@! TO.N,/LED_RGBK_R*
X28647500Y-6312500D03*
G04 #@! TO.P,U6,11,PA1*
G04 #@! TO.N,/LED_RGBK_G*
X29147500Y-6312500D03*
G04 #@! TO.P,U6,12,PA2*
G04 #@! TO.N,/LED_RGBK_B*
X29647500Y-6312500D03*
D24*
G04 #@! TO.P,U6,13,PA3*
G04 #@! TO.N,/BTN*
X31060000Y-4900000D03*
G04 #@! TO.P,U6,14,PA4*
G04 #@! TO.N,unconnected-(U6-PA4-Pad14)*
X31060000Y-4400000D03*
G04 #@! TO.P,U6,15,PA5*
G04 #@! TO.N,unconnected-(U6-PA5-Pad15)*
X31060000Y-3900000D03*
G04 #@! TO.P,U6,16,PA6*
G04 #@! TO.N,unconnected-(U6-PA6-Pad16)*
X31060000Y-3400000D03*
G04 #@! TO.P,U6,17,PA7*
G04 #@! TO.N,unconnected-(U6-PA7-Pad17)*
X31060000Y-2900000D03*
G04 #@! TO.P,U6,18,PB0*
G04 #@! TO.N,unconnected-(U6-PB0-Pad18)*
X31060000Y-2400000D03*
G04 #@! TO.P,U6,19,PB1*
G04 #@! TO.N,unconnected-(U6-PB1-Pad19)*
X31060000Y-1900000D03*
G04 #@! TO.P,U6,20,PB2*
G04 #@! TO.N,unconnected-(U6-PB2-Pad20)*
X31060000Y-1400000D03*
G04 #@! TO.P,U6,21,PB10*
G04 #@! TO.N,/SCL*
X31060000Y-900000D03*
G04 #@! TO.P,U6,22,PB11*
G04 #@! TO.N,/SDA*
X31060000Y-400000D03*
G04 #@! TO.P,U6,23,VSS*
G04 #@! TO.N,GND*
X31060000Y100000D03*
G04 #@! TO.P,U6,24,VDD*
G04 #@! TO.N,+3V3*
X31060000Y600000D03*
D23*
G04 #@! TO.P,U6,25,PB12*
G04 #@! TO.N,unconnected-(U6-PB12-Pad25)*
X29647500Y2012500D03*
G04 #@! TO.P,U6,26,PB13*
G04 #@! TO.N,unconnected-(U6-PB13-Pad26)*
X29147500Y2012500D03*
G04 #@! TO.P,U6,27,PB14*
G04 #@! TO.N,unconnected-(U6-PB14-Pad27)*
X28647500Y2012500D03*
G04 #@! TO.P,U6,28,PB15*
G04 #@! TO.N,unconnected-(U6-PB15-Pad28)*
X28147500Y2012500D03*
G04 #@! TO.P,U6,29,PA8*
G04 #@! TO.N,unconnected-(U6-PA8-Pad29)*
X27647500Y2012500D03*
G04 #@! TO.P,U6,30,PA9*
G04 #@! TO.N,unconnected-(U6-PA9-Pad30)*
X27147500Y2012500D03*
G04 #@! TO.P,U6,31,PA10*
G04 #@! TO.N,USB_D-*
X26647500Y2012500D03*
G04 #@! TO.P,U6,32,PA11*
G04 #@! TO.N,USB_D+*
X26147500Y2012500D03*
G04 #@! TO.P,U6,33,PA12*
G04 #@! TO.N,/SWDIO*
X25647500Y2012500D03*
G04 #@! TO.P,U6,34,PA13*
G04 #@! TO.N,/SWCLK*
X25147500Y2012500D03*
G04 #@! TO.P,U6,35,VSS*
G04 #@! TO.N,GND*
X24647500Y2012500D03*
G04 #@! TO.P,U6,36,VDD*
G04 #@! TO.N,+3V3*
X24147500Y2012500D03*
D24*
G04 #@! TO.P,U6,37,PA14*
G04 #@! TO.N,unconnected-(U6-PA14-Pad37)*
X22735000Y600000D03*
G04 #@! TO.P,U6,38,PA15*
G04 #@! TO.N,unconnected-(U6-PA15-Pad38)*
X22735000Y100000D03*
G04 #@! TO.P,U6,39,PB3*
G04 #@! TO.N,unconnected-(U6-PB3-Pad39)*
X22735000Y-400000D03*
G04 #@! TO.P,U6,40,PB4*
G04 #@! TO.N,unconnected-(U6-PB4-Pad40)*
X22735000Y-900000D03*
G04 #@! TO.P,U6,41,PB5*
G04 #@! TO.N,unconnected-(U6-PB5-Pad41)*
X22735000Y-1400000D03*
G04 #@! TO.P,U6,42,PB6*
G04 #@! TO.N,unconnected-(U6-PB6-Pad42)*
X22735000Y-1900000D03*
G04 #@! TO.P,U6,43,PB7*
G04 #@! TO.N,unconnected-(U6-PB7-Pad43)*
X22735000Y-2400000D03*
G04 #@! TO.P,U6,44,PH3*
G04 #@! TO.N,/HSE_OUT*
X22735000Y-2900000D03*
G04 #@! TO.P,U6,45,PB8*
G04 #@! TO.N,/BOOT0*
X22735000Y-3400000D03*
G04 #@! TO.P,U6,46,PB9*
G04 #@! TO.N,unconnected-(U6-PB9-Pad46)*
X22735000Y-3900000D03*
G04 #@! TO.P,U6,47,VSS*
G04 #@! TO.N,GND*
X22735000Y-4400000D03*
G04 #@! TO.P,U6,48,VDD*
G04 #@! TO.N,+3V3*
X22735000Y-4900000D03*
G04 #@! TD*
D25*
G04 #@! TO.P,U2,1,NC*
G04 #@! TO.N,unconnected-(U2-NC-Pad1)*
X36120000Y-410000D03*
G04 #@! TO.P,U2,2,NC*
G04 #@! TO.N,unconnected-(U2-NC-Pad2)*
X36120000Y90000D03*
G04 #@! TO.P,U2,3,NC*
G04 #@! TO.N,unconnected-(U2-NC-Pad3)*
X36120000Y590000D03*
G04 #@! TO.P,U2,4,GND*
G04 #@! TO.N,GND*
X36120000Y1090000D03*
G04 #@! TO.P,U2,5,SDA*
G04 #@! TO.N,/SDA*
X33220000Y1090000D03*
G04 #@! TO.P,U2,6,SCL*
G04 #@! TO.N,/SCL*
X33220000Y590000D03*
G04 #@! TO.P,U2,7,NC*
G04 #@! TO.N,unconnected-(U2-NC-Pad7)*
X33220000Y90000D03*
G04 #@! TO.P,U2,8,VCC*
G04 #@! TO.N,+3V3*
X33220000Y-410000D03*
D26*
G04 #@! TO.P,U2,9,EP*
G04 #@! TO.N,GND*
X34670000Y340000D03*
G04 #@! TD*
D27*
G04 #@! TO.P,C11,1*
G04 #@! TO.N,VBUS*
X38100000Y20000D03*
G04 #@! TO.P,C11,2*
G04 #@! TO.N,GND*
X38100000Y1570000D03*
G04 #@! TD*
D28*
G04 #@! TO.P,P1,A1,GND*
G04 #@! TO.N,GND*
X39440000Y-4954999D03*
D29*
X40090000Y1220001D03*
D28*
X39440000Y1895001D03*
D30*
G04 #@! TO.P,P1,A2,TX1+*
G04 #@! TO.N,unconnected-(P1-TX1+-PadA2)*
X40090000Y720001D03*
G04 #@! TO.P,P1,A3,TX1-*
G04 #@! TO.N,unconnected-(P1-TX1--PadA3)*
X40090000Y220001D03*
G04 #@! TO.P,P1,A4,VBUS*
G04 #@! TO.N,VBUS*
X40090000Y-279999D03*
G04 #@! TO.P,P1,A5,CC*
G04 #@! TO.N,Net-(P1-CC)*
X40090000Y-779999D03*
G04 #@! TO.P,P1,A6,D+*
G04 #@! TO.N,N/C*
X40090000Y-1279999D03*
G04 #@! TO.P,P1,A7,D-*
X40090000Y-1779999D03*
G04 #@! TO.P,P1,A8,SBU1*
G04 #@! TO.N,unconnected-(P1-SBU1-PadA8)*
X40090000Y-2279999D03*
G04 #@! TO.P,P1,A9,VBUS*
G04 #@! TO.N,VBUS*
X40090000Y-2779999D03*
G04 #@! TO.P,P1,A10,RX2-*
G04 #@! TO.N,unconnected-(P1-RX2--PadA10)*
X40090000Y-3279999D03*
G04 #@! TO.P,P1,A11,RX2+*
G04 #@! TO.N,unconnected-(P1-RX2+-PadA11)*
X40090000Y-3779999D03*
D29*
G04 #@! TO.P,P1,A12,GND*
G04 #@! TO.N,GND*
X40090000Y-4279999D03*
G04 #@! TD*
D31*
G04 #@! TO.P,U3,1,GND*
G04 #@! TO.N,GND*
X36325000Y-1930000D03*
G04 #@! TO.P,U3,2,VO*
G04 #@! TO.N,+3V3*
X36325000Y-3830000D03*
G04 #@! TO.P,U3,3,VI*
G04 #@! TO.N,VBUS*
X38200000Y-2880000D03*
G04 #@! TD*
D18*
G04 #@! TO.P,C8,1*
G04 #@! TO.N,/HSE_IN*
X15860000Y-8930000D03*
G04 #@! TO.P,C8,2*
G04 #@! TO.N,GND*
X15860000Y-7970000D03*
G04 #@! TD*
D21*
G04 #@! TO.P,R1,1*
G04 #@! TO.N,GND*
X20610000Y530000D03*
G04 #@! TO.P,R1,2*
G04 #@! TO.N,/BOOT0*
X20610000Y-490000D03*
G04 #@! TD*
G04 #@! TO.P,R8,1*
G04 #@! TO.N,Net-(D1-RK)*
X20400000Y-7380000D03*
G04 #@! TO.P,R8,2*
G04 #@! TO.N,/LED_RGBK_B*
X20400000Y-8400000D03*
G04 #@! TD*
D18*
G04 #@! TO.P,C9,1*
G04 #@! TO.N,/HSE_OUT*
X15750000Y-6620000D03*
G04 #@! TO.P,C9,2*
G04 #@! TO.N,GND*
X15750000Y-5660000D03*
G04 #@! TD*
D32*
G04 #@! TO.P,SW1,1,1*
G04 #@! TO.N,/BTN*
X15375000Y1710001D03*
X15375000Y-4289999D03*
G04 #@! TO.P,SW1,2,2*
G04 #@! TO.N,GND*
X11625000Y1710001D03*
X11625000Y-4289999D03*
G04 #@! TD*
D10*
G04 #@! TO.P,C3,1*
G04 #@! TO.N,+3V3*
X32820000Y-8500000D03*
G04 #@! TO.P,C3,2*
G04 #@! TO.N,GND*
X33780000Y-8500000D03*
G04 #@! TD*
D33*
G04 #@! TO.P,U4,1,I/O1*
G04 #@! TO.N,/USB_CONN_D-*
X31220000Y3810000D03*
G04 #@! TO.P,U4,2,GND*
G04 #@! TO.N,GND*
X31220000Y4760000D03*
G04 #@! TO.P,U4,3,I/O2*
G04 #@! TO.N,/USB_CONN_D+*
X31220000Y5710000D03*
G04 #@! TO.P,U4,4,I/O2*
G04 #@! TO.N,USB_D+*
X28945000Y5710000D03*
G04 #@! TO.P,U4,5,VBUS*
G04 #@! TO.N,VBUS*
X28945000Y4760000D03*
G04 #@! TO.P,U4,6,I/O1*
G04 #@! TO.N,USB_D-*
X28945000Y3810000D03*
G04 #@! TD*
D22*
G04 #@! TO.P,R5,1*
G04 #@! TO.N,/BTN*
X14340000Y2950000D03*
G04 #@! TO.P,R5,2*
G04 #@! TO.N,+3V3*
X13320000Y2950000D03*
G04 #@! TD*
D14*
G04 #@! TO.P,R6,1*
G04 #@! TO.N,Net-(D1-BK)*
X20400000Y-4510000D03*
G04 #@! TO.P,R6,2*
G04 #@! TO.N,/LED_RGBK_R*
X20400000Y-3490000D03*
G04 #@! TD*
D34*
G04 #@! TO.N,+3V3*
X24510000Y-4670000D03*
X27377711Y-7877000D03*
X23930000Y2230000D03*
X32710000Y-2450000D03*
G04 #@! TO.N,GND*
X31220000Y4760000D03*
X11625000Y-4289999D03*
X15860000Y-7970000D03*
X35860000Y-7320000D03*
X35810000Y-8480000D03*
X20610000Y530000D03*
X39440000Y-4954999D03*
X25490000Y530000D03*
X34670000Y340000D03*
X15750000Y-5660000D03*
X31410000Y-7740000D03*
X30140000Y-9130000D03*
X36325000Y-1930000D03*
X36180000Y-5320000D03*
X33870000Y-3930000D03*
X11625000Y1710001D03*
X18800000Y-2819999D03*
X34750000Y-5790000D03*
X11980000Y-6480000D03*
X33780000Y-8500000D03*
X33830000Y-7270000D03*
X14180000Y-8180000D03*
X38100000Y1570000D03*
X39440000Y1895001D03*
G04 #@! TO.N,VBUS*
X38100000Y20000D03*
X38200000Y-2880000D03*
G04 #@! TO.N,/NRST*
X22560000Y-6780000D03*
G04 #@! TO.N,/HSE_IN*
X15860000Y-8930000D03*
X25105000Y-2425000D03*
G04 #@! TO.N,Net-(D1-GK)*
X17300000Y180001D03*
X18200000Y-4200000D03*
G04 #@! TD*
D35*
G04 #@! TO.N,/HSE_OUT*
X21696500Y-2706500D02*
X21890000Y-2900000D01*
X14180000Y-6480000D02*
X15610000Y-6480000D01*
X16430000Y1231001D02*
X21198999Y1231001D01*
X15750000Y-6620000D02*
X16430000Y-5940000D01*
X21890000Y-2900000D02*
X22735000Y-2900000D01*
X15610000Y-6480000D02*
X15750000Y-6620000D01*
X21696500Y733500D02*
X21696500Y-2706500D01*
X16430000Y-5940000D02*
X16430000Y1231001D01*
X21198999Y1231001D02*
X21696500Y733500D01*
G04 #@! TO.N,+3V3*
X23930000Y2230000D02*
X24147500Y2012500D01*
X34850000Y-8480000D02*
X34850000Y-7370000D01*
X24230000Y-4950000D02*
X24510000Y-4670000D01*
X31060000Y2060340D02*
X31060000Y600000D01*
X33797500Y-1362500D02*
X33857500Y-1362500D01*
X34350000Y-9410000D02*
X34850000Y-8910000D01*
X24280000Y-4900000D02*
X24510000Y-4670000D01*
X13501000Y3131000D02*
X13320000Y2950000D01*
X15830000Y3571000D02*
X16721000Y2680000D01*
X32710000Y-2450000D02*
X33350000Y-2450000D01*
X33350000Y-2450000D02*
X33870000Y-2970000D01*
X16721000Y2680000D02*
X23480000Y2680000D01*
X36923000Y629900D02*
X37320000Y232900D01*
X33140000Y2180000D02*
X32519000Y2801000D01*
X24147500Y-5575001D02*
X24230000Y-5492501D01*
X13941000Y3571000D02*
X15830000Y3571000D01*
X33857500Y-1362500D02*
X36325000Y-3830000D01*
X32870000Y-8450000D02*
X32820000Y-8500000D01*
X33870000Y-2970000D02*
X33200000Y-3640000D01*
X22735000Y-4900000D02*
X24280000Y-4900000D01*
X32870000Y-7270000D02*
X32870000Y-6120000D01*
X31410000Y-6190000D02*
X32800000Y-6190000D01*
X24147500Y-6312500D02*
X24147500Y-5575001D01*
X36127000Y2180000D02*
X36923000Y1384000D01*
X24230000Y-5492501D02*
X24230000Y-4950000D01*
X36923000Y1384000D02*
X36923000Y629900D01*
X27613170Y-7877000D02*
X28147500Y-7342670D01*
X32710000Y-2450000D02*
X33797500Y-1362500D01*
X23480000Y2680000D02*
X23930000Y2230000D01*
X37320000Y-780000D02*
X37234000Y-866000D01*
X33769000Y-9449000D02*
X34350000Y-9449000D01*
X13320000Y2950000D02*
X13941000Y3571000D01*
X37234000Y-866000D02*
X34354000Y-866000D01*
X27377711Y-7877000D02*
X27613170Y-7877000D01*
X33140000Y2180000D02*
X36127000Y2180000D01*
X34850000Y-7370000D02*
X34900000Y-7320000D01*
X34354000Y-866000D02*
X33857500Y-1362500D01*
X33365000Y-425000D02*
X33365000Y-870000D01*
X34350000Y-9449000D02*
X34350000Y-9410000D01*
X35940000Y-6280000D02*
X36180000Y-6280000D01*
X34850000Y-8910000D02*
X34850000Y-8480000D01*
X32870000Y-7270000D02*
X32870000Y-8450000D01*
X31800660Y2801000D02*
X31060000Y2060340D01*
X33365000Y-870000D02*
X33857500Y-1362500D01*
X28147500Y-7342670D02*
X28147500Y-6312500D01*
X32820000Y-8500000D02*
X33769000Y-9449000D01*
X33200000Y-3640000D02*
X33200000Y-5790000D01*
X32519000Y2801000D02*
X31800660Y2801000D01*
X34900000Y-7320000D02*
X35940000Y-6280000D01*
X33200000Y-5790000D02*
X32870000Y-6120000D01*
X37320000Y232900D02*
X37320000Y-780000D01*
X32800000Y-6190000D02*
X33200000Y-5790000D01*
G04 #@! TO.N,GND*
X25940000Y100000D02*
X25510000Y530000D01*
X31060000Y100000D02*
X25940000Y100000D01*
X24647500Y1232500D02*
X25350000Y530000D01*
X11625000Y1710001D02*
X11625000Y1995000D01*
X35420000Y1090000D02*
X34670000Y340000D01*
X23640000Y-4400000D02*
X24310000Y-3730000D01*
X39765001Y1220001D02*
X40090000Y1220001D01*
X24647500Y2012500D02*
X24647500Y1232500D01*
X25350000Y530000D02*
X25490000Y530000D01*
X27647500Y-6312500D02*
X27647500Y-5541176D01*
X29880324Y-5274000D02*
X30098500Y-5492176D01*
X24310000Y-2370057D02*
X24856057Y-1824000D01*
X24856057Y-1824000D02*
X25353943Y-1824000D01*
X36120000Y1090000D02*
X35420000Y1090000D01*
X39440000Y-4790000D02*
X39950001Y-4279999D01*
X27647500Y-4117557D02*
X27647500Y-6312500D01*
X39440000Y1895001D02*
X39440000Y1545002D01*
X25490000Y530000D02*
X25510000Y530000D01*
X39440000Y-4954999D02*
X39440000Y-4790000D01*
X27914676Y-5274000D02*
X29880324Y-5274000D01*
X30098500Y-6428500D02*
X31410000Y-7740000D01*
X30098500Y-5492176D02*
X30098500Y-6428500D01*
X24310000Y-3730000D02*
X24310000Y-2370057D01*
X27647500Y-5541176D02*
X27914676Y-5274000D01*
X22735000Y-4400000D02*
X23640000Y-4400000D01*
X39440000Y1545002D02*
X39765001Y1220001D01*
X25353943Y-1824000D02*
X27647500Y-4117557D01*
X39950001Y-4279999D02*
X40090000Y-4279999D01*
G04 #@! TO.N,/BOOT0*
X21696500Y-5266499D02*
X22250001Y-5820000D01*
X21822900Y-3400000D02*
X21696500Y-3526400D01*
X22250001Y-5820000D02*
X22560000Y-5820000D01*
X21822900Y-3400000D02*
X22735000Y-3400000D01*
X20600000Y-490000D02*
X20610000Y-490000D01*
X21696500Y-3526400D02*
X21696500Y-5266499D01*
X21179340Y-1059340D02*
X21179340Y-2756440D01*
X21179340Y-1059340D02*
X20610000Y-490000D01*
X21179340Y-2756440D02*
X21822900Y-3400000D01*
G04 #@! TO.N,USB_D-*
X27673676Y3810000D02*
X26647500Y2783824D01*
X26647500Y2783824D02*
X26647500Y2012500D01*
X28945000Y3810000D02*
X27673676Y3810000D01*
G04 #@! TO.N,/SCL*
X31898424Y-900000D02*
X31060000Y-900000D01*
X32710000Y-1430000D02*
X32180000Y-900000D01*
X33365000Y575000D02*
X32857100Y575000D01*
X32593000Y590000D02*
X33220000Y590000D01*
X32499500Y496500D02*
X32593000Y590000D01*
X32180000Y-900000D02*
X31060000Y-900000D01*
X32499500Y-298924D02*
X31898424Y-900000D01*
X32499500Y-298924D02*
X32499500Y496500D01*
G04 #@! TO.N,VBUS*
X38300001Y-2779999D02*
X40090000Y-2779999D01*
X30516532Y6311000D02*
X32639000Y6311000D01*
X29607499Y4760000D02*
X30256500Y5409001D01*
X37324000Y796000D02*
X38100000Y20000D01*
X37324000Y1626000D02*
X37324000Y796000D01*
X38399999Y-279999D02*
X40090000Y-279999D01*
X38200000Y-80000D02*
X38100000Y20000D01*
X38200000Y-2880000D02*
X38200000Y-80000D01*
X28945000Y4760000D02*
X29607499Y4760000D01*
X32639000Y6311000D02*
X37324000Y1626000D01*
X38100000Y20000D02*
X38399999Y-279999D01*
X38200000Y-2880000D02*
X38300001Y-2779999D01*
X30256500Y5409001D02*
X30256500Y6050968D01*
X30256500Y6050968D02*
X30516532Y6311000D01*
G04 #@! TO.N,/NRST*
X23856000Y-8076000D02*
X22560000Y-6780000D01*
X27147500Y-7102500D02*
X26174000Y-8076000D01*
X27147500Y-6312500D02*
X27147500Y-7102500D01*
X26174000Y-8076000D02*
X23856000Y-8076000D01*
G04 #@! TO.N,/HSE_IN*
X11980000Y-8180000D02*
X12881000Y-9081000D01*
X12881000Y-9081000D02*
X12881000Y-9091000D01*
X15660000Y-9130000D02*
X15860000Y-8930000D01*
X12920000Y-9130000D02*
X15660000Y-9130000D01*
X26647500Y-6312500D02*
X26647500Y-3967500D01*
X26647500Y-3967500D02*
X25105000Y-2425000D01*
X26647500Y-6312500D02*
X26647500Y-5541176D01*
X25105000Y-2425000D02*
X25090000Y-2410000D01*
X12881000Y-9091000D02*
X12920000Y-9130000D01*
X16141000Y-9211000D02*
X15860000Y-8930000D01*
G04 #@! TO.N,/SWCLK*
X18471000Y4049000D02*
X23887500Y4049000D01*
X25147500Y2789000D02*
X25147500Y2012500D01*
X23887500Y4049000D02*
X25147500Y2789000D01*
X17320000Y5200000D02*
X18471000Y4049000D01*
G04 #@! TO.N,USB_D+*
X28945000Y5710000D02*
X28282501Y5710000D01*
X28282501Y5710000D02*
X26147500Y3574999D01*
X26147500Y3574999D02*
X26147500Y2012500D01*
G04 #@! TO.N,/SWDIO*
X19860000Y5200000D02*
X21011000Y6351000D01*
X21011000Y6351000D02*
X23551000Y6351000D01*
X25647500Y4254500D02*
X25647500Y2012500D01*
X23551000Y6351000D02*
X25647500Y4254500D01*
G04 #@! TO.N,/SDA*
X32098500Y-132824D02*
X31831324Y-400000D01*
X32120000Y2180000D02*
X32098500Y2158500D01*
X33195000Y1105000D02*
X32120000Y2180000D01*
X31831324Y-400000D02*
X31060000Y-400000D01*
X32098500Y2158500D02*
X32098500Y-132824D01*
X33195000Y1085000D02*
X33195000Y1105000D01*
G04 #@! TO.N,/BTN*
X23696500Y1192176D02*
X23696500Y1476924D01*
X30048500Y-4900000D02*
X24174500Y974000D01*
X31060000Y-4900000D02*
X30048500Y-4900000D01*
X15375000Y1710001D02*
X15375000Y1915000D01*
X24174500Y974000D02*
X23914676Y974000D01*
X23914676Y974000D02*
X23696500Y1192176D01*
X23463423Y1710001D02*
X23696500Y1476924D01*
X15375000Y1915000D02*
X14340000Y2950000D01*
X15375000Y-4289999D02*
X15375000Y1710001D01*
X15375000Y1710001D02*
X23463423Y1710001D01*
G04 #@! TO.N,/LED_RGBK_B*
X21716100Y-9279000D02*
X20837100Y-8400000D01*
X29647500Y-6312500D02*
X29647500Y-7825400D01*
X28193900Y-9279000D02*
X21716100Y-9279000D01*
X29647500Y-7825400D02*
X28193900Y-9279000D01*
X20837100Y-8400000D02*
X20400000Y-8400000D01*
G04 #@! TO.N,/LED_RGBK_R*
X21211000Y-4301000D02*
X21211000Y-6303560D01*
X20400000Y-3490000D02*
X21211000Y-4301000D01*
X21832000Y-7274900D02*
X21832000Y-6924560D01*
X21832000Y-6924560D02*
X21211000Y-6303560D01*
X28647500Y-6312500D02*
X28647500Y-7691200D01*
X27861700Y-8477000D02*
X23034100Y-8477000D01*
X23034100Y-8477000D02*
X21832000Y-7274900D01*
X28647500Y-7691200D02*
X27861700Y-8477000D01*
G04 #@! TO.N,/LED_RGBK_G*
X22868000Y-8878000D02*
X21431000Y-7441000D01*
X29147500Y-6312500D02*
X29147500Y-7758300D01*
X21431000Y-7090660D02*
X20800340Y-6460000D01*
X20800340Y-6460000D02*
X20400000Y-6460000D01*
X29147500Y-7758300D02*
X28027800Y-8878000D01*
X28027800Y-8878000D02*
X22868000Y-8878000D01*
X21431000Y-7441000D02*
X21431000Y-7090660D01*
G04 #@! TO.N,Net-(D1-RK)*
X18590001Y-7380000D02*
X20400000Y-7380000D01*
X17300000Y-6089999D02*
X17300000Y-2819999D01*
X17300000Y-6089999D02*
X18590001Y-7380000D01*
G04 #@! TO.N,Net-(D1-BK)*
X18800000Y-100340D02*
X18800000Y180001D01*
X18800000Y-221999D02*
X18800000Y180001D01*
X18800000Y180001D02*
X19651000Y-670999D01*
X19651000Y-670999D02*
X19651000Y-3761000D01*
X19651000Y-3761000D02*
X20400000Y-4510000D01*
G04 #@! TO.N,Net-(D1-GK)*
X19651000Y-4630999D02*
X19651000Y-5010999D01*
X19220001Y-4200000D02*
X18200000Y-4200000D01*
X20490001Y-5470000D02*
X20810000Y-5470000D01*
X19651000Y-5010999D02*
X20080001Y-5440000D01*
X19651000Y-4630999D02*
X19220001Y-4200000D01*
X20080001Y-5440000D02*
X20400000Y-5440000D01*
G04 #@! TD*
G04 #@! TA.AperFunction,NonConductor*
G36*
X20447941Y6849815D02*
G01*
X20493696Y6797011D01*
X20503640Y6727853D01*
X20474615Y6664297D01*
X20468596Y6657833D01*
X20361264Y6550500D01*
X20344522Y6533758D01*
X20283199Y6500274D01*
X20218523Y6503509D01*
X20176245Y6517246D01*
X20036272Y6539416D01*
X19966287Y6550500D01*
X19753713Y6550500D01*
X19705042Y6542792D01*
X19543760Y6517247D01*
X19341585Y6451556D01*
X19152179Y6355049D01*
X18980213Y6230110D01*
X18829890Y6079787D01*
X18704949Y5907818D01*
X18700484Y5899054D01*
X18652509Y5848258D01*
X18584688Y5831464D01*
X18518553Y5854002D01*
X18479516Y5899054D01*
X18475050Y5907818D01*
X18350109Y6079787D01*
X18199786Y6230110D01*
X18027820Y6355049D01*
X17838414Y6451556D01*
X17838413Y6451557D01*
X17838412Y6451557D01*
X17636243Y6517246D01*
X17636241Y6517247D01*
X17636240Y6517247D01*
X17474957Y6542792D01*
X17426287Y6550500D01*
X17213713Y6550500D01*
X17165042Y6542792D01*
X17003760Y6517247D01*
X16801585Y6451556D01*
X16612179Y6355049D01*
X16440213Y6230110D01*
X16289890Y6079787D01*
X16164949Y5907818D01*
X16160484Y5899054D01*
X16112509Y5848258D01*
X16044688Y5831464D01*
X15978553Y5854002D01*
X15939516Y5899054D01*
X15935050Y5907818D01*
X15810109Y6079787D01*
X15659786Y6230110D01*
X15487820Y6355049D01*
X15298414Y6451556D01*
X15298413Y6451557D01*
X15298412Y6451557D01*
X15096243Y6517246D01*
X15096241Y6517247D01*
X15096240Y6517247D01*
X14934957Y6542792D01*
X14886287Y6550500D01*
X14673713Y6550500D01*
X14625042Y6542792D01*
X14463760Y6517247D01*
X14261585Y6451556D01*
X14072179Y6355049D01*
X13900213Y6230110D01*
X13749890Y6079787D01*
X13624949Y5907818D01*
X13620484Y5899054D01*
X13572509Y5848258D01*
X13504688Y5831464D01*
X13438553Y5854002D01*
X13399516Y5899054D01*
X13395050Y5907818D01*
X13270109Y6079787D01*
X13119786Y6230110D01*
X12947820Y6355049D01*
X12758414Y6451556D01*
X12758413Y6451557D01*
X12758412Y6451557D01*
X12556243Y6517246D01*
X12556241Y6517247D01*
X12556240Y6517247D01*
X12394957Y6542792D01*
X12346287Y6550500D01*
X12133713Y6550500D01*
X12085042Y6542792D01*
X11923760Y6517247D01*
X11721585Y6451556D01*
X11532179Y6355049D01*
X11360213Y6230110D01*
X11209890Y6079787D01*
X11084951Y5907821D01*
X10988444Y5718415D01*
X10922753Y5516240D01*
X10906973Y5416607D01*
X10877044Y5353472D01*
X10817732Y5316541D01*
X10747870Y5317539D01*
X10689637Y5356149D01*
X10661523Y5420112D01*
X10660500Y5436005D01*
X10660500Y6745500D01*
X10680185Y6812539D01*
X10732989Y6858294D01*
X10784500Y6869500D01*
X20380902Y6869500D01*
X20447941Y6849815D01*
G37*
G04 #@! TD.AperFunction*
G04 #@! TA.AperFunction,NonConductor*
G36*
X23955701Y5096617D02*
G01*
X23962180Y5090585D01*
X24235880Y4816885D01*
X24269365Y4755562D01*
X24264381Y4685870D01*
X24222509Y4629937D01*
X24157045Y4605520D01*
X24116105Y4609429D01*
X24105178Y4612357D01*
X23966557Y4649501D01*
X23874500Y4649501D01*
X23807461Y4669186D01*
X23761706Y4721990D01*
X23750500Y4773500D01*
X23750500Y4883761D01*
X23750499Y5002905D01*
X23770183Y5069943D01*
X23822987Y5115698D01*
X23892146Y5125642D01*
X23955701Y5096617D01*
G37*
G04 #@! TD.AperFunction*
G04 #@! TA.AperFunction,NonConductor*
G36*
X29993474Y6849817D02*
G01*
X30039229Y6797013D01*
X30049173Y6727855D01*
X30020148Y6664299D01*
X30014117Y6657821D01*
X29887785Y6531489D01*
X29887784Y6531489D01*
X29887783Y6531488D01*
X29887783Y6531487D01*
X29847347Y6491053D01*
X29829340Y6481222D01*
X29786025Y6457569D01*
X29786023Y6457570D01*
X29786023Y6457569D01*
X29725073Y6459660D01*
X29560073Y6507598D01*
X29560067Y6507599D01*
X29523201Y6510500D01*
X29523194Y6510500D01*
X28366806Y6510500D01*
X28366798Y6510500D01*
X28329932Y6507599D01*
X28329926Y6507598D01*
X28172106Y6461746D01*
X28172103Y6461745D01*
X28030637Y6378083D01*
X28030629Y6378077D01*
X27914423Y6261871D01*
X27914416Y6261862D01*
X27830753Y6120395D01*
X27830298Y6119342D01*
X27829011Y6117449D01*
X27826785Y6113684D01*
X27826548Y6113824D01*
X27826260Y6113400D01*
X27825347Y6109197D01*
X27804202Y6080938D01*
X27802001Y6078736D01*
X27801979Y6078714D01*
X26322250Y4598986D01*
X26260927Y4565501D01*
X26191235Y4570485D01*
X26135302Y4612357D01*
X26128869Y4622109D01*
X26128018Y4623218D01*
X25202723Y5548513D01*
X24093413Y6657822D01*
X24059929Y6719144D01*
X24064913Y6788836D01*
X24106785Y6844769D01*
X24172249Y6869186D01*
X24181068Y6869502D01*
X29926435Y6869502D01*
X29993474Y6849817D01*
G37*
G04 #@! TD.AperFunction*
G04 #@! TA.AperFunction,NonConductor*
G36*
X16121444Y4546001D02*
G01*
X16160486Y4500944D01*
X16164951Y4492180D01*
X16289890Y4320214D01*
X16440213Y4169891D01*
X16612179Y4044952D01*
X16612181Y4044951D01*
X16612184Y4044949D01*
X16801588Y3948443D01*
X17003757Y3882754D01*
X17213713Y3849500D01*
X17213714Y3849500D01*
X17426286Y3849500D01*
X17426287Y3849500D01*
X17636243Y3882754D01*
X17678523Y3896493D01*
X17748362Y3898489D01*
X17804522Y3866243D01*
X17986139Y3684626D01*
X17986149Y3684615D01*
X17990479Y3680285D01*
X17990480Y3680284D01*
X18102284Y3568480D01*
X18189095Y3518361D01*
X18189094Y3518361D01*
X18200306Y3511888D01*
X18248523Y3461322D01*
X18261747Y3392715D01*
X18235780Y3327850D01*
X18178866Y3287321D01*
X18138308Y3280500D01*
X17021097Y3280500D01*
X16954058Y3300185D01*
X16933416Y3316819D01*
X16317590Y3932645D01*
X16317588Y3932648D01*
X16198717Y4051519D01*
X16198709Y4051525D01*
X16108853Y4103403D01*
X16108849Y4103405D01*
X16098291Y4109500D01*
X16061785Y4130577D01*
X15909057Y4171501D01*
X15908439Y4171501D01*
X15902265Y4173599D01*
X15876893Y4191452D01*
X15850405Y4207597D01*
X15848566Y4211383D01*
X15845123Y4213805D01*
X15833428Y4242546D01*
X15819876Y4270444D01*
X15820375Y4274623D01*
X15818789Y4278522D01*
X15824488Y4309021D01*
X15828171Y4339819D01*
X15831260Y4345261D01*
X15831624Y4347203D01*
X15833484Y4349177D01*
X15841837Y4363886D01*
X15935051Y4492184D01*
X15939514Y4500946D01*
X15987488Y4551741D01*
X16055308Y4568537D01*
X16121444Y4546001D01*
G37*
G04 #@! TD.AperFunction*
G04 #@! TA.AperFunction,NonConductor*
G36*
X32517811Y5543100D02*
G01*
X32551127Y5538406D01*
X32552521Y5537441D01*
X32553561Y5537271D01*
X32556207Y5534890D01*
X32587619Y5513146D01*
X35108583Y2992181D01*
X35142068Y2930858D01*
X35137084Y2861166D01*
X35095212Y2805233D01*
X35029748Y2780816D01*
X35020902Y2780500D01*
X33809595Y2780500D01*
X33742556Y2800185D01*
X33721918Y2816815D01*
X33667598Y2871135D01*
X33556207Y2937011D01*
X33529393Y2952869D01*
X33529388Y2952871D01*
X33375208Y2997665D01*
X33375202Y2997666D01*
X33339188Y3000500D01*
X33339181Y3000500D01*
X33220097Y3000500D01*
X33190656Y3009145D01*
X33160670Y3015668D01*
X33155654Y3019423D01*
X33153058Y3020185D01*
X33132416Y3036819D01*
X33006590Y3162645D01*
X33006588Y3162648D01*
X32887717Y3281519D01*
X32887716Y3281520D01*
X32800904Y3331640D01*
X32800904Y3331641D01*
X32800900Y3331642D01*
X32750785Y3360577D01*
X32598057Y3401501D01*
X32499949Y3401501D01*
X32432910Y3421186D01*
X32387155Y3473990D01*
X32377211Y3543148D01*
X32379011Y3551482D01*
X32380098Y3557433D01*
X32383000Y3594306D01*
X32383000Y4025694D01*
X32380098Y4062569D01*
X32347840Y4173599D01*
X32334245Y4220394D01*
X32334244Y4220398D01*
X32333371Y4221874D01*
X32333038Y4223184D01*
X32331146Y4227557D01*
X32331851Y4227863D01*
X32316185Y4289597D01*
X32331639Y4342230D01*
X32331146Y4342443D01*
X32332876Y4346442D01*
X32333371Y4348126D01*
X32334244Y4349602D01*
X32380098Y4507431D01*
X32383000Y4544306D01*
X32383000Y4975694D01*
X32380098Y5012569D01*
X32366983Y5057709D01*
X32334245Y5170394D01*
X32334244Y5170398D01*
X32333371Y5171874D01*
X32333038Y5173184D01*
X32331146Y5177557D01*
X32331851Y5177863D01*
X32316185Y5239597D01*
X32321801Y5272166D01*
X32326087Y5285811D01*
X32334244Y5299602D01*
X32380098Y5457431D01*
X32380128Y5457825D01*
X32381639Y5462631D01*
X32400354Y5490584D01*
X32418468Y5518946D01*
X32419736Y5519530D01*
X32420512Y5520688D01*
X32451365Y5534084D01*
X32481941Y5548152D01*
X32483322Y5547958D01*
X32484602Y5548513D01*
X32517811Y5543100D01*
G37*
G04 #@! TD.AperFunction*
G04 #@! TA.AperFunction,NonConductor*
G36*
X10865703Y5057709D02*
G01*
X10903477Y4998931D01*
X10906972Y4983395D01*
X10922754Y4883757D01*
X10964407Y4755562D01*
X10988444Y4681586D01*
X11084951Y4492180D01*
X11209890Y4320214D01*
X11360213Y4169891D01*
X11532179Y4044952D01*
X11532181Y4044951D01*
X11532184Y4044949D01*
X11721588Y3948443D01*
X11923757Y3882754D01*
X12133713Y3849500D01*
X12133714Y3849500D01*
X12346286Y3849500D01*
X12346287Y3849500D01*
X12556243Y3882754D01*
X12758412Y3948443D01*
X12947816Y4044949D01*
X13028272Y4103403D01*
X13119786Y4169891D01*
X13119788Y4169894D01*
X13119792Y4169896D01*
X13270104Y4320208D01*
X13270106Y4320212D01*
X13270109Y4320214D01*
X13395048Y4492180D01*
X13395047Y4492180D01*
X13395051Y4492184D01*
X13399514Y4500946D01*
X13447488Y4551741D01*
X13515308Y4568537D01*
X13581444Y4546001D01*
X13611161Y4516361D01*
X13616385Y4508991D01*
X13624949Y4492184D01*
X13749896Y4320208D01*
X13750969Y4319135D01*
X13754975Y4313484D01*
X13764580Y4285538D01*
X13776672Y4258566D01*
X13775811Y4252863D01*
X13777686Y4247409D01*
X13770657Y4218704D01*
X13766247Y4189478D01*
X13762439Y4185146D01*
X13761068Y4179544D01*
X13739638Y4159199D01*
X13720126Y4136994D01*
X13715814Y4134387D01*
X13572287Y4051523D01*
X13572286Y4051522D01*
X13327581Y3806818D01*
X13266258Y3773334D01*
X13239901Y3770500D01*
X13120831Y3770500D01*
X13120807Y3770499D01*
X13084794Y3767665D01*
X12930611Y3722871D01*
X12930606Y3722869D01*
X12792404Y3641137D01*
X12792396Y3641131D01*
X12678869Y3527604D01*
X12678863Y3527596D01*
X12597131Y3389394D01*
X12597129Y3389389D01*
X12552335Y3235209D01*
X12552334Y3235203D01*
X12549500Y3199189D01*
X12549500Y2700831D01*
X12549502Y2700797D01*
X12551156Y2679767D01*
X12536788Y2611391D01*
X12487733Y2561637D01*
X12419567Y2546302D01*
X12353932Y2570256D01*
X12353375Y2570670D01*
X12242331Y2653797D01*
X12242328Y2653799D01*
X12107482Y2704093D01*
X12107483Y2704093D01*
X12047883Y2710500D01*
X12047881Y2710501D01*
X12047873Y2710501D01*
X12047864Y2710501D01*
X11202129Y2710501D01*
X11202123Y2710500D01*
X11142516Y2704093D01*
X11007671Y2653799D01*
X11007664Y2653795D01*
X10892455Y2567549D01*
X10883766Y2555941D01*
X10827832Y2514071D01*
X10758140Y2509087D01*
X10696818Y2542573D01*
X10663333Y2603896D01*
X10660500Y2630253D01*
X10660500Y4963996D01*
X10680185Y5031035D01*
X10732989Y5076790D01*
X10802147Y5086734D01*
X10865703Y5057709D01*
G37*
G04 #@! TD.AperFunction*
G04 #@! TA.AperFunction,NonConductor*
G36*
X37432539Y6849817D02*
G01*
X37478294Y6797013D01*
X37489500Y6745502D01*
X37489500Y2609097D01*
X37469815Y2542058D01*
X37417011Y2496303D01*
X37347853Y2486359D01*
X37284297Y2515384D01*
X37277819Y2521416D01*
X33141414Y6657821D01*
X33107929Y6719144D01*
X33112913Y6788836D01*
X33154785Y6844769D01*
X33220249Y6869186D01*
X33229095Y6869502D01*
X37365500Y6869502D01*
X37432539Y6849817D01*
G37*
G04 #@! TD.AperFunction*
G04 #@! TA.AperFunction,NonConductor*
G36*
X30395374Y3084072D02*
G01*
X30398124Y3083973D01*
X30422077Y3073056D01*
X30447102Y3058256D01*
X30447105Y3058256D01*
X30447107Y3058254D01*
X30604926Y3012403D01*
X30604929Y3012403D01*
X30604931Y3012402D01*
X30641806Y3009500D01*
X30860563Y3009500D01*
X30927602Y2989815D01*
X30973357Y2937011D01*
X30983301Y2867853D01*
X30954276Y2804297D01*
X30948250Y2797826D01*
X30815220Y2664796D01*
X30691286Y2540862D01*
X30579481Y2429058D01*
X30579480Y2429056D01*
X30539900Y2360501D01*
X30531019Y2345118D01*
X30529386Y2342290D01*
X30478817Y2294076D01*
X30410210Y2280855D01*
X30345346Y2306824D01*
X30304819Y2363739D01*
X30298000Y2404293D01*
X30298000Y2712714D01*
X30297999Y2712728D01*
X30293684Y2745501D01*
X30283187Y2825236D01*
X30244404Y2918866D01*
X30241132Y2949295D01*
X30235657Y2979399D01*
X30237433Y2983704D01*
X30236935Y2988336D01*
X30250634Y3015704D01*
X30262303Y3043988D01*
X30266124Y3046650D01*
X30268210Y3050815D01*
X30294526Y3066429D01*
X30319639Y3083918D01*
X30324294Y3084091D01*
X30328299Y3086467D01*
X30358871Y3085376D01*
X30389460Y3086511D01*
X30395374Y3084072D01*
G37*
G04 #@! TD.AperFunction*
G04 #@! TA.AperFunction,NonConductor*
G36*
X18093333Y-1045746D02*
G01*
X18142508Y-1064087D01*
X18142511Y-1064087D01*
X18142517Y-1064090D01*
X18202127Y-1070499D01*
X18926500Y-1070498D01*
X18993539Y-1090182D01*
X19039294Y-1142986D01*
X19050500Y-1194498D01*
X19050500Y-1445499D01*
X19030815Y-1512538D01*
X18978011Y-1558293D01*
X18926500Y-1569499D01*
X18202129Y-1569499D01*
X18202123Y-1569500D01*
X18142516Y-1575907D01*
X18093332Y-1594252D01*
X18023640Y-1599236D01*
X18006667Y-1594252D01*
X17957482Y-1575907D01*
X17957483Y-1575907D01*
X17897883Y-1569500D01*
X17897881Y-1569499D01*
X17897873Y-1569499D01*
X17897865Y-1569499D01*
X17154500Y-1569499D01*
X17087461Y-1549814D01*
X17041706Y-1497010D01*
X17030500Y-1445499D01*
X17030500Y-1194498D01*
X17050185Y-1127459D01*
X17102989Y-1081704D01*
X17154500Y-1070498D01*
X17897871Y-1070498D01*
X17897872Y-1070498D01*
X17957483Y-1064090D01*
X18006665Y-1045745D01*
X18076355Y-1040760D01*
X18093333Y-1045746D01*
G37*
G04 #@! TD.AperFunction*
G04 #@! TA.AperFunction,NonConductor*
G36*
X24120227Y147093D02*
G01*
X24126357Y147378D01*
X24151636Y132749D01*
X24178203Y120616D01*
X24184681Y114584D01*
X25311084Y-1011819D01*
X25344569Y-1073142D01*
X25339585Y-1142834D01*
X25297713Y-1198767D01*
X25232249Y-1223184D01*
X25223403Y-1223500D01*
X24776999Y-1223500D01*
X24624271Y-1264423D01*
X24591329Y-1283443D01*
X24591328Y-1283443D01*
X24487344Y-1343477D01*
X24487339Y-1343481D01*
X24178978Y-1651843D01*
X24117655Y-1685328D01*
X24047963Y-1680344D01*
X23992030Y-1638472D01*
X23967613Y-1573008D01*
X23968357Y-1547980D01*
X23973000Y-1512720D01*
X23973000Y-1287280D01*
X23958187Y-1174764D01*
X23958186Y-1174763D01*
X23957126Y-1166705D01*
X23960189Y-1166301D01*
X23960189Y-1133698D01*
X23957126Y-1133295D01*
X23965045Y-1073142D01*
X23973000Y-1012720D01*
X23973000Y-787280D01*
X23958187Y-674764D01*
X23958186Y-674763D01*
X23957126Y-666705D01*
X23960189Y-666301D01*
X23960189Y-633698D01*
X23957126Y-633295D01*
X23965065Y-572989D01*
X23973000Y-512720D01*
X23973000Y-287280D01*
X23958187Y-174764D01*
X23958186Y-174763D01*
X23957126Y-166705D01*
X23958871Y-166475D01*
X23956499Y-138087D01*
X23957603Y-126644D01*
X23958187Y-125236D01*
X23973000Y-12720D01*
X23973000Y32870D01*
X23973574Y38816D01*
X23984456Y65919D01*
X23992685Y93942D01*
X23997321Y97960D01*
X23999608Y103654D01*
X24023419Y120574D01*
X24045489Y139697D01*
X24051561Y140571D01*
X24056564Y144125D01*
X24085743Y145486D01*
X24114647Y149641D01*
X24120227Y147093D01*
G37*
G04 #@! TD.AperFunction*
G04 #@! TA.AperFunction,NonConductor*
G36*
X20521879Y-1280184D02*
G01*
X20567634Y-1332988D01*
X20578840Y-1384499D01*
X20578840Y-2595500D01*
X20576289Y-2604185D01*
X20577578Y-2613147D01*
X20566599Y-2637187D01*
X20559155Y-2662539D01*
X20552314Y-2668466D01*
X20548553Y-2676703D01*
X20526318Y-2690992D01*
X20506351Y-2708294D01*
X20495836Y-2710581D01*
X20489775Y-2714477D01*
X20454840Y-2719500D01*
X20375500Y-2719500D01*
X20308461Y-2699815D01*
X20262706Y-2647011D01*
X20251500Y-2595500D01*
X20251500Y-1384499D01*
X20271185Y-1317460D01*
X20323989Y-1271705D01*
X20375495Y-1260499D01*
X20454841Y-1260499D01*
X20521879Y-1280184D01*
G37*
G04 #@! TD.AperFunction*
G04 #@! TA.AperFunction,NonConductor*
G36*
X36905039Y-2750185D02*
G01*
X36950794Y-2802989D01*
X36962000Y-2854500D01*
X36962000Y-2905500D01*
X36942315Y-2972539D01*
X36889511Y-3018294D01*
X36838000Y-3029500D01*
X36425097Y-3029500D01*
X36358058Y-3009815D01*
X36337416Y-2993181D01*
X36286416Y-2942181D01*
X36252931Y-2880858D01*
X36257915Y-2811166D01*
X36299787Y-2755233D01*
X36365251Y-2730816D01*
X36374097Y-2730500D01*
X36403842Y-2730500D01*
X36838000Y-2730500D01*
X36905039Y-2750185D01*
G37*
G04 #@! TD.AperFunction*
G04 #@! TA.AperFunction,NonConductor*
G36*
X29712213Y-500666D02*
G01*
X29712783Y-500505D01*
X29745709Y-510502D01*
X29778685Y-520185D01*
X29779072Y-520631D01*
X29779639Y-520804D01*
X29801951Y-547035D01*
X29824440Y-572989D01*
X29824650Y-573722D01*
X29824908Y-574025D01*
X29834541Y-607979D01*
X29836813Y-625236D01*
X29836883Y-625407D01*
X29837969Y-633479D01*
X29835879Y-666445D01*
X29837874Y-666708D01*
X29822000Y-787272D01*
X29822000Y-1012727D01*
X29837874Y-1133292D01*
X29834899Y-1133683D01*
X29834899Y-1166316D01*
X29837874Y-1166708D01*
X29822000Y-1287272D01*
X29822000Y-1512727D01*
X29837874Y-1633292D01*
X29834899Y-1633683D01*
X29834899Y-1666316D01*
X29837874Y-1666708D01*
X29836813Y-1674762D01*
X29836813Y-1674764D01*
X29836045Y-1680597D01*
X29822000Y-1787272D01*
X29822000Y-2012727D01*
X29837874Y-2133292D01*
X29834899Y-2133683D01*
X29834899Y-2166316D01*
X29837874Y-2166708D01*
X29822000Y-2287272D01*
X29822000Y-2512727D01*
X29828460Y-2561788D01*
X29835221Y-2613147D01*
X29837874Y-2633292D01*
X29834899Y-2633683D01*
X29834899Y-2666316D01*
X29837874Y-2666708D01*
X29822000Y-2787272D01*
X29822000Y-3012727D01*
X29837874Y-3133292D01*
X29834899Y-3133683D01*
X29834899Y-3166316D01*
X29837874Y-3166708D01*
X29836813Y-3174762D01*
X29836813Y-3174764D01*
X29835406Y-3185455D01*
X29822000Y-3287272D01*
X29822000Y-3512713D01*
X29822266Y-3516772D01*
X29820404Y-3516893D01*
X29810728Y-3578494D01*
X29764289Y-3630697D01*
X29696998Y-3649506D01*
X29630221Y-3628950D01*
X29610933Y-3613198D01*
X26709916Y-712181D01*
X26676431Y-650858D01*
X26681415Y-581166D01*
X26723287Y-525233D01*
X26788751Y-500816D01*
X26797597Y-500500D01*
X29711646Y-500500D01*
X29712213Y-500666D01*
G37*
G04 #@! TD.AperFunction*
G04 #@! TA.AperFunction,NonConductor*
G36*
X41379743Y1340319D02*
G01*
X41393850Y1340977D01*
X41410694Y1331231D01*
X41432539Y1324816D01*
X41443357Y1312332D01*
X41454325Y1305985D01*
X41462311Y1290457D01*
X41478294Y1272012D01*
X41483055Y1250125D01*
X41486282Y1243851D01*
X41486790Y1232957D01*
X41489500Y1220501D01*
X41489500Y-4280499D01*
X41486949Y-4289184D01*
X41488238Y-4298146D01*
X41477259Y-4322186D01*
X41469815Y-4347538D01*
X41462974Y-4353465D01*
X41459213Y-4361702D01*
X41436978Y-4375991D01*
X41417011Y-4393293D01*
X41406496Y-4395580D01*
X41400435Y-4399476D01*
X41365500Y-4404499D01*
X41364500Y-4404499D01*
X41297461Y-4384814D01*
X41251706Y-4332010D01*
X41240500Y-4280499D01*
X41240500Y-4181506D01*
X41237967Y-4160416D01*
X41229780Y-4092240D01*
X41225966Y-4082569D01*
X41225569Y-4081561D01*
X41219287Y-4011974D01*
X41225280Y-3992191D01*
X41226008Y-3989474D01*
X41226008Y-3989473D01*
X41226009Y-3989471D01*
X41240500Y-3879400D01*
X41240499Y-3680599D01*
X41239018Y-3669352D01*
X41231626Y-3613198D01*
X41226009Y-3570527D01*
X41226008Y-3570524D01*
X41223905Y-3562673D01*
X41227207Y-3561788D01*
X41221392Y-3508074D01*
X41224501Y-3497484D01*
X41223905Y-3497325D01*
X41226008Y-3489474D01*
X41226008Y-3489473D01*
X41226009Y-3489471D01*
X41240500Y-3379400D01*
X41240499Y-3180599D01*
X41238670Y-3166708D01*
X41233211Y-3125236D01*
X41226009Y-3070527D01*
X41226008Y-3070524D01*
X41223905Y-3062673D01*
X41227207Y-3061788D01*
X41221392Y-3008074D01*
X41224501Y-2997484D01*
X41223905Y-2997325D01*
X41226008Y-2989474D01*
X41226008Y-2989473D01*
X41226009Y-2989471D01*
X41240500Y-2879400D01*
X41240499Y-2680599D01*
X41238670Y-2666708D01*
X41233211Y-2625236D01*
X41226009Y-2570527D01*
X41226008Y-2570524D01*
X41223905Y-2562673D01*
X41227207Y-2561788D01*
X41221392Y-2508074D01*
X41224501Y-2497484D01*
X41223905Y-2497325D01*
X41226008Y-2489474D01*
X41226008Y-2489473D01*
X41226009Y-2489471D01*
X41240500Y-2379400D01*
X41240499Y-2180599D01*
X41238670Y-2166708D01*
X41227190Y-2079500D01*
X41226009Y-2070527D01*
X41226008Y-2070524D01*
X41223905Y-2062673D01*
X41227207Y-2061788D01*
X41221392Y-2008074D01*
X41224501Y-1997484D01*
X41223905Y-1997325D01*
X41226008Y-1989474D01*
X41226008Y-1989473D01*
X41226009Y-1989471D01*
X41240500Y-1879400D01*
X41240499Y-1680599D01*
X41240465Y-1680344D01*
X41233211Y-1625236D01*
X41226009Y-1570527D01*
X41226008Y-1570524D01*
X41223905Y-1562673D01*
X41227207Y-1561788D01*
X41221392Y-1508074D01*
X41224501Y-1497484D01*
X41223905Y-1497325D01*
X41226008Y-1489474D01*
X41226008Y-1489473D01*
X41226009Y-1489471D01*
X41240500Y-1379400D01*
X41240499Y-1180599D01*
X41238670Y-1166708D01*
X41234271Y-1133292D01*
X41226009Y-1070527D01*
X41226008Y-1070524D01*
X41223905Y-1062673D01*
X41227207Y-1061788D01*
X41221392Y-1008074D01*
X41224501Y-997484D01*
X41223905Y-997325D01*
X41226008Y-989474D01*
X41226008Y-989473D01*
X41226009Y-989471D01*
X41240500Y-879400D01*
X41240499Y-680599D01*
X41238670Y-666708D01*
X41230939Y-607979D01*
X41226009Y-570527D01*
X41226008Y-570524D01*
X41223905Y-562673D01*
X41227207Y-561788D01*
X41221392Y-508074D01*
X41224501Y-497484D01*
X41223905Y-497325D01*
X41226008Y-489474D01*
X41226008Y-489473D01*
X41226009Y-489471D01*
X41240500Y-379400D01*
X41240499Y-180599D01*
X41226009Y-70527D01*
X41226008Y-70524D01*
X41223905Y-62673D01*
X41227207Y-61788D01*
X41221392Y-8074D01*
X41224501Y2516D01*
X41223905Y2675D01*
X41226008Y10526D01*
X41226008Y10527D01*
X41226009Y10529D01*
X41240500Y120600D01*
X41240499Y319401D01*
X41226009Y429473D01*
X41226008Y429476D01*
X41223905Y437327D01*
X41227207Y438212D01*
X41221392Y491926D01*
X41224501Y502516D01*
X41223905Y502675D01*
X41226008Y510526D01*
X41226008Y510527D01*
X41226009Y510529D01*
X41240500Y620600D01*
X41240499Y819401D01*
X41240499Y819402D01*
X41240499Y819405D01*
X41226011Y929465D01*
X41223906Y937319D01*
X41225018Y937618D01*
X41217496Y987979D01*
X41219170Y1005340D01*
X41229780Y1032242D01*
X41240500Y1121509D01*
X41240500Y1226467D01*
X41241073Y1232407D01*
X41251956Y1259517D01*
X41260185Y1287540D01*
X41264818Y1291555D01*
X41267103Y1297246D01*
X41290917Y1314170D01*
X41312989Y1333295D01*
X41319964Y1334813D01*
X41324056Y1337720D01*
X41335862Y1338271D01*
X41364500Y1344501D01*
X41365500Y1344501D01*
X41379743Y1340319D01*
G37*
G04 #@! TD.AperFunction*
G04 #@! TA.AperFunction,NonConductor*
G36*
X28453203Y-4154384D02*
G01*
X28459681Y-4160416D01*
X28761084Y-4461819D01*
X28794569Y-4523142D01*
X28789585Y-4592834D01*
X28747713Y-4648767D01*
X28682249Y-4673184D01*
X28673403Y-4673500D01*
X28372000Y-4673500D01*
X28304961Y-4653815D01*
X28259206Y-4601011D01*
X28248000Y-4549500D01*
X28248000Y-4248097D01*
X28267685Y-4181058D01*
X28320489Y-4135303D01*
X28389647Y-4125359D01*
X28453203Y-4154384D01*
G37*
G04 #@! TD.AperFunction*
G04 #@! TA.AperFunction,NonConductor*
G36*
X34798977Y-3190868D02*
G01*
X34829734Y-3195201D01*
X34833995Y-3198151D01*
X34836972Y-3198770D01*
X34841948Y-3203655D01*
X34866226Y-3220461D01*
X35068054Y-3422289D01*
X35101539Y-3483612D01*
X35099450Y-3544561D01*
X35089904Y-3577421D01*
X35089901Y-3577436D01*
X35087000Y-3614298D01*
X35087000Y-4045701D01*
X35089901Y-4082567D01*
X35089902Y-4082573D01*
X35135754Y-4240393D01*
X35135755Y-4240396D01*
X35135756Y-4240398D01*
X35140309Y-4248097D01*
X35219417Y-4381862D01*
X35219423Y-4381870D01*
X35335629Y-4498076D01*
X35335633Y-4498079D01*
X35335635Y-4498081D01*
X35474351Y-4580117D01*
X35481108Y-4584113D01*
X35528791Y-4635182D01*
X35541295Y-4703923D01*
X35521015Y-4759847D01*
X35514254Y-4769941D01*
X35499883Y-4784313D01*
X35464052Y-4844899D01*
X35462107Y-4847804D01*
X35437832Y-4868046D01*
X35414740Y-4889607D01*
X35411206Y-4890249D01*
X35408447Y-4892551D01*
X35377082Y-4896456D01*
X35345998Y-4902110D01*
X35342172Y-4900802D01*
X35339112Y-4901184D01*
X35328787Y-4896230D01*
X35293981Y-4884340D01*
X35283700Y-4877998D01*
X35122709Y-4824651D01*
X35023352Y-4814500D01*
X34492633Y-4814500D01*
X34425594Y-4794815D01*
X34379839Y-4742011D01*
X34369895Y-4672853D01*
X34398920Y-4609297D01*
X34429515Y-4583766D01*
X34435687Y-4580117D01*
X34550117Y-4465687D01*
X34632494Y-4326395D01*
X34675051Y-4179916D01*
X34677642Y-4170997D01*
X34677643Y-4170991D01*
X34680227Y-4138156D01*
X34680500Y-4134690D01*
X34680500Y-3725310D01*
X34677643Y-3689007D01*
X34675912Y-3683050D01*
X34640437Y-3560945D01*
X34632494Y-3533605D01*
X34620379Y-3513120D01*
X34603196Y-3445399D01*
X34610537Y-3407733D01*
X34614482Y-3396850D01*
X34632494Y-3366395D01*
X34660597Y-3269662D01*
X34661971Y-3265875D01*
X34680358Y-3240837D01*
X34697075Y-3214662D01*
X34700860Y-3212920D01*
X34703328Y-3209560D01*
X34732333Y-3198437D01*
X34760547Y-3185455D01*
X34764674Y-3186036D01*
X34768566Y-3184544D01*
X34798977Y-3190868D01*
G37*
G04 #@! TD.AperFunction*
G04 #@! TA.AperFunction,NonConductor*
G36*
X32460819Y-3220500D02*
G01*
X32469021Y-3220499D01*
X32469741Y-3220509D01*
X32470457Y-3220729D01*
X32492315Y-3222881D01*
X32551883Y-3234730D01*
X32613793Y-3267115D01*
X32648367Y-3327831D01*
X32644626Y-3397601D01*
X32642255Y-3403791D01*
X32640424Y-3408210D01*
X32627236Y-3457427D01*
X32599499Y-3560943D01*
X32599499Y-3560945D01*
X32599499Y-3729046D01*
X32599500Y-3729059D01*
X32599500Y-4849995D01*
X32579815Y-4917034D01*
X32540600Y-4955532D01*
X32521952Y-4967034D01*
X32521952Y-4967035D01*
X32509681Y-4979306D01*
X32448358Y-5012791D01*
X32378666Y-5007807D01*
X32322733Y-4965935D01*
X32298316Y-4900471D01*
X32298000Y-4891625D01*
X32298000Y-4787286D01*
X32298000Y-4787280D01*
X32283187Y-4674764D01*
X32283186Y-4674763D01*
X32282126Y-4666705D01*
X32285189Y-4666301D01*
X32285189Y-4633698D01*
X32282126Y-4633295D01*
X32288647Y-4583764D01*
X32298000Y-4512720D01*
X32298000Y-4287280D01*
X32283187Y-4174764D01*
X32283186Y-4174763D01*
X32282126Y-4166705D01*
X32285189Y-4166301D01*
X32285189Y-4133698D01*
X32282126Y-4133295D01*
X32283187Y-4125236D01*
X32298000Y-4012720D01*
X32298000Y-3787280D01*
X32283187Y-3674764D01*
X32283185Y-3674761D01*
X32282498Y-3669536D01*
X32282461Y-3669457D01*
X32282474Y-3669352D01*
X32282126Y-3666705D01*
X32282827Y-3666612D01*
X32285189Y-3648268D01*
X32285189Y-3633698D01*
X32282126Y-3633295D01*
X32284772Y-3613198D01*
X32298000Y-3512720D01*
X32298000Y-3341828D01*
X32317685Y-3274789D01*
X32370489Y-3229034D01*
X32431727Y-3218210D01*
X32460819Y-3220500D01*
G37*
G04 #@! TD.AperFunction*
G04 #@! TA.AperFunction,NonConductor*
G36*
X25115703Y-3285384D02*
G01*
X25122181Y-3291416D01*
X26010681Y-4179916D01*
X26044166Y-4241239D01*
X26047000Y-4267597D01*
X26047000Y-4964146D01*
X26027315Y-5031185D01*
X25974511Y-5076940D01*
X25939188Y-5087084D01*
X25922264Y-5089313D01*
X25922262Y-5089313D01*
X25914210Y-5090374D01*
X25913818Y-5087399D01*
X25881184Y-5087399D01*
X25880792Y-5090374D01*
X25872737Y-5089313D01*
X25872736Y-5089313D01*
X25843771Y-5085499D01*
X25760227Y-5074500D01*
X25760220Y-5074500D01*
X25534780Y-5074500D01*
X25534772Y-5074500D01*
X25415869Y-5090155D01*
X25415708Y-5090230D01*
X25415423Y-5090213D01*
X25414208Y-5090374D01*
X25414177Y-5090143D01*
X25398743Y-5089271D01*
X25380781Y-5090368D01*
X25380781Y-5090373D01*
X25380758Y-5090370D01*
X25380415Y-5090391D01*
X25372771Y-5089327D01*
X25372736Y-5089313D01*
X25371429Y-5089140D01*
X25370876Y-5089064D01*
X25367413Y-5087501D01*
X25365593Y-5087399D01*
X25365071Y-5087260D01*
X25365264Y-5086532D01*
X25339509Y-5074912D01*
X25307870Y-5060912D01*
X25307612Y-5060521D01*
X25307188Y-5060330D01*
X25288438Y-5031446D01*
X25269404Y-5002584D01*
X25269398Y-5002116D01*
X25269145Y-5001726D01*
X25268986Y-4967227D01*
X25268580Y-4932719D01*
X25268825Y-4932009D01*
X25268825Y-4931857D01*
X25268942Y-4931672D01*
X25273397Y-4918801D01*
X25279737Y-4903497D01*
X25310500Y-4748842D01*
X25310500Y-4591158D01*
X25310500Y-4591155D01*
X25310499Y-4591153D01*
X25294899Y-4512729D01*
X25279737Y-4436503D01*
X25258327Y-4384814D01*
X25219397Y-4290827D01*
X25219390Y-4290814D01*
X25131789Y-4159711D01*
X25131786Y-4159707D01*
X25020291Y-4048212D01*
X24967186Y-4012729D01*
X24946701Y-3999041D01*
X24901897Y-3945431D01*
X24893190Y-3876106D01*
X24895819Y-3863845D01*
X24910500Y-3809057D01*
X24910500Y-3650943D01*
X24910500Y-3379097D01*
X24930185Y-3312058D01*
X24982989Y-3266303D01*
X25052147Y-3256359D01*
X25115703Y-3285384D01*
G37*
G04 #@! TD.AperFunction*
G04 #@! TA.AperFunction,NonConductor*
G36*
X12628813Y2372227D02*
G01*
X12642146Y2374143D01*
X12662289Y2364944D01*
X12683926Y2360237D01*
X12701651Y2346969D01*
X12705702Y2345118D01*
X12712180Y2339086D01*
X12792396Y2258870D01*
X12792400Y2258867D01*
X12792402Y2258865D01*
X12930607Y2177131D01*
X12930614Y2177129D01*
X13084791Y2132336D01*
X13084794Y2132336D01*
X13084796Y2132335D01*
X13120819Y2129500D01*
X13519180Y2129501D01*
X13555204Y2132335D01*
X13709393Y2177131D01*
X13766882Y2211131D01*
X13834602Y2228312D01*
X13893117Y2211131D01*
X13950607Y2177131D01*
X13950610Y2177131D01*
X13950612Y2177129D01*
X14104791Y2132336D01*
X14104794Y2132336D01*
X14104796Y2132335D01*
X14140819Y2129500D01*
X14259902Y2129501D01*
X14289346Y2120856D01*
X14319329Y2114333D01*
X14324342Y2110581D01*
X14326941Y2109817D01*
X14347583Y2093182D01*
X14463181Y1977584D01*
X14496666Y1916261D01*
X14499500Y1889903D01*
X14499500Y1162131D01*
X14499501Y1162125D01*
X14505908Y1102518D01*
X14556202Y967673D01*
X14556206Y967666D01*
X14642452Y852457D01*
X14642453Y852456D01*
X14642454Y852455D01*
X14724811Y790803D01*
X14766682Y734870D01*
X14774500Y691537D01*
X14774500Y-3271533D01*
X14754815Y-3338572D01*
X14724812Y-3370799D01*
X14642452Y-3432454D01*
X14556206Y-3547663D01*
X14556202Y-3547670D01*
X14505908Y-3682516D01*
X14499501Y-3742115D01*
X14499501Y-3742122D01*
X14499500Y-3742134D01*
X14499500Y-4837869D01*
X14499501Y-4837875D01*
X14505908Y-4897482D01*
X14556202Y-5032327D01*
X14556206Y-5032334D01*
X14642451Y-5147542D01*
X14642452Y-5147543D01*
X14642454Y-5147545D01*
X14654063Y-5156235D01*
X14695932Y-5212169D01*
X14700915Y-5281861D01*
X14667428Y-5343183D01*
X14606105Y-5376667D01*
X14579749Y-5379500D01*
X13679998Y-5379500D01*
X13679980Y-5379501D01*
X13577203Y-5390000D01*
X13577200Y-5390001D01*
X13410668Y-5445185D01*
X13410663Y-5445187D01*
X13261342Y-5537289D01*
X13167681Y-5630951D01*
X13106358Y-5664436D01*
X13036666Y-5659452D01*
X12992319Y-5630951D01*
X12898657Y-5537289D01*
X12898656Y-5537288D01*
X12762611Y-5453375D01*
X12749336Y-5445187D01*
X12749331Y-5445185D01*
X12728206Y-5438185D01*
X12582797Y-5390001D01*
X12582795Y-5390000D01*
X12480016Y-5379500D01*
X12420250Y-5379500D01*
X12353211Y-5359815D01*
X12307456Y-5307011D01*
X12297512Y-5237853D01*
X12326537Y-5174297D01*
X12345940Y-5156233D01*
X12357546Y-5147545D01*
X12443796Y-5032330D01*
X12494091Y-4897482D01*
X12500500Y-4837872D01*
X12500499Y-3742127D01*
X12494788Y-3689002D01*
X12494091Y-3682515D01*
X12443797Y-3547670D01*
X12443793Y-3547663D01*
X12357547Y-3432454D01*
X12357544Y-3432451D01*
X12242335Y-3346205D01*
X12242328Y-3346201D01*
X12107482Y-3295907D01*
X12107483Y-3295907D01*
X12047883Y-3289500D01*
X12047881Y-3289499D01*
X12047873Y-3289499D01*
X12047864Y-3289499D01*
X11202129Y-3289499D01*
X11202123Y-3289500D01*
X11142516Y-3295907D01*
X11007671Y-3346201D01*
X11007664Y-3346205D01*
X10892455Y-3432451D01*
X10883766Y-3444059D01*
X10827832Y-3485929D01*
X10758140Y-3490913D01*
X10696818Y-3457427D01*
X10663333Y-3396104D01*
X10660500Y-3369747D01*
X10660500Y789750D01*
X10680185Y856789D01*
X10732989Y902544D01*
X10802147Y912488D01*
X10865703Y883463D01*
X10883764Y864064D01*
X10892454Y852455D01*
X10892455Y852454D01*
X11007664Y766208D01*
X11007671Y766204D01*
X11142517Y715910D01*
X11142516Y715910D01*
X11149444Y715166D01*
X11202127Y709501D01*
X12047872Y709502D01*
X12107483Y715910D01*
X12242331Y766205D01*
X12357546Y852455D01*
X12443796Y967670D01*
X12494091Y1102518D01*
X12500500Y1162128D01*
X12500499Y2251406D01*
X12506737Y2272651D01*
X12508317Y2294739D01*
X12516389Y2305523D01*
X12520184Y2318444D01*
X12536917Y2332945D01*
X12550189Y2350672D01*
X12562808Y2355379D01*
X12572987Y2364199D01*
X12594905Y2367351D01*
X12615653Y2375089D01*
X12628813Y2372227D01*
G37*
G04 #@! TD.AperFunction*
G04 #@! TA.AperFunction,NonConductor*
G36*
X10865703Y-5116537D02*
G01*
X10883764Y-5135936D01*
X10892454Y-5147545D01*
X10892455Y-5147546D01*
X11007664Y-5233792D01*
X11007671Y-5233796D01*
X11110171Y-5272026D01*
X11166105Y-5313897D01*
X11190522Y-5379361D01*
X11175671Y-5447634D01*
X11131935Y-5493746D01*
X11061347Y-5537285D01*
X11061343Y-5537288D01*
X10937289Y-5661342D01*
X10937288Y-5661344D01*
X10890700Y-5736877D01*
X10890039Y-5737948D01*
X10838091Y-5784672D01*
X10769128Y-5795895D01*
X10705046Y-5768051D01*
X10666190Y-5709983D01*
X10660500Y-5672851D01*
X10660500Y-5210250D01*
X10680185Y-5143211D01*
X10732989Y-5097456D01*
X10802147Y-5087512D01*
X10865703Y-5116537D01*
G37*
G04 #@! TD.AperFunction*
G04 #@! TA.AperFunction,NonConductor*
G36*
X18986943Y-4820185D02*
G01*
X19007585Y-4836819D01*
X19014180Y-4843414D01*
X19026293Y-4865597D01*
X19032698Y-4872989D01*
X19033544Y-4878877D01*
X19047665Y-4904737D01*
X19050499Y-4931095D01*
X19050499Y-5090053D01*
X19050498Y-5090053D01*
X19091423Y-5242784D01*
X19103168Y-5263126D01*
X19103169Y-5263129D01*
X19170475Y-5379708D01*
X19170481Y-5379716D01*
X19289349Y-5498584D01*
X19289355Y-5498589D01*
X19599479Y-5808713D01*
X19599481Y-5808716D01*
X19607025Y-5816260D01*
X19626148Y-5835384D01*
X19626149Y-5835386D01*
X19645196Y-5859941D01*
X19661127Y-5886879D01*
X19678310Y-5954603D01*
X19661128Y-6013119D01*
X19627132Y-6070604D01*
X19627129Y-6070611D01*
X19582335Y-6224791D01*
X19582334Y-6224797D01*
X19579500Y-6260811D01*
X19579500Y-6260819D01*
X19579500Y-6458715D01*
X19579501Y-6655500D01*
X19559817Y-6722539D01*
X19507013Y-6768294D01*
X19455501Y-6779500D01*
X18890098Y-6779500D01*
X18823059Y-6759815D01*
X18802417Y-6743181D01*
X17936819Y-5877583D01*
X17903334Y-5816260D01*
X17900500Y-5789902D01*
X17900500Y-5107702D01*
X17920185Y-5040663D01*
X17972989Y-4994908D01*
X18042147Y-4984964D01*
X18048667Y-4986080D01*
X18105435Y-4997372D01*
X18121157Y-5000500D01*
X18121158Y-5000500D01*
X18278844Y-5000500D01*
X18278845Y-5000499D01*
X18433497Y-4969737D01*
X18579179Y-4909394D01*
X18586149Y-4904737D01*
X18710875Y-4821398D01*
X18728921Y-4815747D01*
X18744831Y-4805523D01*
X18775792Y-4801071D01*
X18777553Y-4800520D01*
X18779766Y-4800500D01*
X18919904Y-4800500D01*
X18986943Y-4820185D01*
G37*
G04 #@! TD.AperFunction*
G04 #@! TA.AperFunction,NonConductor*
G36*
X38824186Y-3683050D02*
G01*
X38833148Y-3681762D01*
X38857188Y-3692740D01*
X38882540Y-3700185D01*
X38888467Y-3707025D01*
X38896704Y-3710787D01*
X38910993Y-3733021D01*
X38928295Y-3752989D01*
X38930582Y-3763503D01*
X38934478Y-3769565D01*
X38939501Y-3804500D01*
X38939501Y-3879402D01*
X38953989Y-3989467D01*
X38956094Y-3997321D01*
X38954617Y-3997716D01*
X38956081Y-4011341D01*
X38963040Y-4033099D01*
X38960160Y-4049306D01*
X38961105Y-4058094D01*
X38958856Y-4068144D01*
X38957023Y-4074985D01*
X38950220Y-4092240D01*
X38948443Y-4107029D01*
X38946161Y-4115555D01*
X38932390Y-4138156D01*
X38921958Y-4162483D01*
X38912802Y-4170306D01*
X38909807Y-4175222D01*
X38903410Y-4178330D01*
X38889504Y-4190213D01*
X38823607Y-4229185D01*
X38714188Y-4338604D01*
X38714182Y-4338613D01*
X38635407Y-4471814D01*
X38635406Y-4471817D01*
X38592234Y-4620414D01*
X38592232Y-4620425D01*
X38589500Y-4655139D01*
X38589500Y-4655146D01*
X38589500Y-4954920D01*
X38589501Y-5205499D01*
X38569817Y-5272538D01*
X38517013Y-5318293D01*
X38465501Y-5329499D01*
X37689417Y-5329499D01*
X37650448Y-5329435D01*
X37650293Y-5329499D01*
X37650115Y-5329499D01*
X37612853Y-5344933D01*
X37612622Y-5345030D01*
X37576706Y-5359838D01*
X37576587Y-5359956D01*
X37576426Y-5360023D01*
X37576398Y-5360050D01*
X37576395Y-5360052D01*
X37547851Y-5388596D01*
X37547655Y-5388791D01*
X37520211Y-5416147D01*
X37520146Y-5416302D01*
X37520024Y-5416425D01*
X37519988Y-5416510D01*
X37519988Y-5416511D01*
X37508110Y-5445186D01*
X37504718Y-5453375D01*
X37489566Y-5489788D01*
X37489565Y-5489958D01*
X37489500Y-5490117D01*
X37489500Y-5529917D01*
X37482630Y-9707598D01*
X37482600Y-9725704D01*
X37462805Y-9792711D01*
X37409926Y-9838379D01*
X37358600Y-9849500D01*
X35059096Y-9849500D01*
X34992057Y-9829815D01*
X34946302Y-9777011D01*
X34936358Y-9707853D01*
X34965383Y-9644297D01*
X34971415Y-9637819D01*
X34991121Y-9618113D01*
X35325440Y-9283795D01*
X35386759Y-9250313D01*
X35447711Y-9252402D01*
X35569007Y-9287643D01*
X35605310Y-9290500D01*
X35605318Y-9290500D01*
X36014682Y-9290500D01*
X36014690Y-9290500D01*
X36050993Y-9287643D01*
X36050995Y-9287642D01*
X36050997Y-9287642D01*
X36111723Y-9269999D01*
X36206395Y-9242494D01*
X36345687Y-9160117D01*
X36460117Y-9045687D01*
X36542494Y-8906395D01*
X36587643Y-8750993D01*
X36590500Y-8714690D01*
X36590500Y-8671599D01*
X36592883Y-8647407D01*
X36595311Y-8635204D01*
X36602476Y-8599180D01*
X36610500Y-8558844D01*
X36610500Y-8401157D01*
X36610499Y-8401154D01*
X36605458Y-8375813D01*
X36592883Y-8312590D01*
X36590500Y-8288399D01*
X36590500Y-8245317D01*
X36590499Y-8245302D01*
X36587643Y-8209008D01*
X36587642Y-8209002D01*
X36542495Y-8053609D01*
X36542495Y-8053608D01*
X36542494Y-8053607D01*
X36542494Y-8053605D01*
X36513980Y-8005391D01*
X36496800Y-7937668D01*
X36513982Y-7879151D01*
X36525000Y-7860521D01*
X36592494Y-7746395D01*
X36637643Y-7590993D01*
X36640500Y-7554690D01*
X36640500Y-7511599D01*
X36642883Y-7487407D01*
X36660500Y-7398844D01*
X36660500Y-7241157D01*
X36660499Y-7241154D01*
X36642883Y-7152590D01*
X36640525Y-7130910D01*
X36640500Y-7129675D01*
X36640500Y-7085310D01*
X36639289Y-7069933D01*
X36639217Y-7066336D01*
X36647469Y-7035969D01*
X36653935Y-7005182D01*
X36656587Y-7002417D01*
X36657540Y-6998912D01*
X36675523Y-6982680D01*
X36700071Y-6957093D01*
X36745687Y-6930117D01*
X36860117Y-6815687D01*
X36942494Y-6676395D01*
X36987643Y-6520993D01*
X36990500Y-6484690D01*
X36990500Y-6075310D01*
X36987643Y-6039007D01*
X36983483Y-6024690D01*
X36942495Y-5883609D01*
X36942495Y-5883608D01*
X36942494Y-5883607D01*
X36942494Y-5883605D01*
X36930379Y-5863120D01*
X36913196Y-5795399D01*
X36930379Y-5736880D01*
X36942494Y-5716395D01*
X36987643Y-5560993D01*
X36990500Y-5524690D01*
X36990500Y-5115310D01*
X36987643Y-5079007D01*
X36987042Y-5076940D01*
X36945142Y-4932719D01*
X36942494Y-4923605D01*
X36879659Y-4817358D01*
X36862477Y-4749635D01*
X36884637Y-4683373D01*
X36939103Y-4639609D01*
X36976665Y-4630620D01*
X36978190Y-4630500D01*
X36978194Y-4630500D01*
X37015069Y-4627598D01*
X37015071Y-4627597D01*
X37015073Y-4627597D01*
X37106581Y-4601011D01*
X37172898Y-4581744D01*
X37314365Y-4498081D01*
X37430581Y-4381865D01*
X37514244Y-4240398D01*
X37560098Y-4082569D01*
X37563000Y-4045694D01*
X37563000Y-3804500D01*
X37582685Y-3737461D01*
X37635489Y-3691706D01*
X37687000Y-3680500D01*
X38815501Y-3680500D01*
X38824186Y-3683050D01*
G37*
G04 #@! TD.AperFunction*
G04 #@! TA.AperFunction,NonConductor*
G36*
X32135701Y-9020466D02*
G01*
X32161230Y-9051056D01*
X32169883Y-9065687D01*
X32169885Y-9065689D01*
X32169887Y-9065692D01*
X32284307Y-9180112D01*
X32284311Y-9180115D01*
X32284313Y-9180117D01*
X32423605Y-9262494D01*
X32449434Y-9269998D01*
X32579002Y-9307642D01*
X32579005Y-9307642D01*
X32579007Y-9307643D01*
X32615310Y-9310500D01*
X32729903Y-9310500D01*
X32796942Y-9330185D01*
X32817584Y-9346819D01*
X33108583Y-9637819D01*
X33142068Y-9699142D01*
X33137084Y-9768834D01*
X33095212Y-9824767D01*
X33029748Y-9849184D01*
X33020902Y-9849500D01*
X31934609Y-9849500D01*
X31867570Y-9829815D01*
X31821815Y-9777011D01*
X31811871Y-9707853D01*
X31827877Y-9662379D01*
X31836549Y-9647716D01*
X31882869Y-9569393D01*
X31927665Y-9415204D01*
X31930500Y-9379181D01*
X31930499Y-9114177D01*
X31950183Y-9047140D01*
X32002987Y-9001385D01*
X32072146Y-8991441D01*
X32135701Y-9020466D01*
G37*
G04 #@! TD.AperFunction*
G04 #@! TA.AperFunction,NonConductor*
G36*
X29268944Y-9155703D02*
G01*
X29324877Y-9197575D01*
X29347227Y-9247694D01*
X29367117Y-9347687D01*
X29369500Y-9371865D01*
X29369500Y-9379178D01*
X29372335Y-9415205D01*
X29417129Y-9569388D01*
X29417131Y-9569393D01*
X29463449Y-9647713D01*
X29472123Y-9662379D01*
X29489306Y-9730103D01*
X29467146Y-9796365D01*
X29412680Y-9840129D01*
X29365391Y-9849500D01*
X28771998Y-9849500D01*
X28751026Y-9843342D01*
X28729216Y-9841886D01*
X28718160Y-9833691D01*
X28704959Y-9829815D01*
X28690646Y-9813297D01*
X28673084Y-9800280D01*
X28668213Y-9787408D01*
X28659204Y-9777011D01*
X28656093Y-9755377D01*
X28648357Y-9734932D01*
X28651218Y-9721472D01*
X28649260Y-9707853D01*
X28658339Y-9687970D01*
X28662138Y-9670102D01*
X28661401Y-9669734D01*
X28661404Y-9669728D01*
X28662558Y-9668126D01*
X28662885Y-9666590D01*
X28676373Y-9648482D01*
X28678285Y-9644297D01*
X28683902Y-9638235D01*
X28684217Y-9637917D01*
X28684262Y-9637891D01*
X28684317Y-9637819D01*
X28684624Y-9637511D01*
X28684628Y-9637506D01*
X29137931Y-9184202D01*
X29199252Y-9150719D01*
X29268944Y-9155703D01*
G37*
G04 #@! TD.AperFunction*
G04 #@! TA.AperFunction,NonConductor*
G36*
X16833332Y-6488414D02*
G01*
X16877680Y-6516915D01*
X16938349Y-6577584D01*
X16938355Y-6577589D01*
X18105140Y-7744374D01*
X18105150Y-7744385D01*
X18109480Y-7748715D01*
X18109481Y-7748716D01*
X18221285Y-7860520D01*
X18293559Y-7902247D01*
X18358216Y-7939577D01*
X18510944Y-7980501D01*
X18510947Y-7980501D01*
X18676654Y-7980501D01*
X18676670Y-7980500D01*
X19470725Y-7980500D01*
X19537764Y-8000185D01*
X19583519Y-8052989D01*
X19593463Y-8122147D01*
X19589802Y-8139094D01*
X19582334Y-8164797D01*
X19579500Y-8200811D01*
X19579500Y-8599169D01*
X19579501Y-8599191D01*
X19582335Y-8635205D01*
X19627129Y-8789388D01*
X19627131Y-8789393D01*
X19708863Y-8927595D01*
X19708869Y-8927603D01*
X19822396Y-9041130D01*
X19822400Y-9041133D01*
X19822402Y-9041135D01*
X19960607Y-9122869D01*
X19991840Y-9131943D01*
X20114791Y-9167664D01*
X20114794Y-9167664D01*
X20114796Y-9167665D01*
X20150819Y-9170500D01*
X20649180Y-9170499D01*
X20685204Y-9167665D01*
X20685204Y-9167664D01*
X20691520Y-9167168D01*
X20691715Y-9169658D01*
X20750129Y-9175787D01*
X20790653Y-9202789D01*
X21225683Y-9637819D01*
X21259168Y-9699142D01*
X21254184Y-9768834D01*
X21212312Y-9824767D01*
X21146848Y-9849184D01*
X21138002Y-9849500D01*
X16651097Y-9849500D01*
X16584058Y-9829815D01*
X16538303Y-9777011D01*
X16528359Y-9707853D01*
X16557384Y-9644297D01*
X16563416Y-9637819D01*
X16590717Y-9610518D01*
X16621519Y-9579716D01*
X16700577Y-9442785D01*
X16741501Y-9290057D01*
X16741501Y-9131943D01*
X16700577Y-8979215D01*
X16687112Y-8955894D01*
X16670500Y-8893894D01*
X16670500Y-8725317D01*
X16670499Y-8725302D01*
X16669664Y-8714697D01*
X16667643Y-8689007D01*
X16662585Y-8671599D01*
X16622495Y-8533609D01*
X16622495Y-8533608D01*
X16622494Y-8533607D01*
X16622494Y-8533605D01*
X16610379Y-8513120D01*
X16593196Y-8445399D01*
X16610379Y-8386880D01*
X16622494Y-8366395D01*
X16667643Y-8210993D01*
X16670500Y-8174690D01*
X16670500Y-7765310D01*
X16667643Y-7729007D01*
X16652592Y-7677203D01*
X16622495Y-7573609D01*
X16622494Y-7573606D01*
X16622494Y-7573605D01*
X16540117Y-7434313D01*
X16540115Y-7434311D01*
X16540112Y-7434307D01*
X16433485Y-7327680D01*
X16400000Y-7266357D01*
X16404984Y-7196665D01*
X16426690Y-7162897D01*
X16425337Y-7161848D01*
X16430109Y-7155694D01*
X16430117Y-7155687D01*
X16512494Y-7016395D01*
X16557643Y-6860993D01*
X16560500Y-6824690D01*
X16560500Y-6710096D01*
X16569145Y-6680652D01*
X16575668Y-6650670D01*
X16579422Y-6645654D01*
X16580185Y-6643057D01*
X16596810Y-6622424D01*
X16702322Y-6516912D01*
X16763640Y-6483430D01*
X16833332Y-6488414D01*
G37*
G04 #@! TD.AperFunction*
G04 #@! TA.AperFunction,NonConductor*
G36*
X10865703Y-8893435D02*
G01*
X10890037Y-8922050D01*
X10910913Y-8955895D01*
X10932837Y-8991441D01*
X10937288Y-8998656D01*
X11061344Y-9122712D01*
X11210666Y-9214814D01*
X11377203Y-9269999D01*
X11479991Y-9280500D01*
X12179902Y-9280499D01*
X12209348Y-9289145D01*
X12239329Y-9295667D01*
X12244342Y-9299419D01*
X12246941Y-9300183D01*
X12267583Y-9316818D01*
X12375273Y-9424508D01*
X12394977Y-9450186D01*
X12400200Y-9459232D01*
X12400480Y-9459716D01*
X12439480Y-9498716D01*
X12551284Y-9610520D01*
X12551285Y-9610521D01*
X12551287Y-9610522D01*
X12564435Y-9618113D01*
X12612650Y-9668679D01*
X12625874Y-9737286D01*
X12599906Y-9802151D01*
X12542992Y-9842680D01*
X12502435Y-9849500D01*
X10784500Y-9849500D01*
X10717461Y-9829815D01*
X10671706Y-9777011D01*
X10660500Y-9725500D01*
X10660500Y-8987148D01*
X10680185Y-8920109D01*
X10732989Y-8874354D01*
X10802147Y-8864410D01*
X10865703Y-8893435D01*
G37*
G04 #@! TD.AperFunction*
M02*
