G04 #@! TF.GenerationSoftware,KiCad,Pcbnew,9.0.7*
G04 #@! TF.CreationDate,2026-05-28T15:11:57-05:00*
G04 #@! TF.ProjectId,Knox Key Kicad,4b6e6f78-204b-4657-9920-4b696361642e,rev?*
G04 #@! TF.SameCoordinates,PX813b7f0PY6643331*
G04 #@! TF.FileFunction,Copper,L2,Bot*
G04 #@! TF.FilePolarity,Positive*
%FSLAX46Y46*%
G04 Gerber Fmt 4.6, Leading zero omitted, Abs format (unit mm)*
G04 Created by KiCad (PCBNEW 9.0.7) date 2026-05-28 15:11:57*
%MOMM*%
%LPD*%
G01*
G04 APERTURE LIST*
G04 Aperture macros list*
%AMRoundRect*
0 Rectangle with rounded corners*
0 $1 Rounding radius*
0 $2 $3 $4 $5 $6 $7 $8 $9 X,Y pos of 4 corners*
0 Add a 4 corners polygon primitive as box body*
4,1,4,$2,$3,$4,$5,$6,$7,$8,$9,$2,$3,0*
0 Add four circle primitives for the rounded corners*
1,1,$1+$1,$2,$3*
1,1,$1+$1,$4,$5*
1,1,$1+$1,$6,$7*
1,1,$1+$1,$8,$9*
0 Add four rect primitives between the rounded corners*
20,1,$1+$1,$2,$3,$4,$5,0*
20,1,$1+$1,$4,$5,$6,$7,0*
20,1,$1+$1,$6,$7,$8,$9,0*
20,1,$1+$1,$8,$9,$2,$3,0*%
G04 Aperture macros list end*
G04 #@! TA.AperFunction,ComponentPad*
%ADD10R,1.700000X1.700000*%
G04 #@! TD*
G04 #@! TA.AperFunction,ComponentPad*
%ADD11C,1.700000*%
G04 #@! TD*
G04 #@! TA.AperFunction,SMDPad,CuDef*
%ADD12RoundRect,0.112000X0.238000X-0.238000X0.238000X0.238000X-0.238000X0.238000X-0.238000X-0.238000X0*%
G04 #@! TD*
G04 #@! TA.AperFunction,SMDPad,CuDef*
%ADD13RoundRect,0.055000X0.595000X-0.055000X0.595000X0.055000X-0.595000X0.055000X-0.595000X-0.055000X0*%
G04 #@! TD*
G04 #@! TA.AperFunction,SMDPad,CuDef*
%ADD14RoundRect,0.062500X0.587500X-0.062500X0.587500X0.062500X-0.587500X0.062500X-0.587500X-0.062500X0*%
G04 #@! TD*
G04 #@! TA.AperFunction,ViaPad*
%ADD15C,0.600000*%
G04 #@! TD*
G04 #@! TA.AperFunction,Conductor*
%ADD16C,0.200000*%
G04 #@! TD*
G04 APERTURE END LIST*
D10*
G04 #@! TO.P,J3,1,Pin_1*
G04 #@! TO.N,+3V3*
X22400000Y5200000D03*
D11*
G04 #@! TO.P,J3,2,Pin_2*
G04 #@! TO.N,/SWDIO*
X19860000Y5200000D03*
G04 #@! TO.P,J3,3,Pin_3*
G04 #@! TO.N,/SWCLK*
X17320000Y5200000D03*
G04 #@! TO.P,J3,4,Pin_4*
G04 #@! TO.N,/NRST*
X14780000Y5200000D03*
G04 #@! TO.P,J3,5,Pin_5*
G04 #@! TO.N,GND*
X12240000Y5200000D03*
G04 #@! TD*
D12*
G04 #@! TO.P,P1,A1,GND*
G04 #@! TO.N,GND*
X39440000Y-4954999D03*
X39440000Y1895001D03*
D13*
G04 #@! TO.P,P1,B1,GND*
X40090000Y-4279999D03*
D14*
G04 #@! TO.P,P1,B2,TX2+*
G04 #@! TO.N,unconnected-(P1-TX2+-PadB2)*
X40090000Y-3779999D03*
G04 #@! TO.P,P1,B3,TX2-*
G04 #@! TO.N,unconnected-(P1-TX2--PadB3)*
X40090000Y-3279999D03*
G04 #@! TO.P,P1,B4,VBUS*
G04 #@! TO.N,VBUS*
X40090000Y-2779999D03*
G04 #@! TO.P,P1,B5,VCONN*
G04 #@! TO.N,unconnected-(P1-VCONN-PadB5)*
X40090000Y-2279999D03*
G04 #@! TO.P,P1,B6*
G04 #@! TO.N,N/C*
X40090000Y-1779999D03*
G04 #@! TO.P,P1,B7*
X40090000Y-1279999D03*
G04 #@! TO.P,P1,B8,SBU2*
G04 #@! TO.N,unconnected-(P1-SBU2-PadB8)*
X40090000Y-779999D03*
G04 #@! TO.P,P1,B9,VBUS*
G04 #@! TO.N,VBUS*
X40090000Y-279999D03*
G04 #@! TO.P,P1,B10,RX1-*
G04 #@! TO.N,unconnected-(P1-RX1--PadB10)*
X40090000Y220001D03*
G04 #@! TO.P,P1,B11,RX1+*
G04 #@! TO.N,unconnected-(P1-RX1+-PadB11)*
X40090000Y720001D03*
D13*
G04 #@! TO.P,P1,B12,GND*
G04 #@! TO.N,GND*
X40090000Y1220001D03*
G04 #@! TD*
D15*
G04 #@! TO.N,+3V3*
X24510000Y-4670000D03*
X27377711Y-7877000D03*
X23930000Y2230000D03*
X32710000Y-2450000D03*
G04 #@! TO.N,GND*
X31220000Y4760000D03*
X11625000Y-4289999D03*
X15860000Y-7970000D03*
X35860000Y-7320000D03*
X35810000Y-8480000D03*
X20610000Y530000D03*
X39440000Y-4954999D03*
X25490000Y530000D03*
X34670000Y340000D03*
X15750000Y-5660000D03*
X31410000Y-7740000D03*
X30140000Y-9130000D03*
X36325000Y-1930000D03*
X36180000Y-5320000D03*
X33870000Y-3930000D03*
X11625000Y1710001D03*
X18800000Y-2819999D03*
X34750000Y-5790000D03*
X11980000Y-6480000D03*
X33780000Y-8500000D03*
X33830000Y-7270000D03*
X14180000Y-8180000D03*
X38100000Y1570000D03*
X39440000Y1895001D03*
G04 #@! TO.N,VBUS*
X38100000Y20000D03*
X38200000Y-2880000D03*
G04 #@! TO.N,/NRST*
X22560000Y-6780000D03*
G04 #@! TO.N,/HSE_IN*
X15860000Y-8930000D03*
X25105000Y-2425000D03*
G04 #@! TO.N,Net-(D1-GK)*
X17300000Y180001D03*
X18200000Y-4200000D03*
G04 #@! TD*
D16*
G04 #@! TO.N,+3V3*
X26984096Y-7483385D02*
X26983385Y-7483385D01*
X23930000Y2230000D02*
X23930000Y360000D01*
X22400000Y5200000D02*
X22400000Y3760000D01*
X24510000Y-5010000D02*
X24510000Y-4670000D01*
X26730000Y-2450000D02*
X24510000Y-4670000D01*
X26983385Y-7483385D02*
X24510000Y-5010000D01*
X22400000Y3760000D02*
X23930000Y2230000D01*
X27377711Y-7877000D02*
X26984096Y-7483385D01*
X32710000Y-2450000D02*
X26730000Y-2450000D01*
X23930000Y360000D02*
X26660000Y-2370000D01*
G04 #@! TO.N,GND*
X40090000Y1220001D02*
X39765001Y1220001D01*
X39765001Y1220001D02*
X39440000Y1545002D01*
X40090000Y-4279999D02*
X39990001Y-4279999D01*
X39440000Y-4830000D02*
X39440000Y-4954999D01*
X39990001Y-4279999D02*
X39440000Y-4830000D01*
X39440000Y1545002D02*
X39440000Y1895001D01*
G04 #@! TO.N,VBUS*
X38300001Y-2779999D02*
X38200000Y-2880000D01*
X38399999Y-279999D02*
X38100000Y20000D01*
X40090000Y-2779999D02*
X38300001Y-2779999D01*
X40090000Y-279999D02*
X38399999Y-279999D01*
G04 #@! TO.N,/NRST*
X21613464Y-5833464D02*
X21613464Y-4023521D01*
X25353943Y-3026000D02*
X25706000Y-2673943D01*
X25706000Y-2176057D02*
X19480943Y4049000D01*
X22560000Y-6780000D02*
X21613464Y-5833464D01*
X15931000Y4049000D02*
X14780000Y5200000D01*
X25706000Y-2673943D02*
X25706000Y-2176057D01*
X22610985Y-3026000D02*
X25353943Y-3026000D01*
X21613464Y-4023521D02*
X22610985Y-3026000D01*
X19480943Y4049000D02*
X15931000Y4049000D01*
G04 #@! TO.N,/HSE_IN*
X15860000Y-8819943D02*
X15860000Y-8930000D01*
X25105000Y-2425000D02*
X22254943Y-2425000D01*
X22254943Y-2425000D02*
X15860000Y-8819943D01*
G04 #@! TO.N,Net-(D1-GK)*
X17300000Y180001D02*
X17300000Y-3300000D01*
X17300000Y-3300000D02*
X18200000Y-4200000D01*
G04 #@! TD*
G04 #@! TA.AperFunction,Conductor*
G04 #@! TO.N,GND*
G36*
X10865703Y5060907D02*
G01*
X10903477Y5002129D01*
X10906973Y4986592D01*
X10923242Y4883873D01*
X10923242Y4883870D01*
X10988904Y4681783D01*
X11085375Y4492450D01*
X11124728Y4438284D01*
X11757037Y5070592D01*
X11774075Y5007007D01*
X11839901Y4892993D01*
X11932993Y4799901D01*
X12047007Y4734075D01*
X12110590Y4717038D01*
X11478282Y4084731D01*
X11478282Y4084730D01*
X11532449Y4045376D01*
X11721782Y3948905D01*
X11923870Y3883243D01*
X12133754Y3850000D01*
X12346246Y3850000D01*
X12556127Y3883243D01*
X12556130Y3883243D01*
X12758217Y3948905D01*
X12947554Y4045378D01*
X13001716Y4084730D01*
X13001717Y4084730D01*
X12369408Y4717038D01*
X12432993Y4734075D01*
X12547007Y4799901D01*
X12640099Y4892993D01*
X12705925Y5007007D01*
X12722962Y5070591D01*
X13355270Y4438283D01*
X13355270Y4438284D01*
X13394622Y4492445D01*
X13399232Y4501493D01*
X13447205Y4552291D01*
X13515025Y4569088D01*
X13581161Y4546553D01*
X13620204Y4501496D01*
X13624949Y4492183D01*
X13749890Y4320214D01*
X13900213Y4169891D01*
X14072179Y4044952D01*
X14072181Y4044951D01*
X14072184Y4044949D01*
X14261588Y3948443D01*
X14463757Y3882754D01*
X14673713Y3849500D01*
X14673714Y3849500D01*
X14886286Y3849500D01*
X14886287Y3849500D01*
X15096243Y3882754D01*
X15138523Y3896493D01*
X15208362Y3898489D01*
X15264522Y3866243D01*
X15446139Y3684626D01*
X15446149Y3684615D01*
X15450479Y3680285D01*
X15450480Y3680284D01*
X15562284Y3568480D01*
X15632024Y3528216D01*
X15699215Y3489423D01*
X15851943Y3448499D01*
X15851946Y3448499D01*
X16017654Y3448499D01*
X16017670Y3448500D01*
X19180846Y3448500D01*
X19247885Y3428815D01*
X19268527Y3412181D01*
X24293527Y-1612819D01*
X24327012Y-1674142D01*
X24322028Y-1743834D01*
X24280156Y-1799767D01*
X24214692Y-1824184D01*
X24205846Y-1824500D01*
X22334000Y-1824500D01*
X22175886Y-1824500D01*
X22023158Y-1865423D01*
X22023157Y-1865423D01*
X22023155Y-1865424D01*
X22023152Y-1865425D01*
X21979858Y-1890422D01*
X21979856Y-1890423D01*
X21886233Y-1944475D01*
X21886225Y-1944481D01*
X21774421Y-2056286D01*
X19107627Y-4723079D01*
X19046304Y-4756564D01*
X18976612Y-4751580D01*
X18920679Y-4709708D01*
X18896262Y-4644244D01*
X18908768Y-4585514D01*
X18907063Y-4584808D01*
X18969735Y-4433501D01*
X18969737Y-4433497D01*
X19000500Y-4278842D01*
X19000500Y-4121158D01*
X19000500Y-4121155D01*
X19000499Y-4121153D01*
X18990042Y-4068582D01*
X18969737Y-3966503D01*
X18933658Y-3879399D01*
X18909397Y-3820827D01*
X18909390Y-3820814D01*
X18821789Y-3689711D01*
X18821786Y-3689707D01*
X18710292Y-3578213D01*
X18710288Y-3578210D01*
X18579185Y-3490609D01*
X18579172Y-3490602D01*
X18433501Y-3430264D01*
X18433491Y-3430261D01*
X18278149Y-3399361D01*
X18216238Y-3366976D01*
X18214660Y-3365425D01*
X17936819Y-3087584D01*
X17903334Y-3026261D01*
X17900500Y-2999903D01*
X17900500Y-399764D01*
X17920185Y-332725D01*
X17921398Y-330873D01*
X18009390Y-199184D01*
X18009390Y-199183D01*
X18009394Y-199178D01*
X18069737Y-53496D01*
X18100500Y101159D01*
X18100500Y258843D01*
X18100500Y258846D01*
X18100499Y258848D01*
X18072585Y399179D01*
X18069737Y413498D01*
X18039083Y487504D01*
X18009397Y559174D01*
X18009390Y559187D01*
X17921789Y690290D01*
X17921786Y690294D01*
X17810292Y801788D01*
X17810288Y801791D01*
X17679185Y889392D01*
X17679172Y889399D01*
X17533501Y949737D01*
X17533489Y949740D01*
X17378845Y980501D01*
X17378842Y980501D01*
X17221158Y980501D01*
X17221155Y980501D01*
X17066510Y949740D01*
X17066498Y949737D01*
X16920827Y889399D01*
X16920814Y889392D01*
X16789711Y801791D01*
X16789707Y801788D01*
X16678213Y690294D01*
X16678210Y690290D01*
X16590609Y559187D01*
X16590602Y559174D01*
X16530264Y413503D01*
X16530261Y413491D01*
X16499500Y258848D01*
X16499500Y101155D01*
X16530261Y-53488D01*
X16530264Y-53500D01*
X16590602Y-199171D01*
X16590609Y-199184D01*
X16678602Y-330873D01*
X16699480Y-397550D01*
X16699500Y-399764D01*
X16699500Y-3213330D01*
X16699499Y-3213348D01*
X16699499Y-3379054D01*
X16699498Y-3379054D01*
X16704977Y-3399500D01*
X16740423Y-3531785D01*
X16746895Y-3542995D01*
X16746897Y-3543002D01*
X16746899Y-3543002D01*
X16819475Y-3668709D01*
X16819481Y-3668717D01*
X16938349Y-3787585D01*
X16938355Y-3787590D01*
X17365425Y-4214660D01*
X17398910Y-4275983D01*
X17399361Y-4278149D01*
X17430261Y-4433491D01*
X17430264Y-4433501D01*
X17490602Y-4579172D01*
X17490609Y-4579185D01*
X17578210Y-4710288D01*
X17578213Y-4710292D01*
X17689707Y-4821786D01*
X17689711Y-4821789D01*
X17820814Y-4909390D01*
X17820827Y-4909397D01*
X17966498Y-4969735D01*
X17966503Y-4969737D01*
X18121153Y-5000499D01*
X18121156Y-5000500D01*
X18121158Y-5000500D01*
X18278844Y-5000500D01*
X18278845Y-5000499D01*
X18433497Y-4969737D01*
X18489120Y-4946697D01*
X18584808Y-4907063D01*
X18585529Y-4908805D01*
X18645326Y-4896344D01*
X18710574Y-4921333D01*
X18751955Y-4977631D01*
X18756329Y-5047363D01*
X18723079Y-5107627D01*
X15707953Y-8122753D01*
X15646630Y-8156238D01*
X15644467Y-8156689D01*
X15626504Y-8160262D01*
X15626500Y-8160263D01*
X15480827Y-8220602D01*
X15480814Y-8220609D01*
X15349711Y-8308210D01*
X15349707Y-8308213D01*
X15238213Y-8419707D01*
X15238210Y-8419711D01*
X15150609Y-8550814D01*
X15150602Y-8550827D01*
X15090264Y-8696498D01*
X15090261Y-8696510D01*
X15059500Y-8851153D01*
X15059500Y-9008846D01*
X15090261Y-9163489D01*
X15090264Y-9163501D01*
X15150602Y-9309172D01*
X15150609Y-9309185D01*
X15238210Y-9440288D01*
X15238213Y-9440292D01*
X15349707Y-9551786D01*
X15349711Y-9551789D01*
X15455384Y-9622398D01*
X15500189Y-9676010D01*
X15508896Y-9745335D01*
X15478742Y-9808363D01*
X15419298Y-9845082D01*
X15386493Y-9849500D01*
X10784500Y-9849500D01*
X10717461Y-9829815D01*
X10671706Y-9777011D01*
X10660500Y-9725500D01*
X10660500Y4967194D01*
X10680185Y5034233D01*
X10732989Y5079988D01*
X10802147Y5089932D01*
X10865703Y5060907D01*
G37*
G04 #@! TD.AperFunction*
G04 #@! TA.AperFunction,Conductor*
G36*
X37432539Y6849817D02*
G01*
X37478294Y6797013D01*
X37489500Y6745502D01*
X37489500Y2430117D01*
X37520024Y2356425D01*
X37576426Y2300023D01*
X37650118Y2269499D01*
X37650120Y2269499D01*
X37741703Y2269499D01*
X37741723Y2269501D01*
X38466000Y2269501D01*
X38533039Y2249816D01*
X38578794Y2197012D01*
X38590000Y2145501D01*
X38590000Y2145001D01*
X39316000Y2145001D01*
X39383039Y2125316D01*
X39428794Y2072512D01*
X39440000Y2021001D01*
X39440000Y1769001D01*
X39420315Y1701962D01*
X39367511Y1656207D01*
X39316000Y1645001D01*
X38590000Y1645001D01*
X38590000Y1595196D01*
X38592730Y1560504D01*
X38592731Y1560498D01*
X38635868Y1412020D01*
X38635870Y1412015D01*
X38714579Y1278925D01*
X38714586Y1278916D01*
X38823914Y1169588D01*
X38823923Y1169581D01*
X38889970Y1130521D01*
X38910572Y1108456D01*
X38932863Y1088108D01*
X38934794Y1082515D01*
X38937654Y1079452D01*
X38946690Y1055635D01*
X38959193Y1008585D01*
X38958467Y980558D01*
X38960987Y952639D01*
X38957442Y940938D01*
X38957386Y938739D01*
X38956287Y937124D01*
X38954146Y930054D01*
X38953991Y929476D01*
X38939500Y819403D01*
X38939500Y620590D01*
X38939590Y619229D01*
X38939500Y618832D01*
X38939501Y616543D01*
X38938988Y616543D01*
X38924325Y551047D01*
X38874621Y501942D01*
X38806260Y487504D01*
X38740945Y512317D01*
X38726413Y526299D01*
X38726097Y525982D01*
X38610292Y641787D01*
X38610288Y641790D01*
X38479185Y729391D01*
X38479172Y729398D01*
X38333501Y789736D01*
X38333489Y789739D01*
X38178845Y820500D01*
X38178842Y820500D01*
X38021158Y820500D01*
X38021155Y820500D01*
X37866510Y789739D01*
X37866498Y789736D01*
X37720827Y729398D01*
X37720814Y729391D01*
X37589711Y641790D01*
X37589707Y641787D01*
X37478213Y530293D01*
X37478210Y530289D01*
X37390609Y399186D01*
X37390602Y399173D01*
X37330264Y253502D01*
X37330261Y253490D01*
X37299500Y98847D01*
X37299500Y-58846D01*
X37330261Y-213489D01*
X37330264Y-213501D01*
X37390602Y-359172D01*
X37390609Y-359185D01*
X37478210Y-490288D01*
X37478213Y-490292D01*
X37589707Y-601786D01*
X37589711Y-601789D01*
X37720814Y-689390D01*
X37720827Y-689397D01*
X37866498Y-749735D01*
X37866503Y-749737D01*
X38021153Y-780499D01*
X38021156Y-780500D01*
X38021158Y-780500D01*
X38032665Y-780500D01*
X38094664Y-797112D01*
X38168215Y-839576D01*
X38320942Y-880500D01*
X38320944Y-880500D01*
X38486653Y-880500D01*
X38486669Y-880499D01*
X38830899Y-880499D01*
X38860095Y-889072D01*
X38889858Y-895413D01*
X38893295Y-898820D01*
X38897938Y-900184D01*
X38917859Y-923174D01*
X38939475Y-944605D01*
X38941335Y-950267D01*
X38943693Y-952988D01*
X38951951Y-977621D01*
X38953130Y-982931D01*
X38953991Y-989471D01*
X38955265Y-992547D01*
X38957613Y-1003121D01*
X38955965Y-1027637D01*
X38958581Y-1052072D01*
X38955517Y-1062521D01*
X38956095Y-1062676D01*
X38953990Y-1070528D01*
X38939500Y-1180597D01*
X38939500Y-1379402D01*
X38953989Y-1489467D01*
X38956094Y-1497321D01*
X38952814Y-1498199D01*
X38958581Y-1552072D01*
X38955517Y-1562521D01*
X38956095Y-1562676D01*
X38953990Y-1570528D01*
X38939500Y-1680597D01*
X38939500Y-1879402D01*
X38953989Y-1989467D01*
X38956094Y-1997321D01*
X38952824Y-1998196D01*
X38958567Y-2052146D01*
X38957614Y-2056875D01*
X38955267Y-2067446D01*
X38953991Y-2070527D01*
X38953128Y-2077080D01*
X38951953Y-2082374D01*
X38937596Y-2108400D01*
X38925574Y-2135579D01*
X38920906Y-2138658D01*
X38918206Y-2143553D01*
X38892058Y-2157686D01*
X38867250Y-2174051D01*
X38859687Y-2175184D01*
X38856741Y-2176777D01*
X38851641Y-2176390D01*
X38830900Y-2179499D01*
X38625314Y-2179499D01*
X38577862Y-2170060D01*
X38433501Y-2110264D01*
X38433489Y-2110261D01*
X38278845Y-2079500D01*
X38278842Y-2079500D01*
X38121158Y-2079500D01*
X38121155Y-2079500D01*
X37966510Y-2110261D01*
X37966498Y-2110264D01*
X37820827Y-2170602D01*
X37820814Y-2170609D01*
X37689711Y-2258210D01*
X37689707Y-2258213D01*
X37578213Y-2369707D01*
X37578210Y-2369711D01*
X37490609Y-2500814D01*
X37490602Y-2500827D01*
X37430264Y-2646498D01*
X37430261Y-2646510D01*
X37399500Y-2801153D01*
X37399500Y-2958846D01*
X37430261Y-3113489D01*
X37430264Y-3113501D01*
X37490602Y-3259172D01*
X37490609Y-3259185D01*
X37578210Y-3390288D01*
X37578213Y-3390292D01*
X37689707Y-3501786D01*
X37689711Y-3501789D01*
X37820814Y-3589390D01*
X37820827Y-3589397D01*
X37966498Y-3649735D01*
X37966503Y-3649737D01*
X38121153Y-3680499D01*
X38121156Y-3680500D01*
X38121158Y-3680500D01*
X38278844Y-3680500D01*
X38278845Y-3680499D01*
X38433497Y-3649737D01*
X38579179Y-3589394D01*
X38710289Y-3501789D01*
X38743061Y-3469016D01*
X38804380Y-3435532D01*
X38874071Y-3440515D01*
X38930006Y-3482385D01*
X38954425Y-3547849D01*
X38953680Y-3572882D01*
X38939500Y-3680595D01*
X38939500Y-3879402D01*
X38953989Y-3989469D01*
X38956093Y-3997318D01*
X38954814Y-3997660D01*
X38956344Y-4011888D01*
X38963311Y-4033529D01*
X38960425Y-4049863D01*
X38961381Y-4058757D01*
X38959193Y-4068582D01*
X38946690Y-4115632D01*
X38932899Y-4138362D01*
X38922421Y-4162792D01*
X38913403Y-4170496D01*
X38910448Y-4175368D01*
X38904039Y-4178497D01*
X38889972Y-4190517D01*
X38823924Y-4229578D01*
X38823919Y-4229582D01*
X38714583Y-4338917D01*
X38714579Y-4338922D01*
X38635870Y-4472012D01*
X38635868Y-4472017D01*
X38592731Y-4620495D01*
X38592730Y-4620501D01*
X38590000Y-4655193D01*
X38590000Y-4704999D01*
X39316000Y-4704999D01*
X39383039Y-4724684D01*
X39428794Y-4777488D01*
X39440000Y-4828999D01*
X39440000Y-5080999D01*
X39420315Y-5148038D01*
X39367511Y-5193793D01*
X39316000Y-5204999D01*
X38590000Y-5204999D01*
X38590000Y-5205499D01*
X38570315Y-5272538D01*
X38517511Y-5318293D01*
X38466000Y-5329499D01*
X37689417Y-5329499D01*
X37650448Y-5329435D01*
X37650293Y-5329499D01*
X37650115Y-5329499D01*
X37612853Y-5344933D01*
X37612622Y-5345030D01*
X37576706Y-5359838D01*
X37576587Y-5359956D01*
X37576426Y-5360023D01*
X37576398Y-5360050D01*
X37576395Y-5360052D01*
X37547851Y-5388596D01*
X37547655Y-5388791D01*
X37520211Y-5416147D01*
X37520146Y-5416302D01*
X37520024Y-5416425D01*
X37504718Y-5453375D01*
X37489566Y-5489788D01*
X37489565Y-5489958D01*
X37489500Y-5490117D01*
X37489500Y-5529917D01*
X37482643Y-9699737D01*
X37482600Y-9725704D01*
X37462805Y-9792711D01*
X37409926Y-9838379D01*
X37358600Y-9849500D01*
X16333507Y-9849500D01*
X16266468Y-9829815D01*
X16220713Y-9777011D01*
X16210769Y-9707853D01*
X16239794Y-9644297D01*
X16264616Y-9622398D01*
X16308748Y-9592909D01*
X16370289Y-9551789D01*
X16481789Y-9440289D01*
X16569394Y-9309179D01*
X16629737Y-9163497D01*
X16660500Y-9008842D01*
X16660500Y-8920040D01*
X16680185Y-8853001D01*
X16696819Y-8832359D01*
X20801283Y-4727895D01*
X20862606Y-4694410D01*
X20932298Y-4699394D01*
X20988231Y-4741266D01*
X21012648Y-4806730D01*
X21012964Y-4815576D01*
X21012964Y-5746794D01*
X21012963Y-5746812D01*
X21012963Y-5912518D01*
X21012962Y-5912518D01*
X21012963Y-5912521D01*
X21053887Y-6065249D01*
X21056978Y-6070602D01*
X21056981Y-6070607D01*
X21056981Y-6070608D01*
X21132941Y-6202176D01*
X21132945Y-6202181D01*
X21251813Y-6321049D01*
X21251819Y-6321054D01*
X21725425Y-6794660D01*
X21758910Y-6855983D01*
X21759361Y-6858149D01*
X21790261Y-7013491D01*
X21790264Y-7013501D01*
X21850602Y-7159172D01*
X21850609Y-7159185D01*
X21938210Y-7290288D01*
X21938213Y-7290292D01*
X22049707Y-7401786D01*
X22049711Y-7401789D01*
X22180814Y-7489390D01*
X22180827Y-7489397D01*
X22326498Y-7549735D01*
X22326503Y-7549737D01*
X22481153Y-7580499D01*
X22481156Y-7580500D01*
X22481158Y-7580500D01*
X22638844Y-7580500D01*
X22638845Y-7580499D01*
X22793497Y-7549737D01*
X22939179Y-7489394D01*
X23070289Y-7401789D01*
X23181789Y-7290289D01*
X23269394Y-7159179D01*
X23329737Y-7013497D01*
X23360500Y-6858842D01*
X23360500Y-6701158D01*
X23360500Y-6701155D01*
X23360499Y-6701153D01*
X23329738Y-6546510D01*
X23329737Y-6546503D01*
X23329735Y-6546498D01*
X23269397Y-6400827D01*
X23269390Y-6400814D01*
X23181789Y-6269711D01*
X23181786Y-6269707D01*
X23070292Y-6158213D01*
X23070288Y-6158210D01*
X22939185Y-6070609D01*
X22939172Y-6070602D01*
X22793501Y-6010264D01*
X22793491Y-6010261D01*
X22638149Y-5979361D01*
X22576238Y-5946976D01*
X22574660Y-5945425D01*
X22250283Y-5621048D01*
X22216798Y-5559725D01*
X22213964Y-5533367D01*
X22213964Y-4323618D01*
X22233649Y-4256579D01*
X22250283Y-4235937D01*
X22823402Y-3662819D01*
X22884725Y-3629334D01*
X22911083Y-3626500D01*
X24393807Y-3626500D01*
X24460846Y-3646185D01*
X24506601Y-3698989D01*
X24516545Y-3768147D01*
X24487520Y-3831703D01*
X24428742Y-3869477D01*
X24417999Y-3872117D01*
X24276508Y-3900261D01*
X24276498Y-3900264D01*
X24130827Y-3960602D01*
X24130814Y-3960609D01*
X23999711Y-4048210D01*
X23999707Y-4048213D01*
X23888213Y-4159707D01*
X23888210Y-4159711D01*
X23800609Y-4290814D01*
X23800602Y-4290827D01*
X23740264Y-4436498D01*
X23740261Y-4436510D01*
X23709500Y-4591153D01*
X23709500Y-4748846D01*
X23740261Y-4903489D01*
X23740264Y-4903501D01*
X23800602Y-5049172D01*
X23800609Y-5049185D01*
X23888210Y-5180288D01*
X23888213Y-5180292D01*
X23939856Y-5231934D01*
X23959563Y-5257616D01*
X23979293Y-5291789D01*
X24029479Y-5378714D01*
X24029481Y-5378717D01*
X24148349Y-5497585D01*
X24148355Y-5497590D01*
X26543313Y-7892548D01*
X26576798Y-7953871D01*
X26577249Y-7956037D01*
X26607972Y-8110491D01*
X26607975Y-8110501D01*
X26668313Y-8256172D01*
X26668320Y-8256185D01*
X26755921Y-8387288D01*
X26755924Y-8387292D01*
X26867418Y-8498786D01*
X26867422Y-8498789D01*
X26998525Y-8586390D01*
X26998538Y-8586397D01*
X27144209Y-8646735D01*
X27144214Y-8646737D01*
X27298864Y-8677499D01*
X27298867Y-8677500D01*
X27298869Y-8677500D01*
X27456555Y-8677500D01*
X27456556Y-8677499D01*
X27611208Y-8646737D01*
X27756890Y-8586394D01*
X27888000Y-8498789D01*
X27999500Y-8387289D01*
X28087105Y-8256179D01*
X28147448Y-8110497D01*
X28178211Y-7955842D01*
X28178211Y-7798158D01*
X28178211Y-7798155D01*
X28178210Y-7798153D01*
X28147449Y-7643510D01*
X28147448Y-7643503D01*
X28108610Y-7549738D01*
X28087108Y-7497827D01*
X28087101Y-7497814D01*
X27999500Y-7366711D01*
X27999497Y-7366707D01*
X27888003Y-7255213D01*
X27887999Y-7255210D01*
X27756896Y-7167609D01*
X27756883Y-7167602D01*
X27611212Y-7107264D01*
X27611202Y-7107261D01*
X27455862Y-7076362D01*
X27439502Y-7067804D01*
X27421435Y-7064014D01*
X27395672Y-7044877D01*
X27393952Y-7043977D01*
X27393024Y-7043073D01*
X27392751Y-7042804D01*
X27352812Y-7002865D01*
X27351372Y-7002033D01*
X27344661Y-6995421D01*
X27344578Y-6995272D01*
X27344010Y-6994774D01*
X26359497Y-6010261D01*
X25322122Y-4972887D01*
X25288638Y-4911565D01*
X25288187Y-4861015D01*
X25310638Y-4748149D01*
X25343023Y-4686238D01*
X25344516Y-4684718D01*
X26942416Y-3086819D01*
X27003739Y-3053334D01*
X27030097Y-3050500D01*
X32130234Y-3050500D01*
X32197273Y-3070185D01*
X32199125Y-3071398D01*
X32330814Y-3159390D01*
X32330827Y-3159397D01*
X32461035Y-3213330D01*
X32476503Y-3219737D01*
X32631153Y-3250499D01*
X32631156Y-3250500D01*
X32631158Y-3250500D01*
X32788844Y-3250500D01*
X32788845Y-3250499D01*
X32943497Y-3219737D01*
X33089179Y-3159394D01*
X33220289Y-3071789D01*
X33331789Y-2960289D01*
X33419394Y-2829179D01*
X33479737Y-2683497D01*
X33510500Y-2528842D01*
X33510500Y-2371158D01*
X33510500Y-2371155D01*
X33510499Y-2371153D01*
X33510211Y-2369707D01*
X33479737Y-2216503D01*
X33464865Y-2180599D01*
X33419397Y-2070827D01*
X33419390Y-2070814D01*
X33331789Y-1939711D01*
X33331786Y-1939707D01*
X33220292Y-1828213D01*
X33220288Y-1828210D01*
X33089185Y-1740609D01*
X33089172Y-1740602D01*
X32943501Y-1680264D01*
X32943489Y-1680261D01*
X32788845Y-1649500D01*
X32788842Y-1649500D01*
X32631158Y-1649500D01*
X32631155Y-1649500D01*
X32476510Y-1680261D01*
X32476498Y-1680264D01*
X32330827Y-1740602D01*
X32330814Y-1740609D01*
X32199125Y-1828602D01*
X32132447Y-1849480D01*
X32130234Y-1849500D01*
X27040097Y-1849500D01*
X26973058Y-1829815D01*
X26952416Y-1813181D01*
X24566819Y572416D01*
X24533334Y633739D01*
X24530500Y660097D01*
X24530500Y1650235D01*
X24550185Y1717274D01*
X24551398Y1719126D01*
X24584724Y1769001D01*
X24639394Y1850821D01*
X24699737Y1996503D01*
X24730500Y2151158D01*
X24730500Y2308842D01*
X24730500Y2308845D01*
X24730499Y2308847D01*
X24706377Y2430116D01*
X24699737Y2463497D01*
X24699735Y2463502D01*
X24639397Y2609173D01*
X24639390Y2609186D01*
X24551789Y2740289D01*
X24551786Y2740293D01*
X24440292Y2851787D01*
X24440288Y2851790D01*
X24309185Y2939391D01*
X24309172Y2939398D01*
X24163501Y2999736D01*
X24163491Y2999739D01*
X24008151Y3030638D01*
X23946241Y3063023D01*
X23944662Y3064574D01*
X23729756Y3279480D01*
X23345220Y3664015D01*
X23311736Y3725337D01*
X23316720Y3795028D01*
X23358591Y3850962D01*
X23389568Y3867876D01*
X23492331Y3906204D01*
X23607546Y3992454D01*
X23693796Y4107669D01*
X23744091Y4242517D01*
X23750500Y4302127D01*
X23750499Y6097872D01*
X23744091Y6157483D01*
X23742810Y6160917D01*
X23693797Y6292329D01*
X23693793Y6292336D01*
X23607547Y6407545D01*
X23607544Y6407548D01*
X23492335Y6493794D01*
X23492328Y6493798D01*
X23357482Y6544092D01*
X23357483Y6544092D01*
X23297883Y6550499D01*
X23297881Y6550500D01*
X23297873Y6550500D01*
X23297864Y6550500D01*
X21502129Y6550500D01*
X21502123Y6550499D01*
X21442516Y6544092D01*
X21307671Y6493798D01*
X21307664Y6493794D01*
X21192455Y6407548D01*
X21192452Y6407545D01*
X21106206Y6292336D01*
X21106203Y6292331D01*
X21057189Y6160917D01*
X21015317Y6104984D01*
X20949853Y6080567D01*
X20881580Y6095419D01*
X20853326Y6116570D01*
X20739786Y6230110D01*
X20567820Y6355049D01*
X20378414Y6451556D01*
X20378413Y6451557D01*
X20378412Y6451557D01*
X20176243Y6517246D01*
X20176241Y6517247D01*
X20176240Y6517247D01*
X20014957Y6542792D01*
X19966287Y6550500D01*
X19753713Y6550500D01*
X19705042Y6542792D01*
X19543760Y6517247D01*
X19341585Y6451556D01*
X19152179Y6355049D01*
X18980213Y6230110D01*
X18829890Y6079787D01*
X18704949Y5907818D01*
X18700484Y5899054D01*
X18652509Y5848258D01*
X18584688Y5831464D01*
X18518553Y5854002D01*
X18479516Y5899054D01*
X18475050Y5907818D01*
X18350109Y6079787D01*
X18199786Y6230110D01*
X18027820Y6355049D01*
X17838414Y6451556D01*
X17838413Y6451557D01*
X17838412Y6451557D01*
X17636243Y6517246D01*
X17636241Y6517247D01*
X17636240Y6517247D01*
X17474957Y6542792D01*
X17426287Y6550500D01*
X17213713Y6550500D01*
X17165042Y6542792D01*
X17003760Y6517247D01*
X16801585Y6451556D01*
X16612179Y6355049D01*
X16440213Y6230110D01*
X16289890Y6079787D01*
X16164949Y5907818D01*
X16160484Y5899054D01*
X16112509Y5848258D01*
X16044688Y5831464D01*
X15978553Y5854002D01*
X15939516Y5899054D01*
X15935050Y5907818D01*
X15810109Y6079787D01*
X15659786Y6230110D01*
X15487820Y6355049D01*
X15298414Y6451556D01*
X15298413Y6451557D01*
X15298412Y6451557D01*
X15096243Y6517246D01*
X15096241Y6517247D01*
X15096240Y6517247D01*
X14934957Y6542792D01*
X14886287Y6550500D01*
X14673713Y6550500D01*
X14625042Y6542792D01*
X14463760Y6517247D01*
X14261585Y6451556D01*
X14072179Y6355049D01*
X13900213Y6230110D01*
X13749890Y6079787D01*
X13624949Y5907818D01*
X13620202Y5898501D01*
X13572227Y5847707D01*
X13504405Y5830913D01*
X13438271Y5853452D01*
X13399234Y5898505D01*
X13394626Y5907548D01*
X13355270Y5961718D01*
X13355269Y5961718D01*
X12722962Y5329410D01*
X12705925Y5392993D01*
X12640099Y5507007D01*
X12547007Y5600099D01*
X12432993Y5665925D01*
X12369409Y5682963D01*
X13001716Y6315272D01*
X12947550Y6354625D01*
X12758217Y6451096D01*
X12556129Y6516758D01*
X12346246Y6550000D01*
X12133754Y6550000D01*
X11923872Y6516758D01*
X11923869Y6516758D01*
X11721782Y6451096D01*
X11532439Y6354620D01*
X11478282Y6315273D01*
X11478282Y6315272D01*
X12110591Y5682963D01*
X12047007Y5665925D01*
X11932993Y5600099D01*
X11839901Y5507007D01*
X11774075Y5392993D01*
X11757037Y5329409D01*
X11124728Y5961718D01*
X11124727Y5961718D01*
X11085380Y5907561D01*
X10988904Y5718218D01*
X10923242Y5516131D01*
X10923242Y5516128D01*
X10906973Y5413409D01*
X10877044Y5350274D01*
X10817732Y5313343D01*
X10747870Y5314341D01*
X10689637Y5352951D01*
X10661523Y5416914D01*
X10660500Y5432807D01*
X10660500Y6745500D01*
X10680185Y6812539D01*
X10732989Y6858294D01*
X10784500Y6869500D01*
X20453738Y6869500D01*
X20453741Y6869502D01*
X37365500Y6869502D01*
X37432539Y6849817D01*
G37*
G04 #@! TD.AperFunction*
G04 #@! TD*
G04 #@! TA.AperFunction,NonConductor*
G36*
X20984340Y4311932D02*
G01*
X21040274Y4270061D01*
X21057189Y4239083D01*
X21106202Y4107672D01*
X21106206Y4107665D01*
X21192452Y3992456D01*
X21192455Y3992453D01*
X21307664Y3906207D01*
X21307671Y3906203D01*
X21307674Y3906202D01*
X21442517Y3855909D01*
X21502127Y3849500D01*
X21675499Y3849501D01*
X21742538Y3829817D01*
X21788293Y3777013D01*
X21799499Y3725501D01*
X21799499Y3680946D01*
X21799498Y3680946D01*
X21829633Y3568480D01*
X21840423Y3528215D01*
X21862820Y3489423D01*
X21897812Y3428815D01*
X21919479Y3391286D01*
X21919481Y3391283D01*
X22038349Y3272415D01*
X22038355Y3272410D01*
X23095425Y2215340D01*
X23128910Y2154017D01*
X23129361Y2151851D01*
X23160261Y1996509D01*
X23160264Y1996499D01*
X23220602Y1850828D01*
X23220609Y1850815D01*
X23308602Y1719126D01*
X23329480Y1652449D01*
X23329500Y1650235D01*
X23329500Y1349040D01*
X23309815Y1282001D01*
X23257011Y1236246D01*
X23187853Y1226302D01*
X23124297Y1255327D01*
X23117819Y1261359D01*
X20533756Y3845422D01*
X20500271Y3906745D01*
X20505255Y3976437D01*
X20547127Y4032370D01*
X20565140Y4043586D01*
X20567816Y4044949D01*
X20739792Y4169896D01*
X20853329Y4283434D01*
X20914648Y4316916D01*
X20984340Y4311932D01*
G37*
G04 #@! TD.AperFunction*
G04 #@! TA.AperFunction,NonConductor*
G36*
X41379631Y1340352D02*
G01*
X41393272Y1340997D01*
X41409640Y1331540D01*
X41432539Y1324816D01*
X41443829Y1311787D01*
X41453770Y1306043D01*
X41461047Y1291916D01*
X41478294Y1272012D01*
X41483406Y1248510D01*
X41485766Y1243930D01*
X41486145Y1235923D01*
X41489500Y1220501D01*
X41489500Y-4280499D01*
X41486949Y-4289184D01*
X41488238Y-4298146D01*
X41477259Y-4322186D01*
X41469815Y-4347538D01*
X41462974Y-4353465D01*
X41459213Y-4361702D01*
X41436978Y-4375991D01*
X41417011Y-4393293D01*
X41406496Y-4395580D01*
X41400435Y-4399476D01*
X41365500Y-4404499D01*
X41364000Y-4404499D01*
X41296961Y-4384814D01*
X41251206Y-4332010D01*
X41240000Y-4280499D01*
X41240000Y-4181548D01*
X41229289Y-4092360D01*
X41229287Y-4092354D01*
X41225293Y-4082225D01*
X41219011Y-4012639D01*
X41225846Y-3990075D01*
X41226007Y-3989474D01*
X41226009Y-3989471D01*
X41240500Y-3879400D01*
X41240499Y-3680599D01*
X41240498Y-3680595D01*
X41228493Y-3589397D01*
X41226009Y-3570527D01*
X41226008Y-3570524D01*
X41223905Y-3562673D01*
X41227207Y-3561788D01*
X41221392Y-3508074D01*
X41224501Y-3497484D01*
X41223905Y-3497325D01*
X41226008Y-3489474D01*
X41226008Y-3489473D01*
X41226009Y-3489471D01*
X41240500Y-3379400D01*
X41240499Y-3180599D01*
X41226009Y-3070527D01*
X41226008Y-3070524D01*
X41223905Y-3062673D01*
X41227207Y-3061788D01*
X41221392Y-3008074D01*
X41224501Y-2997484D01*
X41223905Y-2997325D01*
X41226008Y-2989474D01*
X41226008Y-2989473D01*
X41226009Y-2989471D01*
X41240500Y-2879400D01*
X41240499Y-2680599D01*
X41226009Y-2570527D01*
X41226008Y-2570524D01*
X41223905Y-2562673D01*
X41227207Y-2561788D01*
X41221392Y-2508074D01*
X41224501Y-2497484D01*
X41223905Y-2497325D01*
X41226008Y-2489474D01*
X41226008Y-2489473D01*
X41226009Y-2489471D01*
X41240500Y-2379400D01*
X41240499Y-2180599D01*
X41226009Y-2070527D01*
X41226008Y-2070524D01*
X41223905Y-2062673D01*
X41227207Y-2061788D01*
X41221392Y-2008074D01*
X41224501Y-1997484D01*
X41223905Y-1997325D01*
X41226008Y-1989474D01*
X41226008Y-1989473D01*
X41226009Y-1989471D01*
X41240500Y-1879400D01*
X41240499Y-1680599D01*
X41226009Y-1570527D01*
X41226008Y-1570524D01*
X41223905Y-1562673D01*
X41227207Y-1561788D01*
X41221392Y-1508074D01*
X41224501Y-1497484D01*
X41223905Y-1497325D01*
X41226008Y-1489474D01*
X41226008Y-1489473D01*
X41226009Y-1489471D01*
X41240500Y-1379400D01*
X41240499Y-1180599D01*
X41226009Y-1070527D01*
X41226008Y-1070524D01*
X41223905Y-1062673D01*
X41227207Y-1061788D01*
X41221392Y-1008074D01*
X41224501Y-997484D01*
X41223905Y-997325D01*
X41226008Y-989474D01*
X41226008Y-989473D01*
X41226009Y-989471D01*
X41240500Y-879400D01*
X41240499Y-680599D01*
X41226009Y-570527D01*
X41226008Y-570524D01*
X41223905Y-562673D01*
X41227207Y-561788D01*
X41221392Y-508074D01*
X41224501Y-497484D01*
X41223905Y-497325D01*
X41226008Y-489474D01*
X41226008Y-489473D01*
X41226009Y-489471D01*
X41240500Y-379400D01*
X41240499Y-180599D01*
X41226009Y-70527D01*
X41226008Y-70524D01*
X41223905Y-62673D01*
X41227207Y-61788D01*
X41221392Y-8074D01*
X41224501Y2516D01*
X41223905Y2675D01*
X41226008Y10526D01*
X41226008Y10527D01*
X41226009Y10529D01*
X41240500Y120600D01*
X41240499Y319401D01*
X41226009Y429473D01*
X41226008Y429476D01*
X41223905Y437327D01*
X41227207Y438212D01*
X41221392Y491926D01*
X41224501Y502516D01*
X41223905Y502675D01*
X41226008Y510526D01*
X41226008Y510527D01*
X41226009Y510529D01*
X41240500Y620600D01*
X41240499Y819401D01*
X41240499Y819403D01*
X41240499Y819405D01*
X41226010Y929470D01*
X41223906Y937323D01*
X41224847Y937576D01*
X41217212Y988564D01*
X41240565Y1232326D01*
X41251445Y1259481D01*
X41259685Y1287540D01*
X41264286Y1291528D01*
X41266553Y1297183D01*
X41290390Y1314147D01*
X41312489Y1333295D01*
X41319416Y1334802D01*
X41323480Y1337694D01*
X41335276Y1338253D01*
X41364000Y1344501D01*
X41365500Y1344501D01*
X41379631Y1340352D01*
G37*
G04 #@! TD.AperFunction*
M02*
